<svg width="12" height="12" viewBox="0 0 12 12" fill="none" xmlns="http://www.w3.org/2000/svg">
<path d="M6 12C9.31371 12 12 9.31371 12 6C12 2.68629 9.31371 0 6 0C2.68629 0 0 2.68629 0 6C0 9.31371 2.68629 12 6 12Z" fill="#039BE5"/>
<path d="M2.74612 5.87108L8.53112 3.64058C8.79962 3.54358 9.03412 3.70608 8.94712 4.11208L8.94762 4.11158L7.96262 8.75208C7.88962 9.08108 7.69412 9.16108 7.42062 9.00608L5.92062 7.90058L5.19712 8.59758C5.11712 8.67758 5.04962 8.74508 4.89462 8.74508L5.00112 7.21858L7.78112 4.70708C7.90212 4.60058 7.75412 4.54058 7.59462 4.64658L4.15912 6.80958L2.67812 6.34758C2.35662 6.24558 2.34962 6.02608 2.74612 5.87108Z" fill="white"/>
</svg>
