<svg width="12" height="12" viewBox="0 0 12 12" fill="none" xmlns="http://www.w3.org/2000/svg">
<g clip-path="url(#clip0)">
<path d="M11.578 6.94725C11.936 3.93375 11.406 2.03125 10.45 1.17074L10.4505 1.17024C8.90753 -0.299255 3.69653 -0.516755 1.85053 1.23624C1.02153 2.09375 0.729528 3.35225 0.697528 4.91025C0.665528 6.46875 0.627528 9.38825 3.34803 10.1802H3.35053L3.34803 11.3897C3.34803 11.3897 3.32953 11.8797 3.64253 11.9782C4.00053 12.0942 4.16253 11.8667 5.27603 10.5367C7.13803 10.6982 8.56803 10.3282 8.73053 10.2742C9.10653 10.1482 11.234 9.86675 11.578 6.94725ZM5.45953 9.68575C5.45953 9.68575 4.28103 11.1552 3.91453 11.5367C3.79453 11.6607 3.66303 11.6492 3.66503 11.4032C3.66503 11.2417 3.67403 9.39525 3.67403 9.39525C1.36753 8.73425 1.50353 6.24825 1.52853 4.94775C1.55353 3.64675 1.79153 2.58125 2.49353 1.86375C4.11303 0.345245 8.68153 0.684745 9.84553 1.77875C11.2685 3.04025 10.762 6.60425 10.765 6.72575C10.4725 9.16275 8.74853 9.31725 8.43153 9.42275C8.29603 9.46775 7.03853 9.79125 5.45953 9.68575Z" fill="#8E24AA"/>
<path d="M6.11215 2.15039C5.91965 2.15039 5.91965 2.45039 6.11215 2.45289C7.60565 2.46439 8.83565 3.50539 8.84915 5.41489C8.84915 5.61639 9.14415 5.61389 9.14165 5.41239H9.14115C9.12515 3.35489 7.78215 2.16189 6.11215 2.15039Z" fill="#8E24AA"/>
<path d="M8.07645 5.09847C8.07195 5.29747 8.36645 5.30697 8.36895 5.10547C8.39345 3.97097 7.69395 3.03647 6.37945 2.93797C6.18695 2.92397 6.16695 3.22647 6.35895 3.24047C7.49895 3.32697 8.09945 4.10497 8.07645 5.09847Z" fill="#8E24AA"/>
<path d="M7.7611 6.38803C7.5141 6.24503 7.2626 6.33403 7.1586 6.47453L6.9411 6.75603C6.8306 6.89903 6.6241 6.88003 6.6241 6.88003C5.1171 6.48153 4.7141 4.90453 4.7141 4.90453C4.7141 4.90453 4.6956 4.69103 4.8336 4.57653L5.1056 4.35153C5.2416 4.24353 5.3276 3.98353 5.1891 3.72803C4.8191 3.05953 4.5706 2.82903 4.4441 2.65203C4.3111 2.48553 4.1111 2.44803 3.9031 2.56053H3.8986C3.4661 2.81353 2.9926 3.28703 3.1441 3.77453C3.4026 4.28853 3.87759 5.92703 5.3916 7.16503C6.1031 7.75053 7.2291 8.35053 7.7071 8.48903L7.7116 8.49603C8.1826 8.65303 8.6406 8.16103 8.8851 7.71553V7.71203C8.9936 7.49653 8.9576 7.29253 8.7991 7.15903C8.5181 6.88503 8.0941 6.58253 7.7611 6.38803Z" fill="#8E24AA"/>
<path d="M6.58467 4.05282C7.06517 4.08082 7.29817 4.33182 7.32317 4.84732C7.33217 5.04882 7.62467 5.03482 7.61567 4.83332C7.58367 4.16032 7.23267 3.78532 6.60067 3.75032C6.40817 3.73882 6.39017 4.04132 6.58467 4.05282Z" fill="#8E24AA"/>
</g>
<defs>
<clipPath id="clip0">
<rect width="12" height="12" fill="white"/>
</clipPath>
</defs>
</svg>
