<svg width="12" height="12" viewBox="0 0 12 12" fill="none" xmlns="http://www.w3.org/2000/svg">
<g clip-path="url(#clip0)">
<path d="M10.26 1.7245C9.12 0.6225 7.62 0 6.0225 0C1.4375 0 -1.4415 4.9675 0.848 8.919L0 12L3.1675 11.174C4.5475 11.9195 5.678 11.8535 6.0255 11.8975C11.342 11.8975 13.9885 5.4655 10.2525 1.744L10.26 1.7245Z" fill="#ECEFF1"/>
<path d="M6.03393 10.8751L6.03093 10.8746H6.02293C4.43193 10.8746 3.41543 10.1211 3.31543 10.0776L1.44043 10.5651L1.94293 8.74262L1.82343 8.55512C1.32843 7.76712 1.06543 6.85962 1.06543 5.92512C1.06543 1.52862 6.43793 -0.669883 9.54693 2.43762C12.6484 5.51262 10.4709 10.8751 6.03393 10.8751Z" fill="#4CAF50"/>
<path d="M8.75357 7.1531L8.74907 7.1906C8.59857 7.1156 7.86557 6.7571 7.72907 6.7076C7.42257 6.5941 7.50907 6.6896 6.92057 7.3636C6.83307 7.4611 6.74607 7.4686 6.59757 7.4011C6.44757 7.3261 5.96607 7.1686 5.39607 6.6586C4.95207 6.2611 4.65407 5.7736 4.56607 5.6236C4.41957 5.3706 4.72607 5.3346 5.00507 4.8066C5.05507 4.7016 5.02957 4.6191 4.99257 4.5446C4.95507 4.4696 4.65657 3.7346 4.53157 3.4416C4.41157 3.1496 4.28807 3.1866 4.19557 3.1866C3.90757 3.1616 3.69707 3.1656 3.51157 3.3586C2.70457 4.2456 2.90807 5.1606 3.59857 6.1336C4.95557 7.9096 5.67857 8.2366 7.00057 8.6906C7.35757 8.8041 7.68307 8.7881 7.94057 8.7511C8.22757 8.7056 8.82407 8.3906 8.94857 8.0381C9.07607 7.6856 9.07607 7.3931 9.03857 7.3256C9.00157 7.2581 8.90357 7.2206 8.75357 7.1531Z" fill="#FAFAFA"/>
</g>
<defs>
<clipPath id="clip0">
<rect width="12" height="12" fill="white"/>
</clipPath>
</defs>
</svg>
