<svg width="34" height="34" viewBox="0 0 34 34" fill="none" xmlns="http://www.w3.org/2000/svg">
<g clip-path="url(#clip0)">
<path d="M31.2719 22.3171C29.1902 22.3171 27.1463 21.9915 25.2095 21.3515C24.2604 21.0278 23.0937 21.3247 22.5145 21.9196L18.6915 24.8056C14.258 22.4389 11.527 19.7088 9.19266 15.3086L11.9937 11.5852C12.7214 10.8585 12.9824 9.79687 12.6697 8.80078C12.0269 6.85374 11.7003 4.81082 11.7003 2.72832C11.7004 1.22391 10.4765 0 8.97219 0H2.72823C1.22391 0 0 1.22391 0 2.72823C0 19.9717 14.0284 34 31.2719 34C32.7762 34 34.0001 32.7761 34.0001 31.2718V25.0452C34 23.541 32.7761 22.3171 31.2719 22.3171Z" fill="white"/>
</g>
<defs>
<clipPath id="clip0">
<rect width="34" height="34" fill="white"/>
</clipPath>
</defs>
</svg>
