<svg width="12" height="12" viewBox="0 0 12 12" fill="none" xmlns="http://www.w3.org/2000/svg">
<path d="M5.66911 0.478992C5.73124 0.353122 5.85942 0.273438 5.9998 0.273438C6.14018 0.273413 6.26839 0.353098 6.33052 0.478967L7.76896 3.39312C7.90423 3.66714 8.16565 3.85711 8.46808 3.90103L11.6842 4.36855C11.8231 4.38876 11.9385 4.48604 11.9819 4.61956C12.0253 4.75305 11.9891 4.89961 11.8886 4.9976L9.56159 7.2662C9.34276 7.47955 9.24292 7.78687 9.29453 8.08803L9.84361 11.2907C9.86732 11.429 9.81045 11.5689 9.69688 11.6513C9.58333 11.7339 9.43277 11.7447 9.30853 11.6794L6.43189 10.1673C6.16141 10.0251 5.83826 10.0251 5.56773 10.1674L2.69136 11.6793C2.5671 11.7447 2.41654 11.7337 2.30299 11.6512C2.18942 11.5687 2.13257 11.4289 2.15628 11.2906L2.7056 8.08817C2.75729 7.78691 2.65742 7.47954 2.43855 7.26615L0.111378 4.99763C0.0108778 4.89964 -0.0253249 4.75307 0.0180599 4.61958C0.0614446 4.48609 0.176845 4.38881 0.315764 4.36857L3.53179 3.90108C3.83421 3.85711 4.09567 3.66716 4.23093 3.3931L5.66911 0.478992Z" fill="white"/>
</svg>
