<svg width="28" height="28" viewBox="0 0 28 28" fill="none" xmlns="http://www.w3.org/2000/svg">
<g clip-path="url(#clip0)">
<path d="M26.6646 16.4004H26.2456V12.6262C26.2456 12.0287 25.9482 11.4996 25.4941 11.1782V10.6643C25.4941 9.91882 24.8876 9.31239 24.1422 9.31239H23.8293L25.0264 7.55583C25.4276 6.96706 25.275 6.16157 24.6863 5.76027L16.5635 0.224806C16.2783 0.0303923 15.9345 -0.0413577 15.5952 0.0230095C15.2561 0.0872673 14.9623 0.279713 14.7679 0.564963L7.75693 10.8529H5.80595L6.27665 6.08802C6.28195 6.03431 6.31684 5.98777 6.36551 5.96945C6.97194 5.74081 7.49749 5.31381 7.8453 4.76715C7.8727 4.72411 7.92438 4.6995 7.97787 4.70492L11.0379 5.00723C11.2573 5.0285 11.4525 4.8687 11.4741 4.64941C11.4958 4.43011 11.3356 4.23482 11.1163 4.21317L8.05629 3.91085C7.70109 3.87607 7.36236 4.03975 7.17205 4.33878C6.91633 4.74074 6.52991 5.05464 6.08404 5.22275C5.74842 5.3493 5.51797 5.65074 5.48253 6.00954L5.00412 10.8529H4.49537L5.23977 3.31673C5.26657 3.04548 5.50867 2.8462 5.78025 2.87338L11.964 3.48424C12.1833 3.5054 12.3786 3.34571 12.4002 3.12642C12.4219 2.90712 12.2617 2.71183 12.0424 2.69017L5.85867 2.07931C5.1497 2.00937 4.51571 2.52917 4.44566 3.23825L3.84562 9.31239H2.82379C2.0784 9.31239 1.47191 9.91882 1.47191 10.6643V11.0148C0.862094 11.2956 0.4375 11.912 0.4375 12.6262V26.2267C0.4375 27.2045 1.23298 28 2.21085 28H24.4723C25.4501 28 26.2456 27.2045 26.2456 26.2267V22.4525H26.6646C27.1592 22.4525 27.5616 22.0501 27.5616 21.5556V17.2974C27.5616 16.8028 27.1592 16.4004 26.6646 16.4004ZM24.1422 10.1104C24.4477 10.1103 24.6961 10.3588 24.6961 10.6643V10.8676C24.6227 10.8583 24.5482 10.853 24.4723 10.853H22.7795L23.2855 10.1104H24.1422ZM15.4273 1.01428C15.5017 0.905174 15.614 0.831564 15.7438 0.806955C15.7748 0.801103 15.8059 0.79815 15.8368 0.79815C15.9351 0.79815 16.0311 0.827572 16.1141 0.884119L24.2369 6.41959C24.4621 6.5731 24.5205 6.8812 24.3671 7.10641L21.8139 10.8528H21.2012L22.4529 9.01604C22.6559 8.71816 22.6727 8.33906 22.4965 8.02663C22.2623 7.61156 22.1674 7.12281 22.2292 6.65037C22.2751 6.29889 22.1204 5.95578 21.8256 5.75486L17.6147 2.8853C17.3198 2.68432 16.9439 2.66589 16.6336 2.83723C16.2166 3.06746 15.727 3.15786 15.255 3.0918C14.905 3.04269 14.55 3.20074 14.3501 3.49413L9.33527 10.8529H8.72255L15.4273 1.01428ZM15.603 7.78956C13.8655 7.78956 12.4393 9.14434 12.3231 10.8529H10.3008L15.0093 3.9435C15.0094 3.9435 15.0094 3.9435 15.0094 3.9435C15.0361 3.90418 15.0805 3.88077 15.126 3.88077C15.1321 3.88077 15.1382 3.88121 15.1442 3.88203C15.7861 3.97183 16.452 3.849 17.0192 3.53581C17.0638 3.51109 17.1211 3.51464 17.1653 3.54472L21.3762 6.41434C21.4203 6.44442 21.4445 6.49648 21.4379 6.54701C21.3539 7.18953 21.4831 7.8542 21.8015 8.41869C21.827 8.46402 21.8239 8.5221 21.7936 8.56667L20.2357 10.8528H18.8831C18.7668 9.14434 17.3406 7.78956 15.603 7.78956ZM18.083 10.8529H13.1231C13.2374 9.58479 14.3056 8.58756 15.603 8.58756C16.9004 8.58751 17.9687 9.58479 18.083 10.8529ZM2.26986 10.6643C2.26986 10.3588 2.5183 10.1103 2.82379 10.1103H3.76682L3.69348 10.8529H2.26986V10.6643ZM1.23545 12.6262C1.23545 12.0884 1.673 11.6508 2.21085 11.6508H24.4723C25.0102 11.6508 25.4477 12.0884 25.4477 12.6262V13.7333H1.23545V12.6262ZM25.4477 26.2267C25.4477 26.7645 25.0102 27.202 24.4723 27.202H2.21085C1.673 27.202 1.23545 26.7645 1.23545 26.2267V25.1196H3.38696C3.60735 25.1196 3.78591 24.941 3.78591 24.7206C3.78591 24.5003 3.6073 24.3217 3.38696 24.3217H1.23545V14.5312H25.4477V16.4004H21.6542H21.6542C20.4589 16.4004 19.4236 17.0972 18.9322 18.1056C18.9306 18.109 18.9287 18.1123 18.927 18.1157C18.9229 18.1243 18.9192 18.1332 18.9152 18.1419C18.8567 18.2662 18.8058 18.3948 18.7644 18.5276C18.7643 18.528 18.7642 18.5283 18.7641 18.5287C18.6758 18.8125 18.6281 19.114 18.6281 19.4265C18.6281 21.095 19.9856 22.4525 21.6541 22.4525H21.6542H25.4476V24.3217H5.94163C5.72124 24.3217 5.54269 24.5003 5.54269 24.7206C5.54269 24.941 5.7213 25.1196 5.94163 25.1196H25.4477V26.2267ZM26.7637 21.5556C26.7637 21.6101 26.7193 21.6545 26.6646 21.6545H21.6543C20.8096 21.6545 20.0732 21.1821 19.6955 20.4876C19.6783 20.4561 19.6619 20.424 19.6462 20.3916C19.6149 20.3267 19.5866 20.26 19.5616 20.1918C19.474 19.953 19.4262 19.6952 19.4262 19.4265C19.4262 19.1577 19.4741 18.8999 19.5616 18.6612C19.5867 18.593 19.6149 18.5263 19.6462 18.4613C19.6619 18.4289 19.6783 18.3969 19.6955 18.3653C20.0732 17.6708 20.8096 17.1984 21.6543 17.1984H26.6646C26.7192 17.1984 26.7637 17.2428 26.7637 17.2974V21.5556Z" fill="#236EFF"/>
<path d="M21.7477 17.8086C20.855 17.8086 20.1289 18.5348 20.1289 19.4273C20.1289 20.3199 20.855 21.046 21.7477 21.046C22.6403 21.046 23.3664 20.3199 23.3664 19.4273C23.3664 18.5348 22.6403 17.8086 21.7477 17.8086ZM21.7477 20.2481C21.2951 20.2481 20.9269 19.8799 20.9269 19.4273C20.9269 18.9748 21.2951 18.6065 21.7477 18.6065C22.2002 18.6065 22.5685 18.9747 22.5685 19.4273C22.5685 19.8799 22.2002 20.2481 21.7477 20.2481Z" fill="#236EFF"/>
</g>
<defs>
<clipPath id="clip0">
<rect width="28" height="28" fill="white"/>
</clipPath>
</defs>
</svg>
