<svg width="122" height="31" viewBox="0 0 122 31" fill="none" xmlns="http://www.w3.org/2000/svg">
<path d="M15.006 25.5688V28.5311H0L9.42014 15.7005H1.098V12.7383H15.7729L6.32657 25.5688H15.006Z" fill="#283754"/>
<path d="M18.3008 28.5382V12.7109H21.7865V28.5382H18.3008Z" fill="#283754"/>
<path d="M42.0569 21.0042C42.0569 21.2884 42.0569 21.5897 42.0133 21.917C41.6647 25.9642 37.9611 28.8059 33.6476 28.8059C31.4141 28.8454 29.2549 28.0132 27.6383 26.4898C26.0216 24.9665 25.0779 22.8748 25.0117 20.6684C25.0621 18.4521 25.9974 16.3455 27.6136 14.8081C29.2299 13.2706 31.3958 12.4273 33.6389 12.462C35.0708 12.4589 36.4815 12.8046 37.746 13.4684C39.0106 14.1323 40.0901 15.0939 40.8891 16.2681L37.9089 17.9903C37.4349 17.2896 36.8022 16.7077 36.0611 16.2906C35.3198 15.8736 34.4906 15.633 33.6389 15.5878C32.2706 15.5878 30.9585 16.1249 29.991 17.0809C29.0235 18.0369 28.48 19.3335 28.48 20.6856C28.48 22.0376 29.0235 23.3343 29.991 24.2903C30.9585 25.2463 32.2706 25.7834 33.6389 25.7834C35.6954 25.7834 37.8043 24.4659 38.301 22.7781H32.3317V19.7297H42.0133C42.0394 20.1603 42.0569 20.6684 42.0569 21.0042Z" fill="#283754"/>
<path d="M61.7672 28.5377H58.2815V20.9771L53.384 26.6088L48.4779 20.9771V28.5291H44.9922V12.168L53.384 21.5282L61.7759 12.1766L61.7672 28.5377Z" fill="#283754"/>
<path d="M65.6719 22.133V12.7383H69.1576V22.133C69.1576 23.1036 69.5478 24.0345 70.2423 24.7208C70.9369 25.4071 71.8789 25.7927 72.8612 25.7927C73.8434 25.7927 74.7854 25.4071 75.48 24.7208C76.1745 24.0345 76.5647 23.1036 76.5647 22.133V12.7383H80.0504V22.133C80.0504 26.1802 77.2444 28.8238 72.9134 28.8238C68.5824 28.8238 65.6719 26.1802 65.6719 22.133Z" fill="#283754"/>
<path d="M89.5808 25.7633C91.4892 25.7633 92.535 24.9022 92.535 24.0411C92.535 22.7839 90.7921 22.4566 88.9621 22.138C86.9491 21.8108 82.6094 21.0789 82.6094 17.29C82.6094 13.5011 86.0951 12.5022 88.9621 12.5022C91.2566 12.454 93.4961 13.2036 95.2887 14.6205L93.3628 17.2039C92.0565 16.2157 90.4749 15.6477 88.8314 15.5764C87.8205 15.5764 86.069 15.8777 86.069 17.135C86.069 18.263 87.8118 18.5214 89.241 18.8572C91.8552 19.3997 95.9858 19.7183 95.9858 23.9636C95.9858 27.253 93.3715 28.8805 89.6157 28.8805C86.9791 28.9643 84.4038 28.0843 82.3828 26.4091L84.2215 23.8258C85.7724 24.9853 87.6384 25.6601 89.5808 25.7633Z" fill="#283754"/>
<path d="M119.027 17.7118C120.414 15.5552 121.306 13.1244 121.641 10.5904C121.641 10.5904 120.229 11.9251 120.395 11.3998C121.251 8.79912 121.431 6.02729 120.918 3.33984C120.595 12.2093 113.136 19.701 103.228 21.3371C102.409 21.4748 101.955 22.2585 101.616 23.0593C101.278 23.8592 100.869 24.6285 100.396 25.3585C100.439 24.8117 100.41 24.2616 100.308 23.7223C100.037 22.2729 99.2523 20.9663 98.0951 20.0368C98.5046 20.7783 98.7983 21.5766 98.9665 22.4048C99.2114 23.6541 99.1582 24.9425 98.8122 26.1682C98.4654 27.3937 97.8354 28.5228 96.9709 29.466C96.4742 29.9396 96.0559 30.3271 95.7858 30.5079C95.5156 30.6887 95.3849 30.7835 95.1758 30.904L95.5331 30.8523C97.2358 30.5183 98.8741 29.9196 100.387 29.0785C104.317 26.8051 107.053 25.8751 110.504 25.4962C115.994 24.8848 120.264 22.336 120.499 17.1348C120.421 17.1779 118.6 18.3748 119.027 17.7118Z" fill="#283754"/>
<path d="M101.086 21.8894C101.478 21.0283 101.844 20.2361 102.698 20.1672C105.888 19.7137 108.928 18.5346 111.578 16.7228C112.149 15.9001 112.516 14.9561 112.649 13.9673C112.782 12.9784 112.678 11.9725 112.345 11.0308C112.345 11.0308 111.264 12.4947 111.404 11.8919C111.853 9.79755 111.832 7.63116 111.343 5.54556C111.343 5.54556 110.619 7.00083 110.602 6.53583C110.512 4.22701 109.832 1.97833 108.624 0C110.759 6.4325 107.927 13.64 101.888 18.0144C100.528 19.0047 101.086 21.8981 101.086 21.8894Z" fill="#FF600E"/>
</svg>
