<svg width="28" height="28" viewBox="0 0 28 28" fill="none" xmlns="http://www.w3.org/2000/svg">
<g clip-path="url(#clip0)">
<path d="M13.9992 0C12.4528 0 11.1992 1.25358 11.1992 2.8C11.1992 4.34642 12.4528 5.6 13.9992 5.6C15.545 5.59848 16.7977 4.34578 16.7992 2.8C16.7992 1.25358 15.5456 0 13.9992 0ZM13.9992 4.66667C12.9683 4.66667 12.1326 3.83093 12.1326 2.8C12.1326 1.76908 12.9683 0.933333 13.9992 0.933333C15.0301 0.933333 15.8659 1.76908 15.8659 2.8C15.8659 3.83093 15.0301 4.66667 13.9992 4.66667Z" fill="white"/>
<path d="M15.8674 6.06641H15.7573L15.6588 6.11541C14.6146 6.63533 13.3869 6.63533 12.3427 6.11541L12.2442 6.06641H12.1341C10.8461 6.06792 9.8023 7.11174 9.80078 8.39974V11.1997C9.80078 11.9729 10.4276 12.5997 11.2008 12.5997H16.8008C17.574 12.5997 18.2008 11.9729 18.2008 11.1997V8.39974C18.1993 7.11174 17.1554 6.06792 15.8674 6.06641ZM17.2674 11.1997C17.2674 11.4575 17.0585 11.6664 16.8008 11.6664H11.2008C10.9431 11.6664 10.7341 11.4575 10.7341 11.1997V8.39974C10.7342 7.66521 11.302 7.05562 12.0347 7.00347C13.2816 7.58214 14.72 7.58214 15.9668 7.00347C16.6995 7.05562 17.2673 7.66521 17.2674 8.39974V11.1997Z" fill="white"/>
<path d="M23.8 15.3984C22.2536 15.3984 21 16.652 21 18.1984C21 19.7449 22.2536 20.9984 23.8 20.9984C25.3464 20.9984 26.6 19.7449 26.6 18.1984C26.5985 16.6527 25.3458 15.4 23.8 15.3984ZM23.8 20.0651C22.7691 20.0651 21.9333 19.2294 21.9333 18.1984C21.9333 17.1675 22.7691 16.3318 23.8 16.3318C24.8309 16.3318 25.6667 17.1675 25.6667 18.1984C25.6667 19.2294 24.8309 20.0651 23.8 20.0651Z" fill="white"/>
<path d="M25.6682 21.4648H25.5581L25.4596 21.5115C24.4154 22.0314 23.1877 22.0314 22.1435 21.5115L22.045 21.4648H21.9349C20.6469 21.4664 19.6031 22.5102 19.6016 23.7982V26.5982C19.6016 27.3714 20.2284 27.9982 21.0016 27.9982H26.6016C27.3748 27.9982 28.0016 27.3714 28.0016 26.5982V23.7982C28 22.5102 26.9562 21.4664 25.6682 21.4648ZM27.0682 26.5982C27.0682 26.8559 26.8593 27.0648 26.6016 27.0648H21.0016C20.7438 27.0648 20.5349 26.8559 20.5349 26.5982V23.7982C20.535 23.0636 21.1028 22.4541 21.8355 22.4019C23.0824 22.9806 24.5208 22.9806 25.7676 22.4019C26.5004 22.4541 27.0681 23.0636 27.0682 23.7982V26.5982Z" fill="white"/>
<path d="M4.19844 15.3984C2.65202 15.3984 1.39844 16.652 1.39844 18.1984C1.39844 19.7449 2.65202 20.9984 4.19844 20.9984C5.74486 20.9984 6.99844 19.7449 6.99844 18.1984C6.99692 16.6527 5.74421 15.4 4.19844 15.3984ZM4.19844 20.0651C3.16751 20.0651 2.33177 19.2294 2.33177 18.1984C2.33177 17.1675 3.16751 16.3318 4.19844 16.3318C5.22936 16.3318 6.06511 17.1675 6.06511 18.1984C6.06511 19.2294 5.22936 20.0651 4.19844 20.0651Z" fill="white"/>
<path d="M6.06667 21.4648H5.95653L5.85807 21.5115C4.81384 22.0314 3.58616 22.0314 2.54193 21.5115L2.44347 21.4648H2.33333C1.04533 21.4664 0.00151667 22.5102 0 23.7982V26.5982C0 27.3714 0.626792 27.9982 1.4 27.9982H7C7.77321 27.9982 8.4 27.3714 8.4 26.5982V23.7982C8.39848 22.5102 7.35467 21.4664 6.06667 21.4648ZM7.46667 26.5982C7.46667 26.8559 7.25772 27.0648 7 27.0648H1.4C1.14228 27.0648 0.933333 26.8559 0.933333 26.5982V23.7982C0.93345 23.0636 1.50121 22.4541 2.23393 22.4019C3.48081 22.9806 4.91919 22.9806 6.16607 22.4019C6.89879 22.4541 7.46655 23.0636 7.46667 23.7982V26.5982Z" fill="white"/>
<path d="M18.6289 23.7002C18.6286 23.6997 18.6284 23.6992 18.6282 23.6986C18.5271 23.4615 18.253 23.3512 18.016 23.4522C15.9087 24.3354 13.5683 24.4965 11.3599 23.9105L11.7967 23.7821C12.0441 23.7097 12.186 23.4504 12.1136 23.203C12.0411 22.9555 11.7819 22.8137 11.5344 22.8861L9.66776 23.4335C9.66076 23.4335 9.65563 23.4415 9.6491 23.4438C9.60587 23.4599 9.56527 23.4824 9.5287 23.5105C9.51248 23.5193 9.4969 23.5291 9.48203 23.5399C9.4328 23.5838 9.39377 23.638 9.3677 23.6986C9.34238 23.7596 9.33031 23.8253 9.33223 23.8913C9.34361 23.9545 9.35918 24.0169 9.3789 24.078C9.3817 24.0845 9.3789 24.092 9.38403 24.0985L10.3174 25.8845C10.4367 26.1131 10.7188 26.2017 10.9474 26.0823C11.176 25.963 11.2646 25.6809 11.1452 25.4523L10.7654 24.7262C13.2745 25.4804 15.9684 25.3338 18.3809 24.3118C18.6182 24.2114 18.7293 23.9376 18.6289 23.7002Z" fill="white"/>
<path d="M26.4644 12.2695C26.2822 12.0873 25.9868 12.0873 25.8046 12.2695L25.1442 12.9298C24.7578 8.8424 22.1628 5.29538 18.3841 3.68981C18.147 3.58878 17.8729 3.69909 17.7718 3.93621C17.6708 4.17334 17.7811 4.44745 18.0182 4.54848C21.408 5.98914 23.7643 9.13751 24.1908 12.7959L23.6644 12.2695C23.4791 12.0904 23.1837 12.0955 23.0046 12.2809C22.8299 12.4617 22.8299 12.7485 23.0046 12.9293L24.4046 14.3294C24.5866 14.5118 24.8821 14.5122 25.0646 14.3302C25.0649 14.3299 25.0651 14.3296 25.0654 14.3294L26.4654 12.9293C26.6473 12.7469 26.6469 12.4515 26.4644 12.2695Z" fill="white"/>
<path d="M10.2539 4.04162C10.2524 4.01438 10.2484 3.98737 10.2418 3.96088C10.2418 3.95668 10.2367 3.95388 10.2348 3.94922C10.2329 3.94455 10.2348 3.94128 10.2348 3.93755C10.2221 3.91486 10.2074 3.89328 10.1909 3.87315C10.1758 3.84579 10.158 3.82001 10.1377 3.79615C10.1101 3.77171 10.0796 3.75088 10.0467 3.73408C10.0303 3.72014 10.0128 3.70748 9.99445 3.69628L8.12778 2.84368C7.88938 2.7458 7.61672 2.85972 7.51884 3.09813C7.42627 3.32359 7.52281 3.58236 7.74045 3.69208L8.70692 4.13402C5.06849 6.08124 2.79816 9.87402 2.80078 14.0008C2.80078 14.2585 3.00973 14.4674 3.26745 14.4674C3.52517 14.4674 3.73412 14.2585 3.73412 14.0008C3.73178 10.367 5.65334 7.00355 8.78485 5.16022L8.44745 5.86535C8.33621 6.09734 8.43368 6.37559 8.66538 6.48742C8.72832 6.51816 8.79739 6.53414 8.86745 6.53409C9.04665 6.53385 9.20987 6.43101 9.28745 6.26948L10.2208 4.32208C10.2208 4.31742 10.2208 4.31228 10.2245 4.30762C10.2367 4.27571 10.2451 4.24252 10.2497 4.20868C10.2577 4.18354 10.2637 4.15782 10.2675 4.13168C10.2659 4.10129 10.2614 4.07113 10.2539 4.04162Z" fill="white"/>
</g>
<defs>
<clipPath id="clip0">
<rect width="28" height="28" fill="white"/>
</clipPath>
</defs>
</svg>
