<svg width="28" height="28" viewBox="0 0 28 28" fill="none" xmlns="http://www.w3.org/2000/svg">
<g clip-path="url(#clip0)">
<path d="M20.3388 26.3164L24.1083 22.7685L20.3388 26.3164ZM20.3388 26.3164C20.2742 26.377 20.1922 26.4372 20.1005 26.4956V23.4457C20.1005 23.2224 20.1905 23.0214 20.3393 22.8716C20.4895 22.7227 20.6905 22.6324 20.9139 22.6324H24.2288C24.1888 22.6839 24.1486 22.7304 24.1083 22.7684L20.3388 26.3164ZM20.9139 21.5603H20.9138C19.8735 21.5623 19.0305 22.4053 19.0284 23.4456V23.4457V26.9224C18.9176 26.9438 18.8125 26.9578 18.7211 26.9578H7.25158H7.24586C7.08176 26.9546 6.94426 26.8149 6.94426 26.6505V5.06022C6.94426 4.89395 7.08502 4.75291 7.25158 4.75291H24.4563C24.6226 4.75291 24.7637 4.89397 24.7637 5.06022L24.7631 21.2529C24.7631 21.3436 24.7476 21.4488 24.7231 21.5603H20.9139ZM24.4564 3.68081H22.1249V1.34941C22.125 0.590628 21.5043 -0.03 20.7459 -0.03H3.54076C2.78203 -0.03 2.16141 0.590626 2.16141 1.34941V22.9397C2.16141 23.6985 2.78203 24.3191 3.54082 24.3191H5.87227V26.6506C5.87227 27.4093 6.49262 28.03 7.25169 28.03H18.7212C19.097 28.03 19.5488 27.9247 19.9738 27.7562C20.3988 27.5877 20.7999 27.3547 21.0735 27.0972L24.8431 23.549C24.8431 23.549 24.8431 23.549 24.8431 23.549C25.1173 23.2912 25.365 22.9043 25.5442 22.4897C25.7233 22.075 25.8352 21.6294 25.8352 21.2531L25.8359 5.06034C25.8358 4.3015 25.2151 3.68081 24.4564 3.68081ZM5.87216 5.06028V23.2471H3.54076C3.37451 23.2471 3.23345 23.106 3.23345 22.9398V1.34941C3.23345 1.18316 3.37451 1.0421 3.54076 1.0421H20.7459C20.9119 1.0421 21.0532 1.18318 21.0532 1.34941V3.68087H7.25158C6.49251 3.68087 5.87216 4.3015 5.87216 5.06028Z" fill="white" stroke="white" stroke-width="0.06"/>
<path d="M20.7461 8.40359H10.9631C10.6668 8.40359 10.427 8.64338 10.427 8.93962C10.427 9.23586 10.6669 9.47564 10.9631 9.47564H20.7461C21.042 9.47564 21.2822 9.23587 21.2822 8.93962C21.2822 8.64336 21.042 8.40359 20.7461 8.40359Z" fill="white" stroke="white" stroke-width="0.06"/>
<path d="M20.7461 15.1497H10.9631C10.6668 15.1497 10.427 15.3895 10.427 15.6857C10.427 15.9819 10.6669 16.2217 10.9631 16.2217H20.7461C21.042 16.2217 21.2822 15.982 21.2822 15.6857C21.2822 15.3894 21.042 15.1497 20.7461 15.1497Z" fill="white" stroke="white" stroke-width="0.06"/>
<path d="M16.3606 18.5247H10.9631C10.6668 18.5247 10.427 18.7645 10.427 19.0607C10.427 19.357 10.6668 19.5967 10.9631 19.5967H16.3606C16.6565 19.5967 16.8963 19.3569 16.8963 19.0607C16.8963 18.7645 16.6565 18.5247 16.3606 18.5247Z" fill="white" stroke="white" stroke-width="0.06"/>
<path d="M20.7461 11.7786H10.9631C10.6668 11.7786 10.427 12.0184 10.427 12.3146C10.427 12.6109 10.6669 12.8506 10.9631 12.8506H20.7461C21.042 12.8506 21.2822 12.6109 21.2822 12.3146C21.2822 12.0184 21.042 11.7786 20.7461 11.7786Z" fill="white" stroke="white" stroke-width="0.06"/>
</g>
<defs>
<clipPath id="clip0">
<rect width="28" height="28" fill="white"/>
</clipPath>
</defs>
</svg>
