<svg width="28" height="28" viewBox="0 0 28 28" fill="none" xmlns="http://www.w3.org/2000/svg">
<path d="M25.1163 23.4611H25.102V22.0252C25.102 21.8439 24.9402 21.7111 24.7591 21.7111H10.4419C10.3998 21.7096 10.3578 21.7166 10.3185 21.7318C10.2791 21.7469 10.2432 21.7698 10.2129 21.7991C10.1826 21.8284 10.1586 21.8636 10.1422 21.9024C10.1258 21.9413 10.1175 21.983 10.1176 22.0252V23.4611H10.0848C9.84328 23.4622 9.60432 23.511 9.38167 23.6046C9.15901 23.6983 8.95704 23.835 8.78733 24.0069C8.61763 24.1787 8.48353 24.3825 8.39274 24.6063C8.30195 24.8301 8.25625 25.0697 8.25826 25.3112V25.8093C8.25601 25.8515 8.26227 25.8937 8.27668 25.9334C8.29108 25.9732 8.31334 26.0096 8.34211 26.0405C8.37089 26.0714 8.4056 26.0963 8.44418 26.1135C8.48275 26.1307 8.5244 26.14 8.56664 26.1408H26.6344C26.7216 26.14 26.805 26.1047 26.8663 26.0426C26.9276 25.9804 26.9618 25.8966 26.9614 25.8093V25.3112C26.9612 24.8215 26.7669 24.3517 26.4211 24.005C26.0753 23.6582 25.606 23.4626 25.1163 23.4611ZM10.7739 22.3674H24.4458V23.4611H10.7739V22.3674ZM26.3051 25.4846H8.91451V25.3112C8.91241 25.1558 8.94107 25.0016 8.99885 24.8573C9.05663 24.7131 9.14238 24.5817 9.25116 24.4707C9.35995 24.3597 9.48961 24.2714 9.63269 24.2107C9.77577 24.1501 9.92943 24.1184 10.0848 24.1174H25.1163C25.4321 24.1187 25.7345 24.245 25.9573 24.4688C26.1801 24.6925 26.3052 24.9954 26.3051 25.3112V25.4846Z" fill="white"/>
<path d="M9.96761 15.1064C10.0291 15.1679 10.1126 15.2025 10.1996 15.2025C10.2866 15.2025 10.3701 15.1679 10.4316 15.1064L11.5186 14.0195C11.5801 13.9579 11.6147 13.8745 11.6147 13.7875C11.6147 13.7004 11.5801 13.617 11.5186 13.5554L11.1177 13.1545L12.109 12.1635L13.5883 13.6429L13.491 13.7402C13.4294 13.8018 13.3949 13.8852 13.3949 13.9722C13.3949 14.0593 13.4294 14.1427 13.491 14.2043L14.0844 14.7978L13.9037 14.9785C13.8422 15.0401 13.8076 15.1235 13.8076 15.2105C13.8076 15.2976 13.8422 15.381 13.9037 15.4425L14.6261 16.1649C14.7216 16.2604 14.835 16.3362 14.9598 16.3879C15.0846 16.4396 15.2184 16.4663 15.3535 16.4663C15.4885 16.4663 15.6223 16.4396 15.7471 16.3879C15.8719 16.3362 15.9853 16.2604 16.0808 16.1649L20.4336 11.8121C20.6263 11.6191 20.7345 11.3575 20.7345 11.0848C20.7345 10.8121 20.6263 10.5505 20.4336 10.3574L19.7112 9.63501C19.6497 9.57348 19.5662 9.53891 19.4792 9.53891C19.3922 9.53891 19.3087 9.57348 19.2472 9.63501L19.0665 9.81575L18.473 9.22223C18.4425 9.19175 18.4063 9.16758 18.3665 9.15108C18.3267 9.13459 18.284 9.1261 18.241 9.1261C18.1979 9.1261 18.1552 9.13459 18.1154 9.15108C18.0756 9.16758 18.0394 9.19175 18.0089 9.22223L17.9116 9.31962L13.2778 4.68612L13.3751 4.58877C13.4367 4.52724 13.4712 4.44378 13.4712 4.35676C13.4712 4.26974 13.4367 4.18628 13.3751 4.12475L12.7816 3.53123L12.9624 3.35076C13.0239 3.28922 13.0585 3.20577 13.0585 3.11874C13.0585 3.03172 13.0239 2.94827 12.9624 2.88673L12.2402 2.16404C12.0471 1.97144 11.7856 1.86328 11.5129 1.86328C11.2402 1.86328 10.9786 1.97144 10.7855 2.16404L6.43272 6.51716C6.2401 6.71021 6.13192 6.97179 6.13192 7.24451C6.13192 7.51722 6.2401 7.7788 6.43272 7.97185L7.15514 8.69422C7.21668 8.75575 7.30013 8.79032 7.38716 8.79032C7.47418 8.79032 7.55763 8.75575 7.61917 8.69422L7.79991 8.51375L8.39338 9.10727C8.45491 9.1688 8.53837 9.20337 8.62539 9.20337C8.71241 9.20337 8.79587 9.1688 8.8574 9.10727L8.9548 9.00993L10.4342 10.4893L9.4431 11.4803L9.04224 11.0794C9.01178 11.0489 8.9756 11.0247 8.93579 11.0082C8.89597 10.9917 8.8533 10.9832 8.81021 10.9832C8.76711 10.9832 8.72444 10.9917 8.68463 11.0082C8.64481 11.0247 8.60864 11.0489 8.57817 11.0794L7.49125 12.1663C7.42972 12.2279 7.39515 12.3113 7.39515 12.3983C7.39515 12.4854 7.42972 12.5688 7.49125 12.6303L7.63218 12.7713L1.71532 18.0347C1.40995 18.3064 1.19434 18.6645 1.09704 19.0614C0.999742 19.4584 1.02536 19.8756 1.17049 20.2577C1.31563 20.6398 1.57343 20.9688 1.90975 21.201C2.24606 21.4333 2.64502 21.5579 3.05375 21.5584C3.07398 21.5584 3.09438 21.5584 3.11472 21.5575C3.38956 21.5506 3.66001 21.4871 3.90916 21.3708C4.15831 21.2546 4.3808 21.0882 4.56268 20.8821L9.82668 14.9655L9.96761 15.1064ZM19.479 10.3311L19.9694 10.8215C20.0391 10.8914 20.0782 10.9861 20.0782 11.0848C20.0782 11.1835 20.0391 11.2782 19.9694 11.3481L15.6165 15.7008C15.5467 15.7707 15.452 15.8099 15.3532 15.8099C15.2545 15.8099 15.1597 15.7707 15.0899 15.7008L14.5995 15.2105L19.479 10.3311ZM18.2407 9.91834L18.6022 10.2798L14.548 14.3336L14.1866 13.9722L18.2407 9.91834ZM7.38691 7.99788L6.89653 7.5075C6.8267 7.43767 6.78747 7.34296 6.78747 7.2442C6.78747 7.14545 6.8267 7.05074 6.89653 6.98091L11.2494 2.62812C11.3192 2.55829 11.4139 2.51906 11.5127 2.51906C11.6114 2.51906 11.7061 2.55829 11.776 2.62812L12.2663 3.11844L7.38691 7.99788ZM8.6252 8.41066L8.26371 8.04918L12.3176 3.9953L12.6791 4.35679L8.6252 8.41066ZM9.4186 8.5453L12.8138 5.15019L17.4473 9.78365L14.0521 13.1788L9.4186 8.5453ZM10.898 10.9528L11.6447 11.6995L10.6537 12.6905L9.90696 11.9438L10.898 10.9528ZM8.80999 11.7749L10.8225 13.7874L10.1996 14.4103L8.1871 12.3978L8.80999 11.7749ZM4.07235 20.4459C3.94916 20.5844 3.79896 20.6963 3.63097 20.7747C3.46299 20.8531 3.28075 20.8963 3.09546 20.9017C2.91016 20.9071 2.72572 20.8746 2.55343 20.8062C2.38115 20.7378 2.22467 20.6348 2.0936 20.5038C1.96252 20.3727 1.85962 20.2162 1.7912 20.0439C1.72277 19.8716 1.69028 19.6872 1.69571 19.5019C1.70114 19.3166 1.74437 19.1344 1.82276 18.9664C1.90115 18.7984 2.01304 18.6482 2.15157 18.525L8.09675 13.2356L9.36189 14.5007L4.07235 20.4459Z" fill="white"/>
<path d="M12.902 6.28563C12.8403 6.22492 12.7571 6.19106 12.6705 6.19141C12.584 6.19176 12.5011 6.2263 12.4399 6.28751C12.3786 6.34872 12.3441 6.43163 12.3438 6.51819C12.3434 6.60475 12.3773 6.68795 12.438 6.74965L12.7473 7.05902C12.7778 7.08949 12.8139 7.11366 12.8537 7.13015C12.8936 7.14664 12.9362 7.15513 12.9793 7.15513C13.0224 7.15513 13.0651 7.14664 13.1049 7.13015C13.1447 7.11366 13.1809 7.08949 13.2114 7.05902C13.2418 7.02855 13.266 6.99237 13.2825 6.95256C13.299 6.91274 13.3075 6.87007 13.3075 6.82698C13.3075 6.78389 13.299 6.74121 13.2825 6.7014C13.266 6.66159 13.2418 6.62541 13.2114 6.59494L12.902 6.28563Z" fill="white"/>
<path d="M15.8798 10.0558C15.9447 10.0558 16.0081 10.0365 16.0621 10.0005C16.116 9.96441 16.1581 9.91316 16.1829 9.8532C16.2077 9.79324 16.2142 9.72726 16.2016 9.66361C16.1889 9.59996 16.1576 9.5415 16.1118 9.49561L13.9078 7.29143C13.8463 7.22989 13.7628 7.19531 13.6758 7.19531C13.5888 7.19531 13.5053 7.22989 13.4438 7.29143C13.3822 7.35297 13.3477 7.43643 13.3477 7.52347C13.3477 7.6105 13.3822 7.69396 13.4438 7.75551L15.6477 9.95941C15.6781 9.98999 15.7143 10.0142 15.7541 10.0308C15.7939 10.0473 15.8366 10.0558 15.8798 10.0558Z" fill="white"/>
</svg>
