<svg width="12" height="12" viewBox="0 0 12 12" fill="none" xmlns="http://www.w3.org/2000/svg">
<path d="M10.8 0H1.2C0.54 0 0 0.5404 0 1.2V10.8C0 11.4592 0.54 12 1.2 12H10.8C11.46 12 12 11.4592 12 10.8V1.2C12 0.5404 11.46 0 10.8 0ZM3.2384 10.5608H1.4V8.9256H3.2384V10.5608ZM3.2384 8.3772H1.4V6.7428H3.2384V8.3772ZM3.1 1.8188C2.8188 1.8188 2.5908 1.5912 2.5908 1.3096C2.5908 1.028 2.8188 0.8 3.1 0.8C3.3812 0.8 3.6092 1.0276 3.6092 1.3092C3.6092 1.5908 3.3812 1.8188 3.1 1.8188ZM5.6916 10.5608H3.8536V8.9256H5.6916V10.5608ZM5.6916 8.3772H3.8536V6.7428H5.6916V8.3772ZM5.6916 6.1952H3.8536V4.5608H5.6916V6.1952ZM5.4908 1.3092C5.4908 1.0276 5.7188 0.8 6 0.8C6.2812 0.8 6.5092 1.0276 6.5092 1.3092C6.5092 1.5908 6.2812 1.8184 6 1.8184C5.7188 1.8184 5.4908 1.5912 5.4908 1.3092ZM8.1464 8.3772H6.308V6.7428H8.1468V8.3772H8.1464ZM8.1464 6.1952H6.308V4.5608H8.1468V6.1952H8.1464ZM8.3908 1.3092C8.3908 1.0276 8.6188 0.8 8.9 0.8C9.1812 0.8 9.4092 1.0276 9.4092 1.3092C9.4092 1.5908 9.1812 1.8184 8.9 1.8184C8.6188 1.8184 8.3908 1.5912 8.3908 1.3092ZM10.6 8.3772H8.7616V6.7428H10.6V8.3772ZM10.6 6.1952H8.7616V4.5608H10.6V6.1952Z" fill="#236EFF"/>
</svg>
