<svg width="18" height="18" viewBox="0 0 18 18" fill="none" xmlns="http://www.w3.org/2000/svg">
<g opacity="0.3" clip-path="url(#clip0)">
<path d="M8.5039 0.721814C8.5971 0.53301 8.78938 0.413483 8.99994 0.413483C9.21051 0.413446 9.40282 0.532973 9.49602 0.721777L11.6537 5.09301C11.8566 5.50403 12.2487 5.78899 12.7024 5.85487L17.5265 6.55615C17.7349 6.58646 17.908 6.73239 17.9731 6.93266C18.0381 7.1329 17.9839 7.35274 17.8332 7.49973L14.3426 10.9026C14.0144 11.2226 13.8646 11.6836 13.942 12.1354L14.7657 16.9394C14.8012 17.1469 14.7159 17.3566 14.5456 17.4803C14.3752 17.6041 14.1494 17.6204 13.963 17.5224L9.64809 15.2543C9.24236 15.041 8.75764 15.041 8.35184 15.2544L4.03728 17.5223C3.85089 17.6203 3.62506 17.6039 3.45473 17.4802C3.28437 17.3564 3.1991 17.1467 3.23467 16.9392L4.05865 12.1356C4.13618 11.6837 3.98638 11.2226 3.65807 10.9026L0.167312 7.49977C0.0165608 7.35278 -0.0377432 7.13293 0.0273339 6.9327C0.0924111 6.73247 0.265512 6.58653 0.47389 6.55619L5.29792 5.85495C5.75157 5.78899 6.14374 5.50407 6.34665 5.09297L8.5039 0.721814Z" fill="#283754"/>
</g>
<defs>
<clipPath id="clip0">
<rect width="18" height="18" fill="white"/>
</clipPath>
</defs>
</svg>
