<svg width="18" height="18" viewBox="0 0 18 18" fill="none" xmlns="http://www.w3.org/2000/svg">
<g clip-path="url(#clip0)">
<path d="M16.4465 15.1823L15.1587 13.0358C14.564 12.045 14.2497 10.9102 14.2497 9.75526V7.875C14.2497 5.50125 12.6657 3.49351 10.4997 2.84625V1.50001C10.4997 0.67275 9.82696 0 8.9997 0C8.17244 0 7.49969 0.67275 7.49969 1.50001V2.84625C5.33371 3.49351 3.74971 5.50125 3.74971 7.875V9.75526C3.74971 10.9102 3.43545 12.0442 2.84145 13.035L1.55371 15.1815C1.48396 15.2978 1.48245 15.4418 1.54921 15.5595C1.61597 15.6773 1.73972 15.75 1.87472 15.75H16.1247C16.2597 15.75 16.3842 15.6773 16.451 15.5603C16.5177 15.4433 16.5155 15.2978 16.4465 15.1823Z" fill="#236EFF"/>
<path d="M6.63794 16.5C7.06094 17.3835 7.95644 18 8.99967 18C10.0429 18 10.9384 17.3835 11.3614 16.5H6.63794Z" fill="#236EFF"/>
</g>
<defs>
<clipPath id="clip0">
<rect width="18" height="18" fill="white"/>
</clipPath>
</defs>
</svg>
