<svg width="20" height="20" viewBox="0 0 20 20" fill="none" xmlns="http://www.w3.org/2000/svg">
<path d="M14.2939 12.5786H13.3848L13.0703 12.2642C14.191 10.9663 14.8656 9.27959 14.8656 7.43284C14.8656 3.32762 11.538 0 7.43284 0C3.32767 0 0 3.32762 0 7.43284C0 11.5381 3.32762 14.8657 7.43284 14.8657C9.27959 14.8657 10.9663 14.191 12.2642 13.0761L12.5786 13.3905V14.2939L18.2962 20L20 18.2962L14.2939 12.5786ZM7.43284 12.5786C4.59123 12.5786 2.28704 10.2744 2.28704 7.43284C2.28704 4.59123 4.59123 2.28704 7.43284 2.28704C10.2744 2.28704 12.5786 4.59123 12.5786 7.43284C12.5786 10.2744 10.2744 12.5786 7.43284 12.5786Z" fill="#283754"/>
</svg>
