<svg width="20" height="21" viewBox="0 0 20 21" fill="none" xmlns="http://www.w3.org/2000/svg">
<circle cx="10" cy="10.7461" r="9.75" stroke="#236EFF" stroke-opacity="0.5" stroke-width="0.5"/>
<g opacity="0.3" clip-path="url(#clip0)">
<path d="M9.72426 6.14786C9.77603 6.04297 9.88285 5.97656 9.99983 5.97656C10.1168 5.97654 10.2237 6.04295 10.2754 6.14784L11.4741 8.5763C11.5869 8.80465 11.8047 8.96296 12.0567 8.99956L14.7368 9.38916C14.8526 9.40599 14.9488 9.48707 14.9849 9.59833C15.0211 9.70957 14.9909 9.83171 14.9072 9.91337L12.968 11.8039C12.7856 11.9817 12.7024 12.2378 12.7454 12.4887L13.203 15.1576C13.2228 15.2729 13.1754 15.3894 13.0807 15.4581C12.9861 15.5269 12.8606 15.5359 12.7571 15.4815L10.3599 14.2215C10.1345 14.103 9.86522 14.103 9.63978 14.2215L7.2428 15.4815C7.13925 15.5359 7.01378 15.5268 6.91916 15.4581C6.82451 15.3893 6.77714 15.2728 6.7969 15.1575L7.25467 12.4888C7.29774 12.2378 7.21452 11.9817 7.03212 11.8038L5.09282 9.91339C5.00906 9.83173 4.9789 9.70959 5.01505 9.59835C5.0512 9.48711 5.14737 9.40604 5.26314 9.38918L7.94316 8.9996C8.19518 8.96296 8.41306 8.80467 8.52578 8.57628L9.72426 6.14786Z" fill="#236EFF"/>
</g>
<defs>
<clipPath id="clip0">
<rect width="10" height="10" fill="white" transform="translate(5 5.74609)"/>
</clipPath>
</defs>
</svg>
