<svg width="10" height="10" viewBox="0 0 10 10" fill="none" xmlns="http://www.w3.org/2000/svg">
<circle cx="5" cy="5" r="5" fill="#236EFF" fill-opacity="0.5"/>
<path d="M5.31952 5.00084L6.67388 3.64643C6.76202 3.55833 6.76202 3.41589 6.67388 3.32779C6.58579 3.23969 6.44334 3.23969 6.35524 3.32779L5.00083 4.6822L3.64646 3.32779C3.55832 3.23969 3.41592 3.23969 3.32782 3.32779C3.23968 3.41589 3.23968 3.55833 3.32782 3.64643L4.68219 5.00084L3.32782 6.35525C3.23968 6.44335 3.23968 6.58579 3.32782 6.67389C3.37173 6.71783 3.42946 6.73991 3.48714 6.73991C3.54483 6.73991 3.60252 6.71783 3.64646 6.67389L5.00083 5.31948L6.35524 6.67389C6.39919 6.71783 6.45688 6.73991 6.51456 6.73991C6.57225 6.73991 6.62994 6.71783 6.67388 6.67389C6.76202 6.58579 6.76202 6.44335 6.67388 6.35525L5.31952 5.00084Z" fill="white"/>
</svg>
