<svg width="48" height="48" viewBox="0 0 48 48" fill="none" xmlns="http://www.w3.org/2000/svg">
<mask id="mask0" mask-type="alpha" maskUnits="userSpaceOnUse" x="0" y="0" width="48" height="48">
<circle cx="24" cy="24" r="24" fill="#C4C4C4"/>
</mask>
<g mask="url(#mask0)">
<circle cx="24" cy="24" r="24" fill="#D8E5EE"/>
<g clip-path="url(#clip0)">
<path d="M25.0021 17.7253L8.975 15.2899C8.23125 15.1732 7.47292 15.3774 6.90417 15.8586C6.33542 16.3545 6 17.0691 6 17.8128V48.5399C6 49.342 6.65625 49.9982 7.45833 49.9982H12.1979V42.342C12.1979 40.9274 13.3354 39.7899 14.75 39.7899H18.3958C19.8104 39.7899 20.9479 40.9274 20.9479 42.342V49.9982H27.1458V20.2482C27.1458 18.9941 26.2417 17.9295 25.0021 17.7253ZM14.0208 36.5086H11.8333C11.2296 36.5086 10.7396 36.0186 10.7396 35.4149C10.7396 34.8111 11.2296 34.3211 11.8333 34.3211H14.0208C14.6246 34.3211 15.1146 34.8111 15.1146 35.4149C15.1146 36.0186 14.6246 36.5086 14.0208 36.5086ZM14.0208 32.1336H11.8333C11.2296 32.1336 10.7396 31.6436 10.7396 31.0399C10.7396 30.4361 11.2296 29.9461 11.8333 29.9461H14.0208C14.6246 29.9461 15.1146 30.4361 15.1146 31.0399C15.1146 31.6436 14.6246 32.1336 14.0208 32.1336ZM14.0208 27.7586H11.8333C11.2296 27.7586 10.7396 27.2686 10.7396 26.6649C10.7396 26.0611 11.2296 25.5711 11.8333 25.5711H14.0208C14.6246 25.5711 15.1146 26.0611 15.1146 26.6649C15.1146 27.2686 14.6246 27.7586 14.0208 27.7586ZM14.0208 23.3836H11.8333C11.2296 23.3836 10.7396 22.8936 10.7396 22.2899C10.7396 21.6861 11.2296 21.1961 11.8333 21.1961H14.0208C14.6246 21.1961 15.1146 21.6861 15.1146 22.2899C15.1146 22.8936 14.6246 23.3836 14.0208 23.3836ZM21.3125 36.5086H19.125C18.5213 36.5086 18.0312 36.0186 18.0312 35.4149C18.0312 34.8111 18.5213 34.3211 19.125 34.3211H21.3125C21.9163 34.3211 22.4062 34.8111 22.4062 35.4149C22.4062 36.0186 21.9163 36.5086 21.3125 36.5086ZM21.3125 32.1336H19.125C18.5213 32.1336 18.0312 31.6436 18.0312 31.0399C18.0312 30.4361 18.5213 29.9461 19.125 29.9461H21.3125C21.9163 29.9461 22.4062 30.4361 22.4062 31.0399C22.4062 31.6436 21.9163 32.1336 21.3125 32.1336ZM21.3125 27.7586H19.125C18.5213 27.7586 18.0312 27.2686 18.0312 26.6649C18.0312 26.0611 18.5213 25.5711 19.125 25.5711H21.3125C21.9163 25.5711 22.4062 26.0611 22.4062 26.6649C22.4062 27.2686 21.9163 27.7586 21.3125 27.7586ZM21.3125 23.3836H19.125C18.5213 23.3836 18.0312 22.8936 18.0312 22.2899C18.0312 21.6861 18.5213 21.1961 19.125 21.1961H21.3125C21.9163 21.1961 22.4062 21.6861 22.4062 22.2899C22.4062 22.8936 21.9163 23.3836 21.3125 23.3836Z" fill="#49608D"/>
<path d="M38.9869 30.8111L28.6035 28.6367V49.9998H38.4473C39.8546 49.9998 40.9993 48.8551 40.9993 47.4478V33.3048C40.9993 32.1003 40.1783 31.0751 38.9869 30.8111ZM35.5306 45.6248H33.3431C32.7393 45.6248 32.2493 45.1348 32.2493 44.5311C32.2493 43.9273 32.7393 43.4373 33.3431 43.4373H35.5306C36.1343 43.4373 36.6243 43.9273 36.6243 44.5311C36.6243 45.1348 36.1343 45.6248 35.5306 45.6248ZM35.5306 41.2498H33.3431C32.7393 41.2498 32.2493 40.7598 32.2493 40.1561C32.2493 39.5523 32.7393 39.0623 33.3431 39.0623H35.5306C36.1343 39.0623 36.6243 39.5523 36.6243 40.1561C36.6243 40.7598 36.1343 41.2498 35.5306 41.2498ZM35.5306 36.8748H33.3431C32.7393 36.8748 32.2493 36.3848 32.2493 35.7811C32.2493 35.1773 32.7393 34.6873 33.3431 34.6873H35.5306C36.1343 34.6873 36.6243 35.1773 36.6243 35.7811C36.6243 36.3848 36.1343 36.8748 35.5306 36.8748Z" fill="#49608D"/>
</g>
</g>
<defs>
<clipPath id="clip0">
<rect width="35" height="35" fill="white" transform="translate(6 15)"/>
</clipPath>
</defs>
</svg>
