<svg width="24" height="24" viewBox="0 0 24 24" fill="none" xmlns="http://www.w3.org/2000/svg">
<circle cx="12" cy="12" r="12" fill="#236EFF" fill-opacity="0.15"/>
<path d="M16.8 6H7.2C6.54 6 6 6.5404 6 7.2V16.8C6 17.4592 6.54 18 7.2 18H16.8C17.46 18 18 17.4592 18 16.8V7.2C18 6.5404 17.46 6 16.8 6ZM9.2384 16.5608H7.4V14.9256H9.2384V16.5608ZM9.2384 14.3772H7.4V12.7428H9.2384V14.3772ZM9.1 7.8188C8.8188 7.8188 8.5908 7.5912 8.5908 7.3096C8.5908 7.028 8.8188 6.8 9.1 6.8C9.3812 6.8 9.6092 7.0276 9.6092 7.3092C9.6092 7.5908 9.3812 7.8188 9.1 7.8188ZM11.6916 16.5608H9.8536V14.9256H11.6916V16.5608ZM11.6916 14.3772H9.8536V12.7428H11.6916V14.3772ZM11.6916 12.1952H9.8536V10.5608H11.6916V12.1952ZM11.4908 7.3092C11.4908 7.0276 11.7188 6.8 12 6.8C12.2812 6.8 12.5092 7.0276 12.5092 7.3092C12.5092 7.5908 12.2812 7.8184 12 7.8184C11.7188 7.8184 11.4908 7.5912 11.4908 7.3092ZM14.1464 14.3772H12.308V12.7428H14.1468V14.3772H14.1464ZM14.1464 12.1952H12.308V10.5608H14.1468V12.1952H14.1464ZM14.3908 7.3092C14.3908 7.0276 14.6188 6.8 14.9 6.8C15.1812 6.8 15.4092 7.0276 15.4092 7.3092C15.4092 7.5908 15.1812 7.8184 14.9 7.8184C14.6188 7.8184 14.3908 7.5912 14.3908 7.3092ZM16.6 14.3772H14.7616V12.7428H16.6V14.3772ZM16.6 12.1952H14.7616V10.5608H16.6V12.1952Z" fill="#236EFF"/>
</svg>
