<svg width="20" height="21" viewBox="0 0 20 21" fill="none" xmlns="http://www.w3.org/2000/svg">
<circle cx="10" cy="10.7461" r="9.75" stroke="#236EFF" stroke-opacity="0.5" stroke-width="0.5"/>
<g clip-path="url(#clip0)">
<path opacity="0.3" d="M13.4375 5.74609H6.5625C5.69955 5.74609 5 6.44564 5 7.30859V12.3086C5 13.1715 5.69955 13.8711 6.5625 13.8711H12.6844L14.4656 15.6555C14.5246 15.714 14.6044 15.7466 14.6875 15.7461C14.8601 15.7461 15 15.6062 15 15.4336V7.30859C15 6.44564 14.3004 5.74609 13.4375 5.74609Z" fill="#236EFF"/>
<path d="M10 10.4336C10.3452 10.4336 10.625 10.1538 10.625 9.80859C10.625 9.46342 10.3452 9.18359 10 9.18359C9.65482 9.18359 9.375 9.46342 9.375 9.80859C9.375 10.1538 9.65482 10.4336 10 10.4336Z" fill="white"/>
<path d="M12.1875 10.4336C12.5327 10.4336 12.8125 10.1538 12.8125 9.80859C12.8125 9.46342 12.5327 9.18359 12.1875 9.18359C11.8423 9.18359 11.5625 9.46342 11.5625 9.80859C11.5625 10.1538 11.8423 10.4336 12.1875 10.4336Z" fill="white"/>
<path d="M7.8125 10.4336C8.15768 10.4336 8.4375 10.1538 8.4375 9.80859C8.4375 9.46342 8.15768 9.18359 7.8125 9.18359C7.46732 9.18359 7.1875 9.46342 7.1875 9.80859C7.1875 10.1538 7.46732 10.4336 7.8125 10.4336Z" fill="white"/>
</g>
<defs>
<clipPath id="clip0">
<rect width="10" height="10" fill="white" transform="translate(5 5.74609)"/>
</clipPath>
</defs>
</svg>
