<svg width="11" height="11" viewBox="0 0 11 11" fill="none" xmlns="http://www.w3.org/2000/svg">
<path d="M5.5 0C2.46718 0 0 2.46718 0 5.5C0 8.53282 2.46718 11 5.5 11C8.53282 11 11 8.53282 11 5.5C11 2.46718 8.53282 0 5.5 0ZM8.11572 8.34483C8.02634 8.43421 7.90902 8.47919 7.79169 8.47919C7.67437 8.47919 7.55696 8.43421 7.46767 8.34483L5.17597 6.05322C5.08978 5.96754 5.04169 5.85105 5.04169 5.72919V2.75C5.04169 2.49655 5.24697 2.29169 5.5 2.29169C5.75303 2.29169 5.95831 2.49655 5.95831 2.75V5.53944L8.11572 7.69678C8.2949 7.87604 8.2949 8.16566 8.11572 8.34483Z" fill="#3E80FE"/>
</svg>
