<svg width="20" height="21" viewBox="0 0 20 21" fill="none" xmlns="http://www.w3.org/2000/svg">
<g opacity="0.5">
<circle cx="10" cy="10.7461" r="9.75" stroke="#236EFF" stroke-width="0.5"/>
<g clip-path="url(#clip0)">
<path d="M10.7329 10.7539L13.848 7.63875C14.0507 7.43612 14.0507 7.1085 13.848 6.90588C13.6454 6.70325 13.3177 6.70325 13.1151 6.90588L9.99996 10.021L6.88492 6.90588C6.68219 6.70325 6.35467 6.70325 6.15204 6.90588C5.94932 7.1085 5.94932 7.43612 6.15204 7.63875L9.26709 10.7539L6.15204 13.869C5.94932 14.0716 5.94932 14.3993 6.15204 14.6019C6.25302 14.703 6.3858 14.7537 6.51848 14.7537C6.65116 14.7537 6.78384 14.703 6.88492 14.6019L9.99996 11.4868L13.1151 14.6019C13.2162 14.703 13.3489 14.7537 13.4815 14.7537C13.6142 14.7537 13.7469 14.703 13.848 14.6019C14.0507 14.3993 14.0507 14.0716 13.848 13.869L10.7329 10.7539Z" fill="#236EFF"/>
</g>
</g>
<defs>
<clipPath id="clip0">
<rect width="8" height="8" fill="white" transform="translate(6 6.74609)"/>
</clipPath>
</defs>
</svg>
