<svg width="18" height="18" viewBox="0 0 18 18" fill="none" xmlns="http://www.w3.org/2000/svg">
<path d="M17.9929 12.7285V9.70738C17.9929 9.25743 17.8646 8.80748 17.6715 8.42181L15.7482 5.14361C15.5553 4.75794 15.1054 4.50082 14.6555 4.50082H11.763C11.3131 4.50082 10.9273 4.88649 10.9273 5.33644V12.2142H10.2845V3.21526C10.2845 2.50819 9.70612 1.92969 8.99898 1.92969H0V13.4998H1.92835C2.24974 12.4071 3.21392 11.5714 4.43513 11.5714C5.6565 11.5714 6.68487 12.4071 6.94207 13.4998H11.6344C11.9558 12.4071 12.92 11.5714 14.1412 11.5714C15.1697 11.5714 16.0052 12.15 16.391 12.9856C16.5838 13.307 16.9004 13.4998 17.2218 13.4998C17.6715 13.4998 18.0573 13.1141 17.9929 12.7285ZM12.2129 9.00031V5.78639H14.784L16.648 9.00031H12.2129Z" fill="#236EFF"/>
<path d="M14.1412 12.2148C13.0486 12.2148 12.2129 13.0505 12.2129 14.1432C12.2129 15.2359 13.0486 16.0715 14.1412 16.0715C15.2339 16.0715 16.0696 15.2359 16.0696 14.1432C16.0696 13.0505 15.2339 12.2148 14.1412 12.2148ZM14.1412 15.0431C13.627 15.0431 13.2414 14.6574 13.2414 14.1432C13.2414 13.629 13.627 13.2433 14.1412 13.2433C14.6555 13.2433 15.0411 13.629 15.0411 14.1432C15.0411 14.6574 14.6555 15.0431 14.1412 15.0431Z" fill="#236EFF"/>
<path d="M4.49964 12.2148C3.40695 12.2148 2.57129 13.0505 2.57129 14.1432C2.57129 15.2359 3.40695 16.0715 4.49964 16.0715C5.59233 16.0715 6.42799 15.2359 6.42799 14.1432C6.42799 13.0505 5.59233 12.2148 4.49964 12.2148ZM4.49964 15.0431C3.98537 15.0431 3.59982 14.6574 3.59982 14.1432C3.59982 13.629 3.98541 13.2433 4.49964 13.2433C5.01387 13.2433 5.39946 13.629 5.39946 14.1432C5.39946 14.6574 5.01391 15.0431 4.49964 15.0431Z" fill="#236EFF"/>
<path d="M4.49962 14.4631C4.67712 14.4631 4.82101 14.3192 4.82101 14.1417C4.82101 13.9642 4.67712 13.8203 4.49962 13.8203C4.32212 13.8203 4.17822 13.9642 4.17822 14.1417C4.17822 14.3192 4.32212 14.4631 4.49962 14.4631Z" fill="#236EFF"/>
<path d="M14.1417 14.4631C14.3192 14.4631 14.4631 14.3192 14.4631 14.1417C14.4631 13.9642 14.3192 13.8203 14.1417 13.8203C13.9642 13.8203 13.8203 13.9642 13.8203 14.1417C13.8203 14.3192 13.9642 14.4631 14.1417 14.4631Z" fill="#236EFF"/>
</svg>
