<svg width="31" height="31" viewBox="0 0 31 31" fill="none" xmlns="http://www.w3.org/2000/svg">
<circle cx="15.5" cy="15.5" r="15" stroke="#236EFF"/>
<path d="M18.264 18.165L19.704 18.99C19.044 20.46 17.929 21.195 16.359 21.195C15.249 21.195 14.339 20.83 13.629 20.1C12.929 19.37 12.484 18.37 12.294 17.1H11.229V16.035H12.204V15.75C12.204 15.57 12.209 15.435 12.219 15.345H11.229V14.28H12.324C12.524 13.05 12.974 12.08 13.674 11.37C14.374 10.66 15.269 10.305 16.359 10.305C17.899 10.305 18.999 11.015 19.659 12.435L18.234 13.26C17.844 12.41 17.219 11.985 16.359 11.985C15.759 11.985 15.264 12.185 14.874 12.585C14.484 12.975 14.214 13.54 14.064 14.28H17.379V15.345H13.944C13.934 15.435 13.929 15.57 13.929 15.75V16.035H17.379V17.1H14.034C14.174 17.88 14.444 18.48 14.844 18.9C15.244 19.31 15.749 19.515 16.359 19.515C17.239 19.515 17.874 19.065 18.264 18.165Z" fill="#236EFF"/>
</svg>
