<svg width="10" height="8" viewBox="0 0 10 8" fill="none" xmlns="http://www.w3.org/2000/svg">
<path d="M5.00036 2.63672C4.24808 2.63672 3.63672 3.24808 3.63672 4.00036C3.63672 4.75264 4.24808 5.36399 5.00036 5.36399C5.75263 5.36399 6.36399 4.75264 6.36399 4.00036C6.36399 3.24808 5.75261 2.63672 5.00036 2.63672Z" fill="#343434"/>
<path d="M5.00001 0.589844C2.72727 0.589844 0.786371 2.00347 0 3.99894C0.786371 5.99439 2.72727 7.40803 5.00001 7.40803C7.275 7.40803 9.21365 5.99439 10 3.99894C9.21365 2.00347 7.275 0.589844 5.00001 0.589844ZM5.00001 6.27166C3.74546 6.27166 2.72727 5.25346 2.72727 3.99892C2.72727 2.74437 3.74546 1.7262 5.00001 1.7262C6.25456 1.7262 7.27275 2.74439 7.27275 3.99894C7.27275 5.25349 6.25456 6.27166 5.00001 6.27166Z" fill="#343434"/>
</svg>
