<svg width="50" height="50" viewBox="0 0 50 50" fill="none" xmlns="http://www.w3.org/2000/svg">
<mask id="mask0" mask-type="alpha" maskUnits="userSpaceOnUse" x="0" y="0" width="50" height="50">
<circle cx="25" cy="25" r="25" fill="#D8E5EE"/>
</mask>
<g mask="url(#mask0)">
<circle cx="25" cy="25" r="25" fill="#D8E5EE"/>
<path d="M45.9745 48.939L44.9495 44.839C44.4632 42.85 42.9887 41.2505 41.0458 40.6041L33.5289 38.0996C31.6958 37.336 30.8571 34.384 30.6759 33.2633C32.0727 32.1019 32.9714 30.4494 33.1872 28.6457C33.1564 28.3377 33.2291 28.0281 33.3939 27.7659C33.6603 27.6992 33.8783 27.5085 33.9799 27.2534C34.4717 26.0625 34.7804 24.804 34.8956 23.5207C34.8958 23.451 34.8873 23.3816 34.87 23.3141C34.7476 22.8154 34.4544 22.3754 34.0414 22.0704V17.5416C34.0414 14.7895 33.2009 13.6603 32.3159 13.006C32.1469 11.6804 30.7272 9 25.4996 9C20.8616 9.18674 17.1444 12.9038 16.9577 17.5417V22.0705C16.5446 22.3755 16.2515 22.8155 16.1291 23.3141C16.1118 23.3817 16.1032 23.4512 16.1035 23.5208C16.2185 24.8047 16.5272 26.0638 17.0192 27.2553C17.0932 27.4967 17.2872 27.6824 17.5317 27.7456C17.6274 27.7934 17.8068 28.0411 17.8068 28.6459C18.0239 30.4547 18.9278 32.1109 20.3318 33.2721C20.1524 34.391 19.3187 37.3413 17.5369 38.0861L9.95339 40.6042C8.012 41.2505 6.53852 42.8484 6.05148 44.8357L5.02645 48.9357C4.91041 49.3929 5.18701 49.8577 5.64427 49.9737C5.71258 49.9911 5.78281 49.9999 5.85328 50H45.146C45.6178 49.9998 46.0001 49.6173 46 49.1456C45.9999 49.0758 45.9914 49.0065 45.9745 48.939Z" fill="#49608D"/>
</g>
</svg>
