<svg width="50" height="50" viewBox="0 0 50 50" fill="none" xmlns="http://www.w3.org/2000/svg">
<mask id="mask0" mask-type="alpha" maskUnits="userSpaceOnUse" x="0" y="0" width="50" height="50">
<circle cx="25" cy="25" r="25" fill="#D8E5EE"/>
</mask>
<g mask="url(#mask0)">
<circle cx="25" cy="25" r="25" fill="#D8E5EE"/>
<path d="M24.5225 54C31.7157 54 38.2345 51.0942 43 46.3723C42.5954 43.8297 42.0109 41.6958 41.1567 40.5607C40.2576 39.3349 36.3463 38.0636 33.6938 37.2463C33.0644 36.7923 32.3001 36.3837 31.6258 36.0204C33.469 36.1567 35.3572 35.5664 36.7959 34.3859C36.1665 34.4767 35.4921 34.2951 34.9077 33.9773C35.1324 33.9319 35.3572 33.8411 35.582 33.7957C34.0535 33.4779 32.7047 32.2974 32.1203 30.7991C32.6148 30.0727 33.2892 29.437 33.9186 28.8468C33.9186 28.9376 33.9186 29.0738 33.9186 29.1646C34.6379 28.2565 35.3572 27.3031 35.8068 26.2134C36.3913 24.6243 36.2564 22.7174 35.3572 21.2645C35.4921 21.3099 35.6719 21.3553 35.8068 21.4461C34.3682 19.857 33.469 17.8139 33.1543 15.6799C32.9745 14.4541 33.0194 13.1828 32.48 12.0931C31.8056 10.8218 30.322 10.0046 28.9283 10.1408C29.0632 10.0046 29.1531 9.91377 29.288 9.82296C28.8834 9.91377 28.4787 10.05 28.0741 10.277C28.164 10.0046 28.3439 9.77756 28.4787 9.55054C28.164 9.73216 27.8943 9.91377 27.6695 10.1862C27.8044 9.64135 28.0292 9.14192 28.3439 8.68789C27.8044 9.09651 27.3548 9.59595 27.0401 10.1862C25.6464 8.73329 23.6233 7.91604 21.6452 8.00684C19.3973 8.09765 17.1944 9.36893 15.9806 11.3213C16.2503 11.2759 16.4751 11.2305 16.7448 11.185C14.5419 13.6822 13.3281 17.042 13.418 20.3564C13.5978 20.1294 13.7327 19.9478 13.9125 19.7208C14.6318 22.218 14.2272 24.9875 12.8785 27.1669C13.2831 27.1215 13.6877 27.1215 14.0923 27.0761C14.2272 28.3928 14.7217 29.664 15.486 30.7083C15.531 30.3451 15.531 29.9365 15.5759 29.5732C15.9356 30.6629 16.4751 31.6618 17.1495 32.5698C16.4751 33.2509 15.6659 33.7503 14.7218 33.9319C14.9465 33.9773 15.1713 34.0681 15.3961 34.1135C14.8566 34.4313 14.1823 34.613 13.5079 34.5222C14.6318 35.4302 16.0255 35.975 17.4192 36.1113C16.6999 36.4745 15.9356 36.8831 15.3062 37.3825C12.6537 38.1998 8.78736 39.4711 7.84326 40.6969C6.98906 41.7866 6.40462 43.966 6 46.5085C10.8104 51.0942 17.3293 54 24.5225 54ZM30.3669 35.4302C30.3669 35.4756 30.3669 35.4756 30.3669 35.4302C30.3669 35.4756 30.322 35.4302 30.322 35.4302H30.3669Z" fill="#49608D"/>
</g>
</svg>
