<svg width="36" height="36" viewBox="0 0 36 36" fill="none" xmlns="http://www.w3.org/2000/svg">
<g clip-path="url(#clip0)">
<path d="M22.9606 11.5654L26.8158 0H19.1055L22.9606 11.5654Z" fill="#236EFF"/>
<path d="M16.8802 0H9.16992L13.5811 13.2332H21.2913L16.8802 0Z" fill="#236EFF"/>
<path d="M20.239 17.2076C20.4701 16.818 20.6032 16.3634 20.6032 15.8776C20.6032 15.6946 20.5844 15.5161 20.5486 15.3438H15.4363C15.4005 15.5161 15.3813 15.6946 15.3813 15.8776C15.3813 16.3648 15.5151 16.8207 15.7476 17.211C11.5767 18.2259 8.4707 21.9922 8.4707 26.471C8.4707 31.7257 12.7457 36.0007 18.0004 36.0007C23.2551 36.0007 27.5301 31.7257 27.5301 26.471C27.53 21.9872 24.417 18.2174 20.239 17.2076ZM21.9882 30.2834L20.4241 31.4198L18.0003 30.1456L15.5765 31.4198L14.0126 30.2834L14.4754 27.5846L12.5145 25.6732L13.112 23.8345L15.8218 23.4408L17.0336 20.9853H18.9669L20.1787 23.4407L22.8886 23.8345L23.4859 25.6733L21.5251 27.5846L21.9882 30.2834Z" fill="#236EFF"/>
<path d="M18.0002 23.793L17.2228 25.3681L15.4844 25.6208L16.7423 26.8469L16.4454 28.5782L18.0002 27.7608L19.5551 28.5782L19.2581 26.8469L20.516 25.6208L18.7776 25.3682L18.0002 23.793Z" fill="#236EFF"/>
</g>
<defs>
<clipPath id="clip0">
<rect width="36" height="36" fill="white"/>
</clipPath>
</defs>
</svg>
