<svg width="16" height="16" viewBox="0 0 16 16" fill="none" xmlns="http://www.w3.org/2000/svg">
<g opacity="0.2" clip-path="url(#clip0)">
<path d="M14.6176 13.4953L13.4729 11.5873C12.9442 10.7067 12.6649 9.698 12.6649 8.67134V7C12.6649 4.89 11.2569 3.10534 9.33156 2.53V1.33334C9.33156 0.598 8.73356 0 7.99821 0C7.26287 0 6.66487 0.598 6.66487 1.33334V2.53C4.73956 3.10534 3.33156 4.89 3.33156 7V8.67134C3.33156 9.698 3.05221 10.706 2.52421 11.5867L1.37956 13.4947C1.31756 13.598 1.31621 13.726 1.37556 13.8307C1.4349 13.9353 1.5449 14 1.6649 14H14.3316C14.4516 14 14.5622 13.9354 14.6216 13.8314C14.6809 13.7273 14.6789 13.598 14.6176 13.4953Z" fill="#343434"/>
<path d="M5.90234 14.668C6.27834 15.4533 7.07434 16.0013 8.00166 16.0013C8.92897 16.0013 9.725 15.4533 10.101 14.668H5.90234Z" fill="#343434"/>
</g>
<defs>
<clipPath id="clip0">
<rect width="16" height="16" fill="white"/>
</clipPath>
</defs>
</svg>
