<svg width="20" height="21" viewBox="0 0 20 21" fill="none" xmlns="http://www.w3.org/2000/svg">
<circle cx="10" cy="10.7461" r="9.75" stroke="#236EFF" stroke-opacity="0.5" stroke-width="0.5"/>
<g opacity="0.3" clip-path="url(#clip0)">
<path d="M14.1355 14.1807L13.4201 12.9882C13.0897 12.4378 12.9151 11.8073 12.9151 11.1657V10.1211C12.9151 8.80234 12.0351 7.68693 10.8317 7.32734V6.57943C10.8317 6.11984 10.458 5.74609 9.99839 5.74609C9.53881 5.74609 9.16506 6.11984 9.16506 6.57943V7.32734C7.96174 7.68693 7.08174 8.80234 7.08174 10.1211V11.1657C7.08174 11.8073 6.90715 12.4373 6.57715 12.9878L5.86173 14.1803C5.82298 14.2449 5.82215 14.3249 5.85923 14.3903C5.89632 14.4557 5.96507 14.4961 6.04007 14.4961H13.9567C14.0317 14.4961 14.1009 14.4557 14.138 14.3907C14.1751 14.3257 14.1738 14.2448 14.1355 14.1807Z" fill="#236EFF"/>
<path d="M8.6875 14.9141C8.9225 15.4049 9.42 15.7474 9.99957 15.7474C10.5791 15.7474 11.0767 15.4049 11.3117 14.9141H8.6875Z" fill="#236EFF"/>
</g>
<defs>
<clipPath id="clip0">
<rect width="10" height="10" fill="white" transform="translate(5 5.74609)"/>
</clipPath>
</defs>
</svg>
