<svg width="32" height="32" viewBox="0 0 32 32" fill="none" xmlns="http://www.w3.org/2000/svg">
<circle cx="16" cy="16" r="16" fill="#AAC7FF"/>
<path d="M16.0406 14.024C17.1073 14.024 18.0086 14.344 18.7446 14.984C19.4806 15.6133 19.8486 16.488 19.8486 17.608C19.8486 18.728 19.47 19.608 18.7126 20.248C17.9553 20.888 17.0273 21.208 15.9286 21.208C15.0433 21.208 14.2593 21.0053 13.5766 20.6C12.894 20.184 12.4086 19.5867 12.1206 18.808L13.7046 17.896C14.0033 18.9093 14.7446 19.416 15.9286 19.416C16.558 19.416 17.0593 19.256 17.4326 18.936C17.8166 18.6053 18.0086 18.1627 18.0086 17.608C18.0086 17.0533 17.822 16.616 17.4486 16.296C17.0753 15.976 16.5793 15.816 15.9606 15.816H12.6966L13.1286 9.8H19.3686V11.528H14.8246L14.6326 14.024H16.0406Z" fill="white"/>
</svg>
