<svg width="12" height="8" viewBox="0 0 12 8" fill="none" xmlns="http://www.w3.org/2000/svg">
<g clip-path="url(#clip0)">
<path d="M3.11615 7.81601C2.07357 6.89541 1.04315 5.98673 0 5.06553C0.312425 4.68597 0.615014 4.31773 0.943638 3.9191C1.63213 4.51734 2.31136 5.10724 3.01953 5.72157C4.56082 3.84164 6.08649 1.98077 7.63936 0.0859375C8.00154 0.399955 8.34984 0.702055 8.73285 1.03395C6.85136 3.30596 4.98317 5.56188 3.11615 7.81601Z" fill="#236EFF" fill-opacity="0.5"/>
<path d="M4.77344 6.59258C5.09685 6.20349 5.40118 5.83703 5.72228 5.45092C5.87676 5.57843 6.01677 5.69462 6.18456 5.83346C7.73164 3.89334 9.27756 1.95501 10.8368 0C11.2239 0.331297 11.5895 0.644719 12.0003 0.997468C10.1269 3.33443 8.27202 5.64874 6.38705 8C5.838 7.52093 5.31497 7.0645 4.77344 6.59258Z" fill="#236EFF" fill-opacity="0.5"/>
</g>
<defs>
<clipPath id="clip0">
<rect width="12" height="8" fill="white"/>
</clipPath>
</defs>
</svg>
