<svg width="4" height="4" viewBox="0 0 4 4" fill="none" xmlns="http://www.w3.org/2000/svg">
<path d="M2.31952 2.00084L3.67388 0.646433C3.76202 0.558334 3.76202 0.415891 3.67388 0.327793C3.58579 0.239694 3.44334 0.239694 3.35524 0.327793L2.00083 1.6822L0.646465 0.327793C0.558325 0.239694 0.415923 0.239694 0.327824 0.327793C0.239684 0.415891 0.239684 0.558334 0.327824 0.646433L1.68219 2.00084L0.327824 3.35525C0.239684 3.44335 0.239684 3.58579 0.327824 3.67389C0.371729 3.71783 0.429457 3.73991 0.487144 3.73991C0.544831 3.73991 0.602519 3.71783 0.646465 3.67389L2.00083 2.31948L3.35524 3.67389C3.39919 3.71783 3.45688 3.73991 3.51456 3.73991C3.57225 3.73991 3.62994 3.71783 3.67388 3.67389C3.76202 3.58579 3.76202 3.44335 3.67388 3.35525L2.31952 2.00084Z" fill="white"/>
</svg>
