<svg width="16" height="16" viewBox="0 0 16 16" fill="none" xmlns="http://www.w3.org/2000/svg">
<path d="M15.3333 8.65365H0.666667C0.298665 8.65365 0 8.35499 0 7.98698C0 7.61898 0.298665 7.32031 0.666667 7.32031H15.3333C15.7013 7.32031 16 7.61898 16 7.98698C16 8.35499 15.7013 8.65365 15.3333 8.65365Z" fill="#343434"/>
<path d="M15.3333 3.54037H0.666667C0.298665 3.54037 0 3.2417 0 2.8737C0 2.5057 0.298665 2.20703 0.666667 2.20703H15.3333C15.7013 2.20703 16 2.5057 16 2.8737C16 3.2417 15.7013 3.54037 15.3333 3.54037Z" fill="#343434"/>
<path d="M15.3333 13.763H0.666667C0.298665 13.763 0 13.4644 0 13.0964C0 12.7284 0.298665 12.4297 0.666667 12.4297H15.3333C15.7013 12.4297 16 12.7284 16 13.0964C16 13.4644 15.7013 13.763 15.3333 13.763Z" fill="#343434"/>
</svg>
