<svg width="18" height="18" viewBox="0 0 18 18" fill="none" xmlns="http://www.w3.org/2000/svg">
<g clip-path="url(#clip0)">
<path d="M17.4726 18.0005H7.90888C7.61757 18.0005 7.38147 17.7644 7.38147 17.4731V16.9106C7.38147 16.3279 7.85367 15.8557 8.43629 15.8557V15.2252C8.43629 14.3903 9.1156 13.7109 9.95053 13.7109H15.4309C16.2659 13.7109 16.9452 14.3903 16.9452 15.2252V15.8557C17.5278 15.8557 18 16.3279 18 16.9106V17.4731C18 17.7643 17.7638 18.0005 17.4726 18.0005Z" fill="#236EFF"/>
<path d="M11.4005 11.6128C11.05 12.078 10.3886 12.171 9.92338 11.8204C9.45805 11.4698 9.36521 10.8084 9.71572 10.343L12.8898 6.13103C13.2404 5.6657 13.9018 5.57286 14.367 5.92337C14.8323 6.27401 14.9253 6.93534 14.5746 7.40067L11.4005 11.6128Z" fill="#236EFF"/>
<path d="M3.81669 5.90179C3.46604 6.36698 2.80472 6.45997 2.33939 6.10932C1.8742 5.75881 1.78121 5.09749 2.13186 4.63216L5.30594 0.420155C5.65644 -0.0451749 6.31791 -0.138158 6.7831 0.212487C7.24829 0.563133 7.34127 1.22446 6.99063 1.68979L3.81669 5.90179Z" fill="#236EFF"/>
<path d="M6.12965 8.96255C5.35007 8.37512 4.76484 7.64568 4.39881 6.87764L8.09206 1.97656C8.93124 2.11679 9.79364 2.47815 10.5734 3.06572C11.3529 3.65315 11.9382 4.3826 12.3042 5.1505L8.61095 10.0519C7.77177 9.91162 6.90937 9.55012 6.12965 8.96255Z" fill="#236EFF"/>
<path d="M4.70691 9.10156C4.95248 9.35181 5.21111 9.59175 5.49624 9.8067C5.78151 10.0215 6.08353 10.204 6.3916 10.3712L5.70391 11.2839L4.01908 10.0144L4.70691 9.10156Z" fill="#236EFF"/>
<path d="M3.38694 10.8633L5.07178 12.1328L1.89769 16.3449C1.54704 16.8103 0.885718 16.9031 0.420525 16.5526C-0.0448065 16.202 -0.137653 15.5406 0.212856 15.0753L3.38694 10.8633Z" fill="#236EFF"/>
</g>
<defs>
<clipPath id="clip0">
<rect width="17.9994" height="17.9999" fill="white" transform="matrix(-1 0 0 1 18 0)"/>
</clipPath>
</defs>
</svg>
