<svg width="14" height="14" viewBox="0 0 14 14" fill="none" xmlns="http://www.w3.org/2000/svg">
<path d="M13.4124 13.1759L11.9261 4.88335C11.8662 4.5495 11.5758 4.30649 11.2366 4.30649H8.76461C9.22809 3.84997 9.51612 3.21576 9.51612 2.51534C9.51612 1.12836 8.38776 0 7.00078 0C5.61381 0 4.4854 1.12836 4.4854 2.51534C4.4854 3.21576 4.77343 3.84997 5.23691 4.30649H2.76495C2.42574 4.30649 2.13533 4.5495 2.07546 4.88335L0.58911 13.1759C0.552546 13.3801 0.608256 13.5899 0.741392 13.749C0.874481 13.9081 1.07122 14 1.27861 14H12.7229C12.9303 14 13.127 13.9081 13.2601 13.749C13.3932 13.5899 13.449 13.3801 13.4124 13.1759ZM7.00078 1.40094C7.61528 1.40094 8.11519 1.90084 8.11519 2.51534C8.11519 3.12984 7.61528 3.62979 7.00078 3.62979C6.38629 3.62979 5.88634 3.12984 5.88634 2.51534C5.88634 1.90084 6.38629 1.40094 7.00078 1.40094ZM6.81773 10.8398C6.78126 10.9071 6.71084 10.9489 6.63435 10.9489H6.30391C6.22985 10.9489 6.1613 10.9097 6.12385 10.8457L5.30607 9.44971L4.7831 9.98356V10.6264C4.7831 10.8046 4.63871 10.9489 4.4606 10.9489C4.2825 10.9489 4.13811 10.8046 4.13811 10.6264V8.07688C4.13811 7.89877 4.2825 7.75438 4.4606 7.75438C4.63871 7.75438 4.7831 7.89877 4.7831 8.07688V9.17293L6.02428 7.82186C6.06379 7.77885 6.11955 7.75438 6.17792 7.75438H6.46152C6.54529 7.75438 6.6209 7.80444 6.65363 7.88154C6.68632 7.95864 6.66974 8.04783 6.61156 8.10803L5.75063 8.99856L6.80928 10.6265C6.85098 10.6907 6.85425 10.7725 6.81773 10.8398ZM9.9952 10.4144C9.9952 10.4778 9.96624 10.538 9.9167 10.5776C9.788 10.6803 9.61844 10.7725 9.40802 10.8541C9.15155 10.9536 8.89187 11.0033 8.62896 11.0033C8.29479 11.0033 8.00362 10.9333 7.7551 10.7931C7.50676 10.6529 7.32001 10.4524 7.1951 10.1916C7.07013 9.93088 7.0077 9.64728 7.0077 9.34071C7.0077 9.00808 7.07742 8.71239 7.2169 8.45387C7.35634 8.19526 7.56046 7.99703 7.82925 7.85894C8.03398 7.75293 8.28899 7.69984 8.59407 7.69984C8.99068 7.69984 9.30043 7.78305 9.52346 7.94939C9.62007 8.02145 9.70175 8.10546 9.76848 8.20138C9.83227 8.29304 9.8452 8.41077 9.8029 8.51406C9.76059 8.61741 9.66883 8.69236 9.55904 8.7129L9.55829 8.71304C9.42969 8.73709 9.2993 8.68012 9.22968 8.56936C9.18513 8.49847 9.1283 8.43781 9.05932 8.38733C8.93506 8.29655 8.77998 8.25115 8.59407 8.25115C8.3122 8.25115 8.0881 8.34054 7.92186 8.51915C7.75552 8.69791 7.67235 8.96302 7.67235 9.31456C7.67235 9.69375 7.75655 9.97809 7.92512 10.1677C8.09361 10.3572 8.3144 10.452 8.58758 10.452C8.72263 10.452 8.8581 10.4256 8.99395 10.3725C9.1297 10.3195 9.2463 10.2552 9.34367 10.1797V9.7743H8.87412C8.72548 9.7743 8.60505 9.65382 8.60505 9.50523C8.60505 9.35659 8.72553 9.23616 8.87412 9.23616H9.78655C9.9018 9.23616 9.9952 9.3296 9.9952 9.4448V10.4144Z" fill="#236EFF"/>
</svg>
