<svg width="21" height="21" viewBox="0 0 21 21" fill="none" xmlns="http://www.w3.org/2000/svg">
<g clip-path="url(#clip0)">
<path d="M12.0868 10.2952C12.314 9.97656 12.4482 9.58728 12.4482 9.16699C12.4482 8.09275 11.5742 7.21875 10.5 7.21875C9.42576 7.21875 8.55176 8.09275 8.55176 9.16699C8.55176 9.58728 8.686 9.9766 8.91319 10.2952C7.90375 10.8554 7.21875 11.932 7.21875 13.166V13.7812H13.7812V13.166C13.7812 11.932 13.0962 10.8554 12.0868 10.2952ZM9.78223 9.16699C9.78223 8.77123 10.1042 8.44922 10.5 8.44922C10.8958 8.44922 11.2178 8.77123 11.2178 9.16699C11.2178 9.56275 10.8958 9.88477 10.5 9.88477C10.1042 9.88477 9.78223 9.56275 9.78223 9.16699ZM8.54347 12.5508C8.8054 11.7196 9.58342 11.1152 10.5 11.1152C11.4166 11.1152 12.1946 11.7196 12.4565 12.5508H8.54347Z" fill="#236EFF"/>
<path d="M17.7626 12.999L17.9959 14.1172L16.4884 13.2469C16.8737 12.4102 17.0891 11.4798 17.0891 10.5C17.0891 9.5201 16.8737 8.5897 16.4884 7.75306L17.9959 6.88271L17.7626 8.00096L18.9672 8.25222L19.5935 5.25L16.6803 4.29126L16.2956 5.46004L17.3807 5.81716L15.8718 6.68834C14.7885 5.16612 13.0751 4.12248 11.1155 3.94013V2.19991L11.9673 2.96108L12.7871 2.04356L10.5002 0L8.21332 2.04356L9.03318 2.96108L9.88499 2.19991V3.94013C7.92539 4.12248 6.21192 5.16612 5.12866 6.68829L3.61978 5.81712L4.70484 5.46L4.3202 4.29122L1.40698 5.25L2.03329 8.2523L3.23784 8.00104L3.00454 6.88279L4.51203 7.75314C4.12673 8.58974 3.9114 9.52014 3.9114 10.5C3.9114 11.4799 4.12673 12.4103 4.51203 13.2469L3.00454 14.1172L3.23784 12.999L2.03329 12.7477L1.40698 15.75L4.3202 16.7087L4.70484 15.54L3.61978 15.1828L5.12866 14.3117C6.21196 15.8338 7.92539 16.8775 9.88499 17.0598V18.8L9.03318 18.0389L8.21332 18.9564L10.5002 21L12.7871 18.9564L11.9673 18.0389L11.1155 18.8001V17.0599C13.0751 16.8775 14.7885 15.8339 15.8718 14.3117L17.3807 15.1829L16.2956 15.54L16.6803 16.7088L19.5935 15.75L18.9672 12.7477L17.7626 12.999ZM11.0318 15.832H9.96867C8.39153 15.676 7.01324 14.8333 6.13768 13.608L5.61867 12.709C5.31249 12.0351 5.14186 11.2871 5.14186 10.5C5.14186 9.71287 5.31253 8.96491 5.61867 8.29098L6.13768 7.39204C7.0132 6.16662 8.39149 5.32399 9.96867 5.16797H11.0318C12.6089 5.32399 13.9872 6.16666 14.8628 7.39204L15.3818 8.29098C15.688 8.96487 15.8586 9.71287 15.8586 10.5C15.8586 11.2871 15.6879 12.0351 15.3818 12.709L14.8628 13.608C13.9873 14.8333 12.6089 15.676 11.0318 15.832Z" fill="#236EFF"/>
</g>
<defs>
<clipPath id="clip0">
<rect width="21" height="21" fill="white"/>
</clipPath>
</defs>
</svg>
