<svg width="18" height="18" viewBox="0 0 18 18" fill="none" xmlns="http://www.w3.org/2000/svg">
<g clip-path="url(#clip0)">
<path d="M0 16.4998H10.5V17.9998H0V16.4998Z" fill="#236EFF"/>
<path d="M9 14.9878C9 14.7889 8.92098 14.5981 8.78033 14.4575C8.63968 14.3168 8.44891 14.2378 8.25 14.2378H2.25C2.05109 14.2378 1.86032 14.3168 1.71967 14.4575C1.57902 14.5981 1.5 14.7889 1.5 14.9878V15.75H9V14.9878Z" fill="#236EFF"/>
<path d="M10.2045 8.85586C9.85507 9.2283 9.56203 9.6499 9.33472 10.1072L15.508 16.2805C15.6486 16.4211 15.8393 16.5001 16.0382 16.5001C16.2371 16.5001 16.4278 16.4211 16.5685 16.2805L17.6292 15.2198C17.6988 15.1502 17.7541 15.0675 17.7917 14.9765C17.8294 14.8855 17.8488 14.7879 17.8488 14.6895C17.8488 14.591 17.8294 14.4934 17.7917 14.4024C17.7541 14.3114 17.6988 14.2288 17.6292 14.1591L11.4559 7.98755C10.9978 8.21287 10.576 8.50556 10.2045 8.85586Z" fill="#236EFF"/>
<path d="M6.49222 5.14355C5.92505 5.6699 5.26851 6.09081 4.55347 6.38649L8.42984 10.2629C8.72818 9.54906 9.14951 8.89317 9.67465 8.32505C10.2419 7.79873 10.8984 7.37777 11.6134 7.08193L7.73684 3.2063C7.4384 3.91984 7.01715 4.57552 6.49222 5.14355Z" fill="#236EFF"/>
<path d="M9.14275 0.371408L8.08225 1.43191C7.7894 1.72476 7.7894 2.19956 8.08225 2.49241L12.3242 6.73441C12.6171 7.02726 13.0919 7.02726 13.3847 6.73441L14.4452 5.67391C14.7381 5.38106 14.7381 4.90626 14.4452 4.61341L10.2033 0.371408C9.9104 0.0785595 9.4356 0.0785595 9.14275 0.371408Z" fill="#236EFF"/>
<path d="M2.77898 6.7342L1.71848 7.7947C1.42563 8.08755 1.42563 8.56235 1.71848 8.8552L5.96048 13.0972C6.25333 13.39 6.72813 13.39 7.02098 13.0972L8.08148 12.0367C8.37433 11.7439 8.37433 11.269 8.08148 10.9762L3.83948 6.7342C3.54663 6.44135 3.07183 6.44135 2.77898 6.7342Z" fill="#236EFF"/>
</g>
<defs>
<clipPath id="clip0">
<rect width="18" height="18" fill="white"/>
</clipPath>
</defs>
</svg>
