<svg width="18" height="18" viewBox="0 0 18 18" fill="none" xmlns="http://www.w3.org/2000/svg">
<path d="M14.2495 5.40112L14.2495 17.1607H17.9997L17.9997 5.40112H14.2495ZM15.5866 7.56569H16.6413V8.62038H15.5866V7.56569ZM16.6413 13.3813H15.5866V12.3266H16.6413V13.3813ZM16.6559 11.0008H15.6012V9.94612H16.6559V11.0008Z" fill="#236EFF"/>
<path d="M14.2571 2.65527H17.9995V4.34622H14.2571V2.65527Z" fill="#236EFF"/>
<path d="M7.03125e-05 1.6687L0 17.16L3.76762 17.16L3.7677 2.7404L7.03125e-05 1.6687ZM1.35541 5.18788H2.4101V6.24257H1.35541V5.18788ZM2.41119 13.3839H1.3565V12.3292H2.41119V13.3839ZM2.41119 11.0035H1.3565V9.94877H2.41119V11.0035ZM2.41791 8.62299H1.36322V7.56831H2.41791V8.62299Z" fill="#236EFF"/>
<path d="M7.41797 14.26H8.47266V17.1604H7.41797V14.26Z" fill="#236EFF"/>
<path d="M9.52734 14.26H10.582V17.1604H9.52734V14.26Z" fill="#236EFF"/>
<path d="M4.92017 0.840332V17.1602H6.36263V13.2051H11.6361V17.1602H13.1935V0.840332H4.92017ZM7.41731 11.6231H6.36263V9.3819H7.41731V11.6231ZM7.41731 8.32721H6.36263V6.086H7.41731V8.32721ZM7.41731 5.03131H6.36263V2.7901H7.41731V5.03131ZM9.52669 11.6231H8.472V9.3819H9.52669V11.6231ZM9.52669 8.32721H8.472V6.086H9.52669V8.32721ZM9.52669 5.03131H8.472V2.7901H9.52669V5.03131ZM11.6361 11.6231H10.5814V9.3819H11.6361V11.6231ZM11.6361 8.32721H10.5814V6.086H11.6361V8.32721ZM11.6361 5.03131H10.5814V2.7901H11.6361V5.03131Z" fill="#236EFF"/>
</svg>
