<svg width="18" height="18" viewBox="0 0 18 18" fill="none" xmlns="http://www.w3.org/2000/svg">
<path d="M17.9929 12.7275V9.7064C17.9929 9.25645 17.8646 8.8065 17.6715 8.42083L15.7482 5.14263C15.5553 4.75696 15.1054 4.49985 14.6555 4.49985H11.763C11.3131 4.49985 10.9273 4.88552 10.9273 5.33547V12.2133H10.2845V3.21428C10.2845 2.50722 9.70612 1.92871 8.99898 1.92871H0V13.4988H1.92835C2.24974 12.4061 3.21392 11.5705 4.43513 11.5705C5.6565 11.5705 6.68487 12.4061 6.94207 13.4988H11.6344C11.9558 12.4061 12.92 11.5705 14.1412 11.5705C15.1697 11.5705 16.0052 12.149 16.391 12.9846C16.5838 13.306 16.9004 13.4988 17.2218 13.4988C17.6715 13.4988 18.0573 13.1132 17.9929 12.7275ZM12.2129 8.99933V5.78541H14.784L16.648 8.99933H12.2129Z" fill="#236EFF"/>
<path d="M14.1408 12.2141C13.0481 12.2141 12.2124 13.0497 12.2124 14.1425C12.2124 15.2352 13.0481 16.0708 14.1408 16.0708C15.2334 16.0708 16.0691 15.2352 16.0691 14.1425C16.0691 13.0497 15.2334 12.2141 14.1408 12.2141ZM14.1408 15.0424C13.6265 15.0424 13.2409 14.6567 13.2409 14.1425C13.2409 13.6282 13.6265 13.2426 14.1408 13.2426C14.655 13.2426 15.0406 13.6282 15.0406 14.1425C15.0406 14.6567 14.655 15.0424 14.1408 15.0424Z" fill="#236EFF"/>
<path d="M4.4994 12.2141C3.4067 12.2141 2.57104 13.0497 2.57104 14.1425C2.57104 15.2352 3.4067 16.0708 4.4994 16.0708C5.59209 16.0708 6.42775 15.2352 6.42775 14.1425C6.42775 13.0497 5.59209 12.2141 4.4994 12.2141ZM4.4994 15.0424C3.98513 15.0424 3.59958 14.6567 3.59958 14.1425C3.59958 13.6282 3.98517 13.2426 4.4994 13.2426C5.01362 13.2426 5.39921 13.6282 5.39921 14.1425C5.39921 14.6567 5.01366 15.0424 4.4994 15.0424Z" fill="#236EFF"/>
<path d="M4.49962 14.4641C4.67712 14.4641 4.82101 14.3202 4.82101 14.1427C4.82101 13.9652 4.67712 13.8213 4.49962 13.8213C4.32212 13.8213 4.17822 13.9652 4.17822 14.1427C4.17822 14.3202 4.32212 14.4641 4.49962 14.4641Z" fill="#236EFF"/>
<path d="M14.141 14.4641C14.3185 14.4641 14.4624 14.3202 14.4624 14.1427C14.4624 13.9652 14.3185 13.8213 14.141 13.8213C13.9635 13.8213 13.8196 13.9652 13.8196 14.1427C13.8196 14.3202 13.9635 14.4641 14.141 14.4641Z" fill="#236EFF"/>
</svg>
