<svg width="32" height="32" viewBox="0 0 32 32" fill="none" xmlns="http://www.w3.org/2000/svg">
<path d="M12.5186 18.4766L12.5186 18.4766C12.5016 18.3731 12.4484 18.2791 12.3685 18.2113C12.2886 18.1435 12.1873 18.1062 12.0825 18.1063C12.0824 18.1063 12.0824 18.1063 12.0824 18.1063L3.46083 18.1063C3.13576 18.1063 2.82401 18.2354 2.59415 18.4652C2.36429 18.6951 2.23516 19.0069 2.23516 19.3319V28.3454C2.23516 28.6705 2.36429 28.9823 2.59415 29.2121C2.82401 29.442 3.13576 29.5711 3.46083 29.5711H28.5419C28.867 29.5711 29.1787 29.442 29.4086 29.2121C29.6385 28.9823 29.7676 28.6705 29.7676 28.3454V19.3319C29.7676 19.0069 29.6385 18.6951 29.4086 18.4652C29.1787 18.2354 28.867 18.1063 28.5419 18.1063L19.9203 18.1063C19.8155 18.1062 19.7141 18.1435 19.6342 18.2113C19.5543 18.2791 19.5011 18.3731 19.4842 18.4766L19.2238 20.0657H12.779L12.5186 18.4766ZM3.21908 19.0902C3.28319 19.0261 3.37016 18.99 3.46083 18.99H11.7069L11.9677 20.5792L12.017 20.5711L11.9677 20.5792C11.9846 20.6826 12.0378 20.7766 12.1177 20.8445C12.1976 20.9123 12.299 20.9495 12.4038 20.9495H19.5989C19.7037 20.9495 19.8051 20.9123 19.885 20.8445C19.9649 20.7766 20.0181 20.6826 20.0351 20.5792L20.2959 18.99H28.5419C28.6326 18.99 28.7195 19.0261 28.7837 19.0902C28.8478 19.1543 28.8838 19.2412 28.8838 19.3319V28.3454C28.8838 28.4361 28.8478 28.5231 28.7837 28.5872C28.7195 28.6513 28.6326 28.6873 28.5419 28.6873H3.46083C3.37016 28.6873 3.2832 28.6513 3.21908 28.5872C3.15496 28.5231 3.11894 28.4361 3.11894 28.3454V19.3319C3.11894 19.2412 3.15496 19.1543 3.21908 19.0902Z" fill="white" stroke="white" stroke-width="0.1"/>
<path d="M12.4739 25.2596H19.528C19.6452 25.2596 19.7576 25.213 19.8404 25.1301C19.9233 25.0473 19.9699 24.9349 19.9699 24.8177C19.9699 24.7005 19.9233 24.5881 19.8404 24.5052C19.7576 24.4223 19.6452 24.3758 19.528 24.3758H12.4739C12.3567 24.3758 12.2443 24.4223 12.1615 24.5052C12.0786 24.5881 12.032 24.7005 12.032 24.8177C12.032 24.9349 12.0786 25.0473 12.1615 25.1301C12.2443 25.213 12.3567 25.2596 12.4739 25.2596Z" fill="white" stroke="white" stroke-width="0.1"/>
<path d="M19.2161 26.2326C19.299 26.3154 19.4114 26.362 19.5286 26.362C19.6458 26.362 19.7582 26.3154 19.8411 26.2326C19.9239 26.1497 19.9705 26.0373 19.9705 25.9201V23.7161C19.9705 23.5989 19.9239 23.4865 19.8411 23.4036C19.7582 23.3208 19.6458 23.2742 19.5286 23.2742C19.4114 23.2742 19.299 23.3208 19.2161 23.4036C19.1333 23.4865 19.0867 23.5989 19.0867 23.7161V25.9201C19.0867 26.0373 19.1333 26.1497 19.2161 26.2326Z" fill="white" stroke="white" stroke-width="0.1"/>
<path d="M12.1615 26.2326C12.2443 26.3154 12.3567 26.362 12.4739 26.362C12.5911 26.362 12.7035 26.3154 12.7864 26.2326C12.8693 26.1497 12.9158 26.0373 12.9158 25.9201V23.7161C12.9158 23.5989 12.8693 23.4865 12.7864 23.4036C12.7035 23.3208 12.5911 23.2742 12.4739 23.2742C12.3567 23.2742 12.2443 23.3208 12.1615 23.4036C12.0786 23.4865 12.032 23.5989 12.032 23.7161V25.9201C12.032 26.0373 12.0786 26.1497 12.1615 26.2326Z" fill="white" stroke="white" stroke-width="0.1"/>
<path d="M6.8416 18.5456V5.27128H18.7573L23.2011 9.71505V18.5456C23.2011 18.6628 23.2476 18.7752 23.3305 18.8581C23.4134 18.9409 23.5258 18.9875 23.643 18.9875C23.7601 18.9875 23.8725 18.9409 23.9554 18.8581C24.0383 18.7752 24.0848 18.6628 24.0848 18.5456V9.53209C24.0848 9.4149 24.0382 9.30252 23.9554 9.21967L19.2527 4.51697C19.2527 4.51697 19.2527 4.51697 19.2527 4.51697C19.1698 4.4341 19.0574 4.38753 18.9403 4.3875H6.3997C6.28251 4.3875 6.17011 4.43406 6.08724 4.51693C6.00437 4.5998 5.95781 4.71219 5.95781 4.82939V18.5456C5.95781 18.6628 6.00437 18.7752 6.08724 18.8581C6.17011 18.9409 6.28251 18.9875 6.3997 18.9875C6.5169 18.9875 6.6293 18.9409 6.71217 18.8581C6.79504 18.7752 6.8416 18.6628 6.8416 18.5456Z" fill="white" stroke="white" stroke-width="0.1"/>
<path d="M8.79863 3.31425H20.7143L25.1581 7.75802V18.548C25.1581 18.6652 25.2046 18.7776 25.2875 18.8605C25.3704 18.9434 25.4828 18.9899 25.6 18.9899C25.7172 18.9899 25.8296 18.9434 25.9124 18.8605C25.9953 18.7776 26.0419 18.6652 26.0419 18.548V7.57506C26.0418 7.45787 25.9953 7.34549 25.9124 7.26264L21.2097 2.55994C21.2097 2.55994 21.2097 2.55994 21.2097 2.55994C21.1268 2.47706 21.0145 2.43049 20.8973 2.43047H8.35674C8.23954 2.43047 8.12714 2.47703 8.04427 2.5599C7.9614 2.64277 7.91484 2.75516 7.91484 2.87236V4.83182C7.91484 4.94902 7.9614 5.06141 8.04427 5.14428C8.12714 5.22716 8.23954 5.27371 8.35674 5.27371C8.47393 5.27371 8.58633 5.22716 8.6692 5.14428C8.75207 5.06141 8.79863 4.94902 8.79863 4.83182V3.31425Z" fill="white" stroke="white" stroke-width="0.1"/>
<path d="M18.9388 9.97399H23.6415C23.7587 9.97399 23.8711 9.92743 23.9539 9.84456C24.0368 9.76169 24.0834 9.64929 24.0834 9.53209C24.0834 9.4149 24.0368 9.3025 23.9539 9.21963C23.8711 9.13676 23.7587 9.0902 23.6415 9.0902H19.3807V4.82939C19.3807 4.71219 19.3341 4.5998 19.2512 4.51693C19.1684 4.43406 19.056 4.3875 18.9388 4.3875C18.8216 4.3875 18.7092 4.43406 18.6263 4.51693C18.5434 4.5998 18.4969 4.71219 18.4969 4.82939V9.53209C18.4969 9.64929 18.5434 9.76169 18.6263 9.84456C18.7092 9.92743 18.8216 9.97399 18.9388 9.97399Z" fill="white" stroke="white" stroke-width="0.1"/>
<path d="M8.84892 8.79863H16.2949C16.4121 8.79863 16.5245 8.75207 16.6073 8.6692C16.6902 8.58633 16.7368 8.47393 16.7368 8.35674C16.7368 8.23954 16.6902 8.12714 16.6073 8.04427C16.5245 7.9614 16.4121 7.91484 16.2949 7.91484H8.84892C8.73173 7.91484 8.61933 7.9614 8.53646 8.04427C8.45359 8.12714 8.40703 8.23954 8.40703 8.35674C8.40703 8.47393 8.45359 8.58633 8.53646 8.6692C8.61933 8.75207 8.73173 8.79863 8.84892 8.79863Z" fill="white" stroke="white" stroke-width="0.1"/>
<path d="M8.84892 11.9353H21.1935C21.3107 11.9353 21.4231 11.8888 21.506 11.8059C21.5889 11.723 21.6354 11.6106 21.6354 11.4935C21.6354 11.3763 21.5889 11.2639 21.506 11.181C21.4231 11.0981 21.3107 11.0516 21.1935 11.0516H8.84892C8.73173 11.0516 8.61933 11.0981 8.53646 11.181C8.45359 11.2639 8.40703 11.3763 8.40703 11.4935C8.40703 11.6106 8.45359 11.723 8.53646 11.8059C8.61933 11.8888 8.73173 11.9353 8.84892 11.9353Z" fill="white" stroke="white" stroke-width="0.1"/>
<path d="M8.84892 15.0721H21.1935C21.3107 15.0721 21.4231 15.0255 21.506 14.9426C21.5889 14.8598 21.6354 14.7474 21.6354 14.6302C21.6354 14.513 21.5889 14.4006 21.506 14.3177C21.4231 14.2348 21.3107 14.1883 21.1935 14.1883H8.84892C8.73173 14.1883 8.61933 14.2348 8.53646 14.3177C8.45359 14.4006 8.40703 14.513 8.40703 14.6302C8.40703 14.7474 8.45359 14.8598 8.53646 14.9426C8.61933 15.0255 8.73173 15.0721 8.84892 15.0721Z" fill="white" stroke="white" stroke-width="0.1"/>
</svg>
