<svg width="28" height="28" viewBox="0 0 28 28" fill="none" xmlns="http://www.w3.org/2000/svg">
<path d="M21.875 20.125C21.6154 20.125 21.3617 20.202 21.1458 20.3462C20.93 20.4904 20.7617 20.6954 20.6624 20.9352C20.5631 21.1751 20.5371 21.439 20.5877 21.6936C20.6384 21.9482 20.7634 22.182 20.9469 22.3656C21.1305 22.5491 21.3643 22.6741 21.6189 22.7248C21.8735 22.7754 22.1374 22.7494 22.3773 22.6501C22.6171 22.5508 22.8221 22.3825 22.9663 22.1667C23.1105 21.9509 23.1875 21.6971 23.1875 21.4375C23.1871 21.0895 23.0487 20.7559 22.8027 20.5099C22.5566 20.2638 22.223 20.1254 21.875 20.125ZM21.875 21.875C21.7885 21.875 21.7039 21.8493 21.6319 21.8013C21.56 21.7532 21.5039 21.6849 21.4708 21.6049C21.4377 21.525 21.429 21.437 21.4459 21.3522C21.4628 21.2673 21.5045 21.1893 21.5656 21.1281C21.6268 21.067 21.7048 21.0253 21.7897 21.0084C21.8745 20.9915 21.9625 21.0002 22.0424 21.0333C22.1224 21.0664 22.1907 21.1225 22.2388 21.1944C22.2868 21.2664 22.3125 21.351 22.3125 21.4375C22.3124 21.5535 22.2662 21.6647 22.1842 21.7467C22.1022 21.8287 21.991 21.8749 21.875 21.875Z" fill="white"/>
<path d="M6.125 22.75C6.38459 22.75 6.63834 22.673 6.85418 22.5288C7.07002 22.3846 7.23825 22.1796 7.33759 21.9398C7.43693 21.6999 7.46292 21.436 7.41228 21.1814C7.36163 20.9268 7.23663 20.693 7.05307 20.5094C6.86952 20.3259 6.63565 20.2009 6.38105 20.1502C6.12645 20.0996 5.86255 20.1256 5.62273 20.2249C5.3829 20.3242 5.17792 20.4925 5.0337 20.7083C4.88948 20.9242 4.8125 21.1779 4.8125 21.4375C4.81289 21.7855 4.9513 22.1191 5.19735 22.3652C5.44341 22.6112 5.77702 22.7496 6.125 22.75ZM6.125 21C6.21153 21 6.29611 21.0257 6.36806 21.0737C6.44001 21.1218 6.49608 21.1901 6.52919 21.2701C6.56231 21.35 6.57097 21.438 6.55409 21.5229C6.53721 21.6077 6.49554 21.6857 6.43436 21.7469C6.37317 21.8081 6.29522 21.8497 6.21035 21.8666C6.12548 21.8835 6.03752 21.8748 5.95757 21.8417C5.87763 21.8086 5.8093 21.7525 5.76123 21.6806C5.71316 21.6086 5.6875 21.524 5.6875 21.4375C5.68763 21.3215 5.73376 21.2103 5.81578 21.1283C5.8978 21.0463 6.00901 21.0001 6.125 21Z" fill="white"/>
<path d="M27.0676 15.0954L23.5676 8.97038C23.5292 8.90346 23.4739 8.84785 23.4071 8.80916C23.3404 8.77046 23.2646 8.75005 23.1875 8.74999H18.375V5.68749C18.375 5.57146 18.3289 5.46018 18.2469 5.37813C18.1648 5.29608 18.0535 5.24999 17.9375 5.24999H13.7244C13.1945 4.69678 12.5581 4.25655 11.8535 3.95579C11.1489 3.65504 10.3908 3.5 9.62473 3.5C8.85866 3.5 8.10052 3.65504 7.39596 3.95579C6.6914 4.25655 6.055 4.69678 5.52508 5.24999H1.3125C1.19647 5.24999 1.08519 5.29608 1.00314 5.37813C0.921094 5.46018 0.875 5.57146 0.875 5.68749V21.4375C0.875 21.5535 0.921094 21.6648 1.00314 21.7468C1.08519 21.8289 1.19647 21.875 1.3125 21.875H3.53719C3.59745 22.229 3.72961 22.567 3.92553 22.868C4.12146 23.1689 4.37698 23.4266 4.67633 23.625H0.875C0.758968 23.625 0.647688 23.6711 0.565641 23.7531C0.483594 23.8352 0.4375 23.9465 0.4375 24.0625C0.4375 24.1785 0.483594 24.2898 0.565641 24.3718C0.647688 24.4539 0.758968 24.5 0.875 24.5H25.3203C25.4363 24.5 25.5476 24.4539 25.6297 24.3718C25.7117 24.2898 25.7578 24.1785 25.7578 24.0625C25.7578 23.9465 25.7117 23.8352 25.6297 23.7531C25.5476 23.6711 25.4363 23.625 25.3203 23.625H23.3237C23.623 23.4266 23.8785 23.1689 24.0745 22.868C24.2704 22.567 24.4026 22.229 24.4628 21.875H26.6875C26.8035 21.875 26.9148 21.8289 26.9969 21.7468C27.0789 21.6648 27.125 21.5535 27.125 21.4375V15.3125C27.125 15.2364 27.1052 15.1615 27.0676 15.0954ZM23.6835 10.9375L25.9334 14.875H20.5625V10.9375H23.6835ZM5.96969 6.06046C6.04225 6.01617 6.10038 5.95177 6.13703 5.87507C7.00878 4.95832 8.20655 4.42184 9.47098 4.38181C10.7354 4.34178 11.9647 4.80142 12.8927 5.66119C13.8207 6.52097 14.3727 7.71168 14.4291 8.97548C14.4855 10.2393 14.0419 11.4744 13.1942 12.4135C12.3466 13.3526 11.1631 13.92 9.90018 13.9928C8.63722 14.0656 7.3964 13.6381 6.4464 12.8027C5.49641 11.9673 4.91371 10.7913 4.82448 9.5294C4.73526 8.26749 5.14669 7.02122 5.96969 6.06046ZM1.75 6.12499H4.83437C4.28439 6.98447 3.97576 7.97608 3.94083 8.99586C3.90591 10.0156 4.14597 11.026 4.63586 11.9211C5.12576 12.8162 5.84743 13.563 6.72523 14.0833C7.60303 14.6035 8.60462 14.878 9.625 14.878C10.6454 14.878 11.647 14.6035 12.5248 14.0833C13.4026 13.563 14.1242 12.8162 14.6141 11.9211C15.104 11.026 15.3441 10.0156 15.3092 8.99586C15.2742 7.97608 14.9656 6.98447 14.4156 6.12499H17.5V17.5H1.75V6.12499ZM3.53719 21H1.75V18.375H17.5V21H8.71281C8.60953 20.3884 8.29295 19.8331 7.81923 19.4327C7.34551 19.0322 6.74528 18.8125 6.125 18.8125C5.50472 18.8125 4.90449 19.0322 4.43077 19.4327C3.95705 19.8331 3.64047 20.3884 3.53719 21ZM6.125 23.1875C5.77888 23.1875 5.44054 23.0849 5.15275 22.8926C4.86497 22.7003 4.64066 22.427 4.50821 22.1072C4.37576 21.7874 4.3411 21.4355 4.40863 21.0961C4.47615 20.7566 4.64282 20.4448 4.88756 20.2001C5.13231 19.9553 5.44413 19.7886 5.78359 19.7211C6.12306 19.6536 6.47493 19.6882 6.7947 19.8207C7.11447 19.9532 7.38778 20.1775 7.58007 20.4652C7.77236 20.753 7.875 21.0914 7.875 21.4375C7.87448 21.9015 7.68994 22.3463 7.36186 22.6744C7.03379 23.0024 6.58897 23.187 6.125 23.1875ZM7.57367 23.625C7.87302 23.4266 8.12854 23.1689 8.32447 22.868C8.52039 22.567 8.65255 22.229 8.71281 21.875H19.2872C19.3474 22.229 19.4796 22.567 19.6755 22.868C19.8715 23.1689 20.127 23.4266 20.4263 23.625H7.57367ZM21.875 23.1875C21.5289 23.1875 21.1905 23.0849 20.9028 22.8926C20.615 22.7003 20.3907 22.427 20.2582 22.1072C20.1258 21.7874 20.0911 21.4355 20.1586 21.0961C20.2262 20.7566 20.3928 20.4448 20.6376 20.2001C20.8823 19.9553 21.1941 19.7886 21.5336 19.7211C21.8731 19.6536 22.2249 19.6882 22.5447 19.8207C22.8645 19.9532 23.1378 20.1775 23.3301 20.4652C23.5224 20.753 23.625 21.0914 23.625 21.4375C23.6245 21.9015 23.4399 22.3463 23.1119 22.6744C22.7838 23.0024 22.339 23.187 21.875 23.1875ZM26.25 17.9375H25.375C25.259 17.9375 25.1477 17.8914 25.0656 17.8093C24.9836 17.7273 24.9375 17.616 24.9375 17.5C24.9375 17.384 24.9836 17.2727 25.0656 17.1906C25.1477 17.1086 25.259 17.0625 25.375 17.0625H26.25V17.9375ZM26.25 16.1875H25.375C25.0269 16.1875 24.6931 16.3258 24.4469 16.5719C24.2008 16.8181 24.0625 17.1519 24.0625 17.5C24.0625 17.8481 24.2008 18.1819 24.4469 18.4281C24.6931 18.6742 25.0269 18.8125 25.375 18.8125H26.25V21H24.4628C24.3595 20.3884 24.0429 19.8331 23.5692 19.4327C23.0955 19.0322 22.4953 18.8125 21.875 18.8125C21.2547 18.8125 20.6545 19.0322 20.1808 19.4327C19.7071 19.8331 19.3905 20.3884 19.2872 21H18.375V9.62499H22.9338L23.1837 10.0625H20.125C20.009 10.0625 19.8977 10.1086 19.8156 10.1906C19.7336 10.2727 19.6875 10.384 19.6875 10.5V15.3125C19.6875 15.4285 19.7336 15.5398 19.8156 15.6218C19.8977 15.7039 20.009 15.75 20.125 15.75H26.25V16.1875Z" fill="white"/>
<path d="M27.0703 23.625H26.6328C26.5168 23.625 26.4055 23.6711 26.3235 23.7531C26.2414 23.8352 26.1953 23.9465 26.1953 24.0625C26.1953 24.1785 26.2414 24.2898 26.3235 24.3719C26.4055 24.4539 26.5168 24.5 26.6328 24.5H27.0703C27.1863 24.5 27.2976 24.4539 27.3797 24.3719C27.4617 24.2898 27.5078 24.1785 27.5078 24.0625C27.5078 23.9465 27.4617 23.8352 27.3797 23.7531C27.2976 23.6711 27.1863 23.625 27.0703 23.625Z" fill="white"/>
<path d="M6.7375 10.85L8.4875 12.1625C8.57577 12.2287 8.6858 12.2591 8.79554 12.2476C8.90527 12.2362 9.00662 12.1836 9.07928 12.1006L12.1418 8.60061C12.2182 8.51328 12.2568 8.39918 12.2491 8.2834C12.2413 8.16762 12.1879 8.05965 12.1006 7.98324C12.0133 7.90683 11.8992 7.86825 11.7834 7.87597C11.6676 7.88369 11.5596 7.93709 11.4832 8.02442L8.68793 11.219L7.2625 10.15C7.16968 10.0804 7.053 10.0505 6.93813 10.0669C6.82326 10.0833 6.71962 10.1447 6.65 10.2375C6.58038 10.3303 6.55049 10.447 6.5669 10.5619C6.58331 10.6768 6.64468 10.7804 6.7375 10.85Z" fill="white"/>
</svg>
