<svg width="28" height="28" viewBox="0 0 28 28" fill="none" xmlns="http://www.w3.org/2000/svg">
<path d="M16.3549 8.8285C16.3479 8.74433 16.3095 8.66587 16.2473 8.60868C16.1852 8.55149 16.1038 8.51974 16.0193 8.51974H15.3458V8.0146C15.3454 7.70211 15.2211 7.40252 15.0002 7.18155C14.7792 6.96059 14.4796 6.83629 14.1671 6.83594H13.8304C13.5179 6.83629 13.2183 6.96059 12.9973 7.18155C12.7764 7.40252 12.6521 7.70211 12.6517 8.0146V8.51974H11.9782C11.8937 8.51974 11.8123 8.55149 11.7502 8.60868C11.688 8.66587 11.6496 8.74433 11.6426 8.8285L11.3059 12.8696C11.302 12.916 11.3078 12.9628 11.3229 13.0068C11.338 13.0509 11.3621 13.0913 11.3936 13.1256C11.4252 13.1599 11.4635 13.1873 11.5061 13.206C11.5488 13.2247 11.5949 13.2344 11.6414 13.2344H16.3561C16.4027 13.2344 16.4487 13.2247 16.4914 13.206C16.534 13.1873 16.5724 13.1599 16.6039 13.1256C16.6354 13.0913 16.6595 13.0509 16.6746 13.0068C16.6897 12.9628 16.6955 12.916 16.6917 12.8696L16.3549 8.8285ZM13.3252 8.0146C13.3254 7.88067 13.3786 7.75227 13.4733 7.65757C13.568 7.56287 13.6964 7.5096 13.8304 7.50946H14.1671C14.3011 7.5096 14.4295 7.56287 14.5242 7.65757C14.6189 7.75227 14.6721 7.88067 14.6723 8.0146V8.51974H13.3252V8.0146ZM12.0074 12.5609L12.2881 9.19326H12.6517V9.53002C12.6517 9.61933 12.6872 9.70499 12.7503 9.76814C12.8135 9.8313 12.8992 9.86678 12.9885 9.86678C13.0778 9.86678 13.1634 9.8313 13.2266 9.76814C13.2898 9.70499 13.3252 9.61933 13.3252 9.53002V9.19326H14.6723V9.53002C14.6723 9.61933 14.7078 9.70499 14.7709 9.76814C14.8341 9.8313 14.9197 9.86678 15.009 9.86678C15.0984 9.86678 15.184 9.8313 15.2472 9.76814C15.3103 9.70499 15.3458 9.61933 15.3458 9.53002V9.19326H15.7095L15.9901 12.5609H12.0074Z" fill="white"/>
<path fill-rule="evenodd" clip-rule="evenodd" d="M22.1821 17.9116C22.1821 18.1381 21.9984 18.3217 21.7719 18.3217C21.5454 18.3217 21.3618 18.1381 21.3618 17.9116V2.05078C21.3618 1.37227 20.8099 0.820312 20.1313 0.820312H17.5865V2.03044C17.5865 2.55812 17.1572 2.98747 16.6295 2.98747H11.369C10.8414 2.98747 10.412 2.55812 10.412 2.03044V0.820312H7.86719C7.18868 0.820312 6.63672 1.37227 6.63672 2.05078V25.9492C6.63672 26.6277 7.18868 27.1797 7.86719 27.1797H20.1313C20.8099 27.1797 21.3618 26.6277 21.3618 25.9492V19.8256C21.3618 19.5991 21.5455 19.4155 21.772 19.4155C21.9985 19.4155 22.1821 19.5991 22.1821 19.8256V25.9492C22.1821 27.08 21.2622 28 20.1313 28H7.86719C6.73636 28 5.81641 27.08 5.81641 25.9492V2.05078C5.81641 0.919953 6.73636 0 7.86719 0H20.1313C21.2621 0 22.1821 0.919953 22.1821 2.05078V17.9116ZM16.6295 2.16716C16.7049 2.16716 16.7662 2.1058 16.7662 2.03044V0.820312H11.2323V2.03044C11.2323 2.1058 11.2937 2.16716 11.369 2.16716H16.6295ZM18.7641 21.0719C19.2918 21.0719 19.7211 21.5012 19.7211 22.0289L19.7212 22.8492C19.7212 23.3769 19.2918 23.8062 18.7642 23.8062H9.23437C8.7067 23.8062 8.27734 23.3769 8.27734 22.8492V22.0289C8.27734 21.5012 8.7067 21.0719 9.23437 21.0719H18.7641ZM18.7641 22.9859C18.8395 22.9859 18.9008 22.9246 18.9008 22.8492L18.9009 22.0289C18.9009 21.9535 18.8395 21.8922 18.7642 21.8922H9.23437C9.15902 21.8922 9.09766 21.9535 9.09766 22.0289V22.8492C9.09766 22.9246 9.15902 22.9859 9.23437 22.9859H18.7641ZM9.98299 6.42737C10.1402 6.26423 10.3998 6.25953 10.5629 6.41676C10.726 6.57398 10.7307 6.83364 10.5736 6.99672C9.71453 7.8878 9.24148 9.06035 9.24148 10.2984C9.24148 10.9833 9.38703 11.6349 9.64875 12.2238C10.3714 13.9114 12.0473 15.0938 13.9993 15.0938C15.9519 15.0938 17.6281 13.9107 18.3505 12.2224C18.6118 11.6338 18.7571 10.9828 18.7571 10.2984C18.7571 7.67495 16.6228 5.54061 13.9993 5.54061C13.2966 5.54061 12.6202 5.69007 11.9889 5.98489C11.7837 6.0807 11.5396 5.992 11.4437 5.78676C11.3479 5.58152 11.4366 5.33739 11.6418 5.24158C12.3826 4.89568 13.1758 4.7203 13.9992 4.7203C17.075 4.7203 19.5774 7.22263 19.5774 10.2984C19.5774 13.3792 17.0458 15.8765 13.9992 15.8765C10.9684 15.8765 8.42112 13.3522 8.42112 10.2984C8.42112 8.84685 8.97581 7.47212 9.98299 6.42737ZM8.27734 25.1289C8.27734 24.9024 8.46098 24.7188 8.6875 24.7188H19.311C19.5376 24.7188 19.7212 24.9024 19.7212 25.1289C19.7212 25.3554 19.5376 25.5391 19.311 25.5391H8.6875C8.46098 25.5391 8.27734 25.3554 8.27734 25.1289ZM18.7641 17.5172C19.2918 17.5172 19.7211 17.9465 19.7211 18.4742L19.7212 19.2945C19.7212 19.8222 19.2918 20.2515 18.7642 20.2515H9.23437C8.7067 20.2515 8.27734 19.8222 8.27734 19.2945V18.4742C8.27734 17.9465 8.7067 17.5172 9.23437 17.5172H18.7641ZM18.7641 19.4312C18.8395 19.4312 18.9008 19.3699 18.9008 19.2945L18.9009 18.4742C18.9009 18.3988 18.8395 18.3375 18.7642 18.3375H9.23437C9.15902 18.3375 9.09766 18.3988 9.09766 18.4742V19.2945C9.09766 19.3699 9.15902 19.4312 9.23437 19.4312H18.7641Z" fill="white"/>
</svg>
