<svg width="28" height="28" viewBox="0 0 28 28" fill="none" xmlns="http://www.w3.org/2000/svg">
<g clip-path="url(#clip0)">
<path d="M14.0154 12.7031C13.4999 12.7031 13.082 13.121 13.082 13.6365C13.082 14.0092 13.301 14.3299 13.6168 14.4795V15.6141C13.6168 15.8342 13.7952 16.0126 14.0153 16.0126C14.2355 16.0126 14.4138 15.8343 14.4138 15.6141V14.4795C14.7297 14.3299 14.9487 14.0092 14.9487 13.6365C14.9487 13.121 14.5309 12.7031 14.0154 12.7031Z" fill="white"/>
<path d="M23.9595 6.07656C22.244 5.39773 20.8824 4.14746 20.1254 2.55616C19.9196 2.12342 19.4747 1.84375 18.9918 1.84375H9.00578C8.523 1.84375 8.07806 2.12337 7.87222 2.55616C7.11534 4.14746 5.75368 5.39773 4.03819 6.07656C3.55699 6.26693 3.24609 6.72565 3.24609 7.24512V9.67391C3.24609 12.8578 4.17452 16.0029 5.93103 18.7694C7.7046 21.563 10.2746 23.8977 13.363 25.5209L13.4133 25.5474C13.5966 25.6438 13.7977 25.6919 13.9989 25.6919C14.1999 25.6919 14.401 25.6437 14.5843 25.5474L14.6348 25.5209C17.7232 23.8976 20.2931 21.563 22.0667 18.7694C23.8232 16.0028 24.7516 12.8577 24.7516 9.67391V7.24512C24.7516 6.72559 24.4406 6.26693 23.9595 6.07656ZM23.9547 9.67396C23.9547 12.7062 23.0692 15.7036 21.3939 18.3423C19.6948 21.0185 17.2293 23.2569 14.2641 24.8155L14.2136 24.842C14.0791 24.9127 13.9186 24.9127 13.784 24.842L13.7337 24.8156C10.7684 23.257 8.30288 21.0186 6.60374 18.3423C4.9285 15.7037 4.043 12.7062 4.043 9.67391V7.24512C4.043 7.05476 4.1562 6.88692 4.33137 6.81763C6.23504 6.06437 7.74808 4.67252 8.59185 2.89851C8.66628 2.74194 8.82876 2.64077 9.00573 2.64077H18.9919C19.1689 2.64077 19.3313 2.74194 19.4058 2.89851C20.2496 4.67252 21.7627 6.06437 23.6663 6.81769C23.8415 6.88698 23.9547 7.05481 23.9547 7.24518V9.67396Z" fill="white"/>
<path d="M25.9594 13.4582C25.7448 13.4097 25.5314 13.5443 25.4829 13.759C24.2693 19.1281 20.5731 23.7844 15.3419 26.5339L14.1262 27.1729C14.0478 27.2141 13.954 27.2141 13.8755 27.1729L12.6599 26.5339C7.4205 23.78 3.72242 19.1157 2.51388 13.737C2.4657 13.5223 2.25242 13.3873 2.03777 13.4356C1.82307 13.4838 1.6881 13.697 1.73634 13.9117C2.99612 19.5188 6.84245 24.3766 12.2891 27.2393L13.5048 27.8783C13.6601 27.9599 13.8305 28.0007 14.0009 28.0007C14.1712 28.0007 14.3417 27.9599 14.497 27.8782L15.7127 27.2392C21.1507 24.381 24.9951 19.5317 26.2603 13.9347C26.3087 13.7201 26.174 13.5067 25.9594 13.4582Z" fill="white"/>
<path d="M25.764 4.55968C23.6361 4.33519 21.963 2.84162 21.6952 0.927664C21.6212 0.398781 21.1667 0 20.638 0H7.36074C6.83208 0 6.37757 0.398781 6.30358 0.927664C6.03572 2.84167 4.36261 4.33519 2.23483 4.55968C1.69566 4.61655 1.28906 5.07205 1.28906 5.61914V9.89811C1.28906 10.5199 1.32127 11.1485 1.38482 11.7666C1.40593 11.9717 1.57896 12.1244 1.78076 12.1244C1.79438 12.1244 1.80816 12.1237 1.82199 12.1222C2.04091 12.0998 2.20016 11.904 2.17763 11.6851C2.11687 11.094 2.08602 10.4928 2.08602 9.89811V5.61914C2.08602 5.48324 2.18813 5.36594 2.31845 5.35221C4.81088 5.08927 6.77416 3.31521 7.09288 1.03808C7.11246 0.898351 7.22506 0.796961 7.36074 0.796961H20.6379C20.7736 0.796961 20.8863 0.898351 20.9059 1.03808C21.2245 3.31521 23.1878 5.08922 25.6802 5.35221C25.8106 5.36594 25.9127 5.48324 25.9127 5.61914V9.89811C25.9127 10.4865 25.8825 11.0815 25.823 11.6667C25.8007 11.8856 25.9602 12.0812 26.1791 12.1034C26.3979 12.1259 26.5936 11.9662 26.6159 11.7473C26.6781 11.1355 26.7096 10.5133 26.7096 9.89811V5.61914C26.7097 5.07205 26.3031 4.61655 25.764 4.55968Z" fill="white"/>
<path d="M18.5643 9.94422H17.9091V8.04208C17.9091 5.8951 16.1624 4.14844 14.0154 4.14844C11.8684 4.14844 10.1217 5.8951 10.1217 8.04208V9.94422H9.46655C8.76775 9.94422 8.19922 10.5127 8.19922 11.2115V16.917C8.19922 17.6158 8.76775 18.1844 9.46655 18.1844H18.5643C19.2631 18.1844 19.8316 17.6158 19.8316 16.917V11.2115C19.8316 10.5127 19.2631 9.94422 18.5643 9.94422ZM10.9187 8.04213C10.9187 6.33462 12.3079 4.94545 14.0155 4.94545C15.723 4.94545 17.1122 6.33462 17.1122 8.04213V9.94427H10.9187V8.04213ZM19.0347 16.917C19.0347 17.1764 18.8236 17.3874 18.5643 17.3874H9.46655C9.20716 17.3874 8.99618 17.1764 8.99618 16.917V11.2115C8.99618 10.9522 9.20722 10.7412 9.46655 10.7412H18.5643C18.8236 10.7412 19.0347 10.9522 19.0347 11.2115V16.917Z" fill="white"/>
</g>
<defs>
<clipPath id="clip0">
<rect width="28" height="28" fill="white"/>
</clipPath>
</defs>
</svg>
