<svg width="28" height="28" viewBox="0 0 28 28" fill="none" xmlns="http://www.w3.org/2000/svg">
<g clip-path="url(#clip0)">
<path d="M13.6547 -0.0224357L13.6547 -0.0224175L2.64229 3.55648C2.64228 3.55649 2.64227 3.55649 2.64226 3.5565C2.4116 3.63128 2.25547 3.84593 2.25547 4.08874L2.25613 12.1901C2.25316 12.2781 2.18151 15.2498 3.56913 18.6892C4.96349 22.1454 7.8317 26.074 13.7202 28.0214C13.7772 28.0407 13.837 28.05 13.8964 28.05H14.1032C14.1625 28.05 14.2223 28.0407 14.2792 28.0215C20.1677 26.0741 23.0358 22.1453 24.4302 18.6915C25.8161 15.2585 25.7464 12.2945 25.7434 12.2093V4.08874C25.7434 3.84631 25.5872 3.63132 25.3566 3.55649L14.3439 -0.0223945C14.2276 -0.0603942 14.1074 -0.0579181 13.9994 -0.0226189C13.8909 -0.0575479 13.7711 -0.0600953 13.6547 -0.0224357ZM3.37453 12.212L3.37456 12.212V12.2103V4.49507L13.9993 1.04229L24.6243 4.49534L24.625 12.2299H24.625L24.625 12.2317C24.6269 12.2831 24.7002 15.0451 23.4081 18.2511C22.1173 21.4539 19.4641 25.0996 14.0123 26.9306H13.9868C8.54456 25.1038 5.88857 21.5428 4.59399 18.3794C3.2981 15.2128 3.36639 12.444 3.37453 12.212Z" fill="white" stroke="white" stroke-width="0.1"/>
<path d="M22.5267 5.48994L22.5266 5.48991L14.2622 2.70887L14.262 2.7088C14.1844 2.68308 14.1049 2.67672 14.0317 2.68238C13.9585 2.67713 13.88 2.68305 13.8017 2.70876L13.8017 2.70876L13.8014 2.70888L5.53796 5.48986L5.53788 5.48988C5.31077 5.56673 5.15703 5.77991 5.15703 6.02035V6.02035L5.15769 12.3486H5.15766L5.15771 12.3501C5.15925 12.3992 5.26383 14.6918 6.3987 17.3721C7.53392 20.0533 9.70147 23.1253 13.8297 24.7245L13.8298 24.7245C13.8948 24.7495 13.9637 24.7621 14.0318 24.7621C14.1 24.7621 14.1688 24.7495 14.2338 24.7245L14.2339 24.7245C18.3623 23.1253 20.5301 20.0533 21.6656 17.3699C22.8007 14.6873 22.9056 12.3902 22.9074 12.3321L22.9075 12.3321V12.3305V6.02035V6.0203C22.9072 5.78 22.7538 5.56679 22.5267 5.48994ZM14.0318 23.6013C10.3543 22.1045 8.41641 19.3076 7.39692 16.8723C6.38324 14.451 6.27891 12.3902 6.27612 12.3297V6.42246L14.0318 3.81225L21.7884 6.42246L21.7888 12.3114C21.7859 12.3754 21.6824 14.443 20.6671 16.8699C19.6474 19.3075 17.7093 22.1046 14.0318 23.6013Z" fill="white" stroke="white" stroke-width="0.1"/>
<path d="M13.2507 17.2888L19.1122 10.2683L13.2507 17.2888ZM13.2507 17.2888L9.48523 13.3345L9.48518 13.3345C9.27062 13.1098 8.91756 13.1029 8.69428 13.3147L8.69421 13.3147C8.47026 13.5279 8.46148 13.8824 8.67445 14.1058M13.2507 17.2888L8.67445 14.1058M8.67445 14.1058L8.67443 14.1058L8.71064 14.0713L8.67445 14.1058ZM13.2981 18.6878C13.4572 18.6824 13.606 18.6091 13.7078 18.4875L13.7078 18.4874L19.9715 10.9852L19.9715 10.9852C20.1693 10.7481 20.1377 10.3953 19.9005 10.1974C19.6625 9.99837 19.3094 10.0318 19.1122 10.2683L13.2981 18.6878Z" fill="white" stroke="white" stroke-width="0.1"/>
</g>
<defs>
<clipPath id="clip0">
<rect width="28" height="28" fill="white"/>
</clipPath>
</defs>
</svg>
