<svg width="28" height="28" viewBox="0 0 28 28" fill="none" xmlns="http://www.w3.org/2000/svg">
<path d="M17.5108 3.50206L17.5108 3.50207C17.5383 3.58443 17.5427 3.67279 17.5233 3.75745C17.5039 3.84211 17.4616 3.91979 17.4009 3.98195L17.3759 3.95751L17.4009 3.98196L16.0362 5.38069L16.3593 7.36137C16.3735 7.44889 16.3629 7.53866 16.3286 7.62041C16.2942 7.70217 16.2376 7.77261 16.1651 7.82369C16.0926 7.87477 16.0072 7.90441 15.9187 7.90924C15.8301 7.91407 15.742 7.89389 15.6644 7.851L15.6813 7.82037L15.6644 7.851L14.0002 6.93116L12.3361 7.851L12.336 7.85101C12.2584 7.89381 12.1704 7.91392 12.0819 7.90906C11.9934 7.90419 11.9081 7.87454 11.8357 7.82349C11.7632 7.77244 11.7066 7.70205 11.6723 7.62036C11.6379 7.53867 11.6273 7.44897 11.6415 7.36151L11.6415 7.36149L11.9642 5.38086L10.5996 3.98214L10.5995 3.98212L10.6246 3.95768L17.5108 3.50206ZM17.5108 3.50206C17.4832 3.4197 17.4334 3.34653 17.367 3.2906M17.5108 3.50206L17.367 3.2906M17.367 3.2906C17.3005 3.23467 17.2199 3.19813 17.1341 3.18502M17.367 3.2906L17.1341 3.18502M17.1341 3.18502C17.1341 3.18502 17.1341 3.18502 17.1341 3.18502M17.1341 3.18502L17.1341 3.18502M17.1341 3.18502L15.2672 2.89953M17.1341 3.18502L15.2672 2.89953M15.2672 2.89953L14.428 1.11174L15.2672 2.89953ZM14.2536 0.913681C14.3294 0.961805 14.3898 1.0305 14.428 1.11174L14.2536 0.913681ZM14.2536 0.913681C14.1779 0.865557 14.09 0.84 14.0002 0.84M14.2536 0.913681L14.0002 0.84M14.0002 0.84C13.9105 0.84 13.8226 0.865557 13.7468 0.913681M14.0002 0.84L13.7468 0.913681M13.7468 0.913681C13.6711 0.961805 13.6106 1.0305 13.5725 1.11174L13.7468 0.913681ZM14.8752 3.79584L16.0821 3.98029L15.1933 4.89152C15.1933 4.89153 15.1933 4.89153 15.1933 4.89153C15.1416 4.94446 15.1031 5.00877 15.0809 5.0793C15.0586 5.14982 15.0532 5.22459 15.0651 5.29758L15.27 6.55327L14.2288 5.97777C14.1588 5.9391 14.0802 5.91881 14.0002 5.91881C13.9203 5.91881 13.8416 5.9391 13.7717 5.97777L12.7305 6.55327L12.9355 5.29759L12.9356 5.29758C12.9475 5.22459 12.9421 5.14982 12.9198 5.0793C12.8975 5.00877 12.859 4.94445 12.8074 4.89152L11.9182 3.98029L13.125 3.79584C13.125 3.79584 13.125 3.79584 13.125 3.79584C13.2017 3.78413 13.2744 3.75371 13.3365 3.70728C13.3987 3.66084 13.4484 3.59981 13.4814 3.52959L14.0002 2.42457L14.5189 3.52958L14.5189 3.52959C14.5518 3.59981 14.6016 3.66084 14.6638 3.70728C14.7259 3.75371 14.7985 3.78413 14.8752 3.79584C14.8752 3.79584 14.8752 3.79584 14.8752 3.79584ZM13.5725 1.11174L12.7333 2.89953L10.8664 3.1848L10.8664 3.1848L13.5725 1.11174Z" fill="white" stroke="white" stroke-width="0.07"/>
<path d="M8.34379 4.92886V4.9285L8.38406 4.93463C8.46998 4.94771 8.55064 4.98424 8.61715 5.0402C8.68366 5.09615 8.73344 5.16937 8.76103 5.2518C8.78861 5.33422 8.79293 5.42266 8.7735 5.50737C8.75407 5.59209 8.71165 5.66981 8.6509 5.73198M8.34379 4.92886L8.62587 5.70751M8.34379 4.92886L6.51719 4.64953L5.67796 2.86174C5.63983 2.78051 5.57935 2.7118 5.5036 2.66368C5.42786 2.61556 5.33997 2.59 5.25023 2.59C5.16048 2.59 5.0726 2.61556 4.99685 2.66368C4.9211 2.7118 4.86063 2.78051 4.8225 2.86174L3.98327 4.64953L2.1164 4.93501M8.34379 4.92886L3.21423 7.13107M8.6509 5.73198L8.62587 5.70751M8.6509 5.73198L8.65092 5.73196L8.62587 5.70751M8.6509 5.73198L7.28622 7.13069M8.62587 5.70751L7.24884 7.11889M7.28622 7.13069L7.28338 7.11326L7.24884 7.11889M7.28622 7.13069L7.60926 9.11137C7.62354 9.19889 7.6129 9.28866 7.57856 9.37041C7.54422 9.45217 7.48757 9.52261 7.41509 9.57369C7.3426 9.62477 7.2572 9.65441 7.16866 9.65924C7.08012 9.66407 6.992 9.64389 6.91439 9.601L6.93132 9.57037M7.28622 7.13069L7.27389 7.14333L7.24884 7.11889M7.24884 7.11889L6.93132 9.57037M6.93132 9.57037L5.25023 8.64117M6.93132 9.57037H3.56913L5.25023 8.64117M6.93132 9.57037L6.91439 9.601L5.25023 8.68116M6.93132 9.57037L5.25023 8.68116M5.25023 8.64117L5.2333 8.6718L5.25023 8.68116M5.25023 8.64117L5.26716 8.6718L5.25023 8.68116M5.25023 8.68116L3.58606 9.601L3.58604 9.60101C3.50844 9.64381 3.42037 9.66392 3.33189 9.65906C3.24341 9.65419 3.15809 9.62454 3.08565 9.57349C3.01322 9.52244 2.9566 9.45205 2.92226 9.37036C2.88793 9.28867 2.87725 9.19897 2.89146 9.11151L2.89146 9.11149L3.21423 7.13107M5.25023 8.68116L3.21423 7.13107M3.21423 7.13107L3.22657 7.14371L3.25162 7.11927L3.21707 7.11364L3.21423 7.13107ZM3.21423 7.13107L1.84955 5.73236M1.84955 5.73236L1.87458 5.7079L1.84953 5.73234L1.84955 5.73236ZM1.84955 5.73236C1.78881 5.67019 1.74639 5.59247 1.72696 5.50776C1.70753 5.42304 1.71184 5.3346 1.73943 5.25218C1.76701 5.16975 1.8168 5.09654 1.88331 5.04058C1.94981 4.98463 2.03045 4.9481 2.11637 4.93502M2.11637 4.93502L2.12166 4.96962L2.1164 4.93501M2.11637 4.93502C2.11638 4.93502 2.11639 4.93502 2.1164 4.93501M2.11637 4.93502L2.1164 4.93501M6.12525 5.54584L7.33214 5.73029L6.44329 6.64152C6.44328 6.64153 6.44328 6.64153 6.44328 6.64153C6.39163 6.69446 6.35313 6.75877 6.33087 6.8293C6.30861 6.89982 6.30322 6.97459 6.31512 7.04758L6.51997 8.30327L5.4788 7.72777C5.40882 7.6891 5.33018 7.66881 5.25023 7.66881C5.17027 7.66881 5.09163 7.6891 5.02165 7.72777L3.9805 8.30327L4.18555 7.04759L4.18555 7.04758C4.19746 6.97459 4.19206 6.89982 4.1698 6.8293C4.14754 6.75877 4.10904 6.69445 4.05739 6.64152L3.16816 5.73029L4.37504 5.54584C4.37504 5.54584 4.37504 5.54584 4.37505 5.54584C4.45174 5.53413 4.52437 5.50371 4.58653 5.45728C4.64868 5.41084 4.69845 5.34981 4.73142 5.27959L5.25022 4.17457L5.76886 5.27958L5.76887 5.27959C5.80184 5.34981 5.85161 5.41084 5.91376 5.45728C5.97592 5.50371 6.04855 5.53413 6.12524 5.54584C6.12525 5.54584 6.12525 5.54584 6.12525 5.54584Z" fill="white" stroke="white" stroke-width="0.07"/>
<path d="M26.2608 5.25206L26.2608 5.25207C26.2883 5.33443 26.2927 5.42279 26.2733 5.50745C26.2539 5.59211 26.2116 5.66979 26.1509 5.73195L26.1259 5.70751L26.1509 5.73196L24.7862 7.13069L25.1093 9.11137C25.1235 9.19889 25.1129 9.28866 25.0786 9.37041C25.0442 9.45217 24.9876 9.52261 24.9151 9.57369C24.8426 9.62477 24.7572 9.65441 24.6687 9.65924C24.5801 9.66407 24.492 9.64389 24.4144 9.601L24.4313 9.57037L24.4144 9.601L22.7502 8.68116L21.0861 9.601L21.086 9.60101C21.0084 9.64381 20.9204 9.66392 20.8319 9.65906C20.7434 9.65419 20.6581 9.62454 20.5857 9.57349C20.5132 9.52244 20.4566 9.45205 20.4223 9.37036C20.3879 9.28867 20.3773 9.19897 20.3915 9.11151L20.3915 9.11149L20.7142 7.13085L19.3496 5.73214C19.2888 5.66997 19.2464 5.59226 19.227 5.50754C19.2075 5.42282 19.2118 5.33438 19.2394 5.25196C19.267 5.16954 19.3168 5.09632 19.3833 5.04036C19.4498 4.9844 19.5305 4.94788 19.6164 4.9348M26.2608 5.25206L21.507 4.6813M26.2608 5.25206C26.2332 5.1697 26.1834 5.09653 26.117 5.0406C26.0505 4.98467 25.9699 4.94813 25.8841 4.93502C25.8841 4.93502 25.8841 4.93502 25.8841 4.93502L24.0172 4.64953M26.2608 5.25206L24.0172 4.64953M19.6164 4.9348L19.6217 4.9694L19.6164 4.9348L19.6164 4.9348ZM19.6164 4.9348L21.4833 4.64953M21.4833 4.64953L21.4753 4.66643L21.507 4.6813M21.4833 4.64953L22.3225 2.86174L21.507 4.6813M21.4833 4.64953L21.5017 4.6467L21.507 4.6813M24.0172 4.64953L23.178 2.86174L24.0172 4.64953ZM23.0036 2.66368C23.0794 2.7118 23.1398 2.7805 23.178 2.86174L23.0036 2.66368ZM23.0036 2.66368C22.9279 2.61556 22.84 2.59 22.7502 2.59M23.0036 2.66368L22.7502 2.59M22.7502 2.59C22.6605 2.59 22.5726 2.61556 22.4968 2.66368M22.7502 2.59L22.4968 2.66368M22.4968 2.66368C22.4211 2.7118 22.3606 2.7805 22.3225 2.86174L22.4968 2.66368ZM23.2689 5.27958L23.2689 5.27959C23.3018 5.34981 23.3516 5.41084 23.4138 5.45728C23.4759 5.50371 23.5485 5.53413 23.6252 5.54584C23.6252 5.54584 23.6252 5.54584 23.6252 5.54584L24.8321 5.73029L23.9433 6.64152C23.9433 6.64153 23.9433 6.64153 23.9433 6.64153C23.8916 6.69446 23.8531 6.75877 23.8309 6.8293C23.8086 6.89982 23.8032 6.97459 23.8151 7.04758L24.02 8.30327L22.9788 7.72777C22.9088 7.6891 22.8302 7.66881 22.7502 7.66881C22.6703 7.66881 22.5916 7.6891 22.5217 7.72777L21.4805 8.30327L21.6853 7.04758L21.6508 7.04194L21.6853 7.04758C21.6972 6.97459 21.6918 6.89982 21.6696 6.8293C21.6473 6.75877 21.6088 6.69445 21.5572 6.64152L20.6682 5.73029L21.875 5.54584C21.875 5.54584 21.875 5.54584 21.875 5.54584C21.9517 5.53413 22.0244 5.50371 22.0865 5.45728C22.1487 5.41084 22.1984 5.34981 22.2314 5.27959L22.7502 4.17457L23.2689 5.27958Z" fill="white" stroke="white" stroke-width="0.07"/>
<path d="M6.6827 24.4343L6.68271 24.4344C6.81426 24.5471 9.92815 27.1767 14 27.1767C18.0719 27.1767 21.1857 24.5471 21.3173 24.4344L21.3173 24.4343C21.3707 24.3886 21.4135 24.3318 21.4429 24.2679C21.4723 24.204 21.4875 24.1345 21.4875 24.0642C21.4875 20.6937 19.2487 17.8368 16.1807 16.9009C16.8754 16.4471 17.412 15.7873 17.7144 15.0127C18.0303 14.2037 18.0734 13.3137 17.8372 12.478C17.601 11.6423 17.0984 10.9065 16.4058 10.3825C15.7132 9.85854 14.8685 9.575 14 9.575C13.1315 9.575 12.2868 9.85854 11.5942 10.3825C10.9016 10.9065 10.399 11.6423 10.1628 12.478C9.92661 13.3137 9.96971 14.2037 10.2856 15.0127C10.588 15.7873 11.1246 16.4471 11.8193 16.9009C8.75126 17.8368 6.5125 20.6937 6.5125 24.0642C6.5125 24.1345 6.5277 24.204 6.55708 24.2679C6.58646 24.3318 6.62931 24.3886 6.6827 24.4343ZM10.9875 13.5642C10.9875 12.9684 11.1642 12.3859 11.4952 11.8906C11.8262 11.3952 12.2967 11.009 12.8472 10.781C13.3976 10.553 14.0033 10.4934 14.5877 10.6096C15.1721 10.7258 15.7089 11.0127 16.1302 11.4341C16.5515 11.8554 16.8384 12.3921 16.9546 12.9765C17.0709 13.5609 17.0112 14.1666 16.7832 14.717C16.5552 15.2675 16.1691 15.738 15.6737 16.069C15.1783 16.4 14.5959 16.5767 14.0001 16.5767C13.2014 16.5758 12.4356 16.2581 11.8708 15.6934C11.3061 15.1286 10.9884 14.3629 10.9875 13.5642ZM14 17.5517C15.6909 17.5537 17.3149 18.2125 18.5294 19.3891C19.7377 20.5597 20.4465 22.1519 20.5084 23.8324C19.8185 24.3613 17.1869 26.2017 14 26.2017C10.8131 26.2017 8.18146 24.3613 7.49159 23.8324C7.55346 22.1519 8.26232 20.5597 9.47065 19.3891C10.6851 18.2125 12.3091 17.5537 14 17.5517Z" fill="white" stroke="white" stroke-width="0.1"/>
</svg>
