<svg width="41" height="41" viewBox="0 0 41 41" fill="none" xmlns="http://www.w3.org/2000/svg">
<path d="M40.9745 39.939L39.9495 35.839C39.4632 33.85 37.9887 32.2505 36.0458 31.6041L28.5289 29.0996C26.6958 28.336 25.8571 25.384 25.6759 24.2633C27.0727 23.1019 27.9714 21.4494 28.1872 19.6457C28.1564 19.3377 28.2291 19.0281 28.3939 18.7659C28.6603 18.6992 28.8783 18.5085 28.9799 18.2534C29.4717 17.0625 29.7804 15.804 29.8956 14.5207C29.8958 14.451 29.8873 14.3816 29.87 14.3141C29.7476 13.8154 29.4544 13.3754 29.0414 13.0704V8.54158C29.0414 5.78947 28.2009 4.66029 27.3159 4.00597C27.1469 2.68036 25.7272 0 20.4996 0C15.8616 0.186741 12.1444 3.90379 11.9577 8.54166V13.0705C11.5446 13.3755 11.2515 13.8155 11.1291 14.3141C11.1118 14.3817 11.1032 14.4512 11.1035 14.5208C11.2185 15.8047 11.5272 17.0638 12.0192 18.2553C12.0932 18.4967 12.2872 18.6824 12.5317 18.7456C12.6274 18.7934 12.8068 19.0411 12.8068 19.6459C13.0239 21.4547 13.9278 23.1109 15.3318 24.2721C15.1524 25.391 14.3187 28.3413 12.5369 29.0861L4.95339 31.6042C3.012 32.2505 1.53852 33.8484 1.05148 35.8357L0.0264479 39.9357C-0.0895884 40.3929 0.187009 40.8577 0.644267 40.9737C0.712576 40.9911 0.782806 40.9999 0.853277 41H40.146C40.6178 40.9998 41.0001 40.6173 41 40.1456C40.9999 40.0758 40.9914 40.0065 40.9745 39.939Z" fill="#49608D"/>
</svg>
