<svg width="37" height="42" viewBox="0 0 37 42" fill="none" xmlns="http://www.w3.org/2000/svg">
<path d="M18.5225 46C25.7157 46 32.2345 43.0942 37 38.3723C36.5954 35.8297 36.0109 33.6958 35.1567 32.5607C34.2576 31.3349 30.3463 30.0636 27.6938 29.2463C27.0644 28.7923 26.3001 28.3837 25.6258 28.0204C27.469 28.1567 29.3572 27.5664 30.7959 26.3859C30.1665 26.4767 29.4921 26.2951 28.9077 25.9773C29.1324 25.9319 29.3572 25.8411 29.582 25.7957C28.0535 25.4779 26.7047 24.2974 26.1203 22.7991C26.6148 22.0727 27.2892 21.437 27.9186 20.8468C27.9186 20.9376 27.9186 21.0738 27.9186 21.1646C28.6379 20.2565 29.3572 19.3031 29.8068 18.2134C30.3913 16.6243 30.2564 14.7174 29.3572 13.2645C29.4921 13.3099 29.6719 13.3553 29.8068 13.4461C28.3682 11.857 27.469 9.81387 27.1543 7.67994C26.9745 6.45406 27.0194 5.18278 26.48 4.09311C25.8056 2.82183 24.322 2.00457 22.9283 2.14078C23.0632 2.00457 23.1531 1.91377 23.288 1.82296C22.8834 1.91377 22.4787 2.04998 22.0741 2.27699C22.164 2.00457 22.3439 1.77756 22.4787 1.55054C22.164 1.73216 21.8943 1.91377 21.6695 2.18618C21.8044 1.64135 22.0292 1.14192 22.3439 0.687889C21.8044 1.09651 21.3548 1.59595 21.0401 2.18618C19.6464 0.733291 17.6233 -0.083961 15.6452 0.00684488C13.3973 0.0976507 11.1944 1.36893 9.98056 3.32126C10.2503 3.27585 10.4751 3.23045 10.7448 3.18505C8.54192 5.68221 7.32807 9.04202 7.41798 12.3564C7.59781 12.1294 7.73268 11.9478 7.91251 11.7208C8.63183 14.218 8.22722 16.9875 6.87849 19.1669C7.28311 19.1215 7.68773 19.1215 8.09234 19.0761C8.22722 20.3928 8.72175 21.664 9.48603 22.7083C9.53098 22.3451 9.53098 21.9365 9.57594 21.5732C9.9356 22.6629 10.4751 23.6618 11.1495 24.5698C10.4751 25.2509 9.66586 25.7503 8.72175 25.9319C8.94654 25.9773 9.17132 26.0681 9.39611 26.1135C8.85662 26.4313 8.18226 26.613 7.5079 26.5222C8.63183 27.4302 10.0255 27.975 11.4192 28.1113C10.6999 28.4745 9.9356 28.8831 9.3062 29.3825C6.65371 30.1998 2.78736 31.4711 1.84326 32.6969C0.989065 33.7866 0.404617 35.966 0 38.5085C4.81045 43.0942 11.3293 46 18.5225 46ZM24.3669 27.4302C24.3669 27.4756 24.3669 27.4756 24.3669 27.4302C24.3669 27.4756 24.322 27.4302 24.322 27.4302H24.3669Z" fill="#49608D"/>
</svg>
