<svg width="44" height="53" viewBox="0 0 44 53" fill="none" xmlns="http://www.w3.org/2000/svg">
<path d="M22.0267 55C30.5808 55 38.3329 51.5257 44 45.8799C43.5188 42.8399 42.8238 40.2885 41.808 38.9313C40.7388 37.4656 36.0875 35.9456 32.9332 34.9684C32.1847 34.4256 31.2758 33.937 30.4739 33.5027C32.6659 33.6656 34.9113 32.9598 36.6221 31.5484C35.8736 31.657 35.0717 31.4398 34.3767 31.0598C34.644 31.0055 34.9113 30.897 35.1786 30.8427C33.3609 30.4627 31.757 29.0512 31.062 27.2598C31.6501 26.3912 32.452 25.6312 33.2005 24.9255C33.2005 25.0341 33.2005 25.1969 33.2005 25.3055C34.0559 24.2198 34.9113 23.0798 35.4459 21.7769C36.1409 19.8769 35.9806 17.5969 34.9113 15.8597C35.0717 15.914 35.2855 15.9683 35.4459 16.0769C33.7351 14.1769 32.6659 11.734 32.2916 9.18253C32.0778 7.71681 32.1312 6.1968 31.4897 4.89393C30.6877 3.37392 28.9235 2.39677 27.2661 2.55963C27.4265 2.39677 27.5334 2.2882 27.6938 2.17963C27.2126 2.2882 26.7315 2.45106 26.2503 2.72249C26.3572 2.39677 26.5711 2.12534 26.7315 1.85391C26.3572 2.07106 26.0364 2.2882 25.7691 2.61392C25.9295 1.96248 26.1968 1.36534 26.5711 0.822475C25.9295 1.31105 25.3949 1.9082 25.0207 2.61392C23.3633 0.876761 20.9575 -0.100388 18.6051 0.0081841C15.932 0.116756 13.3123 1.63677 11.8688 3.97107C12.1896 3.91678 12.4569 3.8625 12.7776 3.80821C10.158 6.79395 8.71446 10.8111 8.82139 14.774C9.03524 14.5026 9.19563 14.2854 9.40948 14.014C10.2649 16.9997 9.78372 20.3112 8.17983 22.9169C8.661 22.8626 9.14216 22.8626 9.62333 22.8083C9.78372 24.3826 10.3718 25.9027 11.2807 27.1512C11.3341 26.7169 11.3341 26.2284 11.3876 25.7941C11.8153 27.0969 12.4569 28.2912 13.2588 29.377C12.4569 30.1912 11.4945 30.7884 10.3718 31.0055C10.6391 31.0598 10.9064 31.1684 11.1738 31.2227C10.5322 31.6027 9.73026 31.8198 8.92831 31.7113C10.2649 32.797 11.9222 33.4484 13.5796 33.6113C12.7242 34.0456 11.8153 34.5341 11.0668 35.1313C7.91252 36.1084 3.3147 37.6284 2.19198 39.0942C1.17618 40.397 0.481166 43.0028 0 46.0428C5.72053 51.5257 13.4727 55 22.0267 55ZM28.9769 32.797C28.9769 32.8513 28.9769 32.8513 28.9769 32.797C28.9769 32.8513 28.9235 32.797 28.9235 32.797H28.9769Z" fill="#49608D"/>
</svg>
