<svg width="64" height="64" viewBox="0 0 64 64" fill="none" xmlns="http://www.w3.org/2000/svg">
<circle cx="32" cy="32" r="32" fill="#D8E5EE"/>
<mask id="mask0" mask-type="alpha" maskUnits="userSpaceOnUse" x="0" y="0" width="64" height="64">
<circle cx="32" cy="32" r="32" fill="#C4C4C4"/>
</mask>
<g mask="url(#mask0)">
<path d="M57.9677 62.6543L56.6677 57.4543C56.0509 54.9317 54.1808 52.903 51.7167 52.0832L42.183 48.9069C39.8581 47.9384 38.7943 44.1944 38.5646 42.773C40.3361 41.3 41.4759 39.2041 41.7497 36.9165C41.7106 36.5258 41.8028 36.1332 42.0118 35.8007C42.3496 35.7161 42.6262 35.4741 42.755 35.1507C43.3788 33.6402 43.7703 32.0441 43.9164 30.4166C43.9167 30.3281 43.9058 30.24 43.8839 30.1544C43.7287 29.522 43.3568 28.9639 42.833 28.5771V22.8332C42.833 19.3427 41.7669 17.9106 40.6445 17.0807C40.4302 15.3995 38.6297 12 31.9995 12C26.1172 12.2368 21.4027 16.9512 21.1658 22.8333V28.5772C20.642 28.964 20.2701 29.5221 20.115 30.1545C20.093 30.2401 20.0821 30.3283 20.0825 30.4167C20.2283 32.045 20.6198 33.6419 21.2438 35.153C21.3377 35.4592 21.5838 35.6947 21.8939 35.7749C22.0152 35.8355 22.2427 36.1497 22.2427 36.9167C22.5181 39.2108 23.6646 41.3114 25.4452 42.7841C25.2177 44.2032 24.1603 47.9451 21.9005 48.8897L12.2823 52.0833C9.8201 52.903 7.9513 54.9297 7.33358 57.4502L6.03354 62.6501C5.88638 63.2301 6.23718 63.8195 6.81712 63.9667C6.90375 63.9887 6.99283 63.9999 7.0822 64H56.9169C57.5152 63.9998 58.0001 63.5146 58 62.9163C57.9999 62.8279 57.989 62.7399 57.9677 62.6543Z" fill="#49608D"/>
</g>
</svg>
