<svg width="60" height="60" viewBox="0 0 60 60" fill="none" xmlns="http://www.w3.org/2000/svg">
<mask id="mask0" mask-type="alpha" maskUnits="userSpaceOnUse" x="0" y="0" width="60" height="60">
<circle cx="30" cy="30" r="30" fill="#D8E5EE"/>
</mask>
<g mask="url(#mask0)">
<circle cx="30" cy="30" r="30" fill="#D8E5EE"/>
<path d="M30.0267 62C38.5808 62 46.3329 58.5257 52 52.8799C51.5188 49.8399 50.8238 47.2885 49.808 45.9313C48.7388 44.4656 44.0875 42.9456 40.9332 41.9684C40.1847 41.4256 39.2758 40.937 38.4739 40.5027C40.6659 40.6656 42.9113 39.9598 44.6221 38.5484C43.8736 38.657 43.0717 38.4398 42.3767 38.0598C42.644 38.0055 42.9113 37.897 43.1786 37.8427C41.3609 37.4627 39.757 36.0512 39.062 34.2598C39.6501 33.3912 40.452 32.6312 41.2005 31.9255C41.2005 32.0341 41.2005 32.1969 41.2005 32.3055C42.0559 31.2198 42.9113 30.0798 43.4459 28.7769C44.1409 26.8769 43.9806 24.5969 42.9113 22.8597C43.0717 22.914 43.2855 22.9683 43.4459 23.0769C41.7351 21.1769 40.6659 18.734 40.2916 16.1825C40.0778 14.7168 40.1312 13.1968 39.4897 11.8939C38.6877 10.3739 36.9235 9.39677 35.2661 9.55963C35.4265 9.39677 35.5334 9.2882 35.6938 9.17963C35.2126 9.2882 34.7315 9.45106 34.2503 9.72249C34.3572 9.39677 34.5711 9.12534 34.7315 8.85391C34.3572 9.07106 34.0364 9.2882 33.7691 9.61392C33.9295 8.96248 34.1968 8.36534 34.5711 7.82248C33.9295 8.31105 33.3949 8.9082 33.0207 9.61392C31.3633 7.87676 28.9575 6.89961 26.6051 7.00818C23.932 7.11676 21.3123 8.63677 19.8688 10.9711C20.1896 10.9168 20.4569 10.8625 20.7776 10.8082C18.158 13.7939 16.7145 17.8111 16.8214 21.774C17.0352 21.5026 17.1956 21.2854 17.4095 21.014C18.2649 23.9997 17.7837 27.3112 16.1798 29.9169C16.661 29.8626 17.1422 29.8626 17.6233 29.8083C17.7837 31.3826 18.3718 32.9027 19.2807 34.1512C19.3341 33.7169 19.3341 33.2284 19.3876 32.7941C19.8153 34.0969 20.4569 35.2912 21.2588 36.377C20.4569 37.1912 19.4945 37.7884 18.3718 38.0055C18.6391 38.0598 18.9064 38.1684 19.1738 38.2227C18.5322 38.6027 17.7303 38.8198 16.9283 38.7113C18.2649 39.797 19.9222 40.4484 21.5796 40.6113C20.7242 41.0456 19.8153 41.5341 19.0668 42.1313C15.9125 43.1084 11.3147 44.6284 10.192 46.0942C9.17618 47.397 8.48117 50.0028 8 53.0428C13.7205 58.5257 21.4727 62 30.0267 62ZM36.9769 39.797C36.9769 39.8513 36.9769 39.8513 36.9769 39.797C36.9769 39.8513 36.9235 39.797 36.9235 39.797H36.9769Z" fill="#49608D"/>
</g>
</svg>
