<svg width="56" height="56" viewBox="0 0 56 56" fill="none" xmlns="http://www.w3.org/2000/svg">
<g clip-path="url(#clip0)">
<path d="M21.5126 0L10.1726 0.0466667C8.70255 0.0466667 7.32589 0.863333 6.62589 2.14667L0.699219 12.88L20.3692 12.8333L21.5126 0Z" fill="white"/>
<path d="M45.9208 12.7865L39.9242 2.05312C39.2008 0.769792 37.8475 -0.046875 36.3542 -0.046875L25.0142 -0.000208337L26.2042 12.8331L45.9208 12.7865Z" fill="white"/>
<path d="M46.667 21.8617C44.8237 21.3017 42.8637 20.9984 40.8337 20.9984C29.8904 20.9984 21.0004 29.8884 21.0004 40.8317C21.0004 42.8617 21.3037 44.8451 21.8871 46.6884L3.75705 46.7351C3.73372 46.7351 3.73372 46.7351 3.73372 46.7351C1.72705 46.7351 0.0703841 45.0784 0.0703841 43.0484L-0.0229492 16.3784L21.5604 16.3317H25.0604L46.6437 16.2617L46.667 21.8617Z" fill="white"/>
<path d="M40.8332 25.668C32.4798 25.668 25.6665 32.4813 25.6665 40.8346C25.6665 49.188 32.4798 56.0013 40.8332 56.0013C49.1865 56.0013 55.9998 49.188 55.9998 40.8346C55.9998 32.4813 49.1865 25.668 40.8332 25.668ZM47.2498 42.5846H42.5832V47.2513C42.5832 48.208 41.7898 49.0013 40.8332 49.0013C39.8765 49.0013 39.0832 48.208 39.0832 47.2513V42.5846H34.4165C33.4598 42.5846 32.6665 41.7913 32.6665 40.8346C32.6665 39.878 33.4598 39.0846 34.4165 39.0846H39.0832V34.418C39.0832 33.4613 39.8765 32.668 40.8332 32.668C41.7898 32.668 42.5832 33.4613 42.5832 34.418V39.0846H47.2498C48.2065 39.0846 48.9998 39.878 48.9998 40.8346C48.9998 41.7913 48.2065 42.5846 47.2498 42.5846Z" fill="white"/>
</g>
<defs>
<clipPath id="clip0">
<rect width="56" height="56" fill="white"/>
</clipPath>
</defs>
</svg>
