<svg width="14" height="14" viewBox="0 0 14 14" fill="none" xmlns="http://www.w3.org/2000/svg">
<path d="M1.40001 2.80078H0V12.6008C0 13.3743 0.626489 14.0008 1.40001 14.0008H11.2V12.6008H1.40001V2.80078Z" fill="#236EFF"/>
<path d="M12.6008 0H4.20079C3.4273 0 2.80078 0.626489 2.80078 1.40001V9.8C2.80078 10.5735 3.42727 11.2 4.20079 11.2H12.6008C13.3743 11.2 14.0008 10.5735 14.0008 9.8V1.40001C14.0008 0.626489 13.3743 0 12.6008 0ZM11.9008 6.29999H9.10081V9.09998H7.7008V6.29999H4.90081V4.89998H7.7008V2.1H9.10081V4.89998H11.9008V6.29999Z" fill="#236EFF"/>
</svg>
