<svg width="14" height="14" viewBox="0 0 14 14" fill="none" xmlns="http://www.w3.org/2000/svg">
<g clip-path="url(#clip0)">
<path d="M13.7427 10.3188L8.38069 1.91694C8.0783 1.44308 7.56214 1.16016 6.99999 1.16016C6.4378 1.16016 5.92163 1.44308 5.61934 1.91694L0.257239 10.3188C-0.064602 10.8231 -0.085953 11.4624 0.201699 11.9873C0.489351 12.5119 1.0397 12.8379 1.63798 12.8379H12.3621C12.9603 12.8379 13.5107 12.512 13.7984 11.9872C14.0859 11.4624 14.0646 10.8232 13.7427 10.3188ZM6.99999 11.4236C6.50689 11.4236 6.10722 11.0239 6.10722 10.5308C6.10722 10.0377 6.50694 9.63801 6.99999 9.63801C7.49309 9.63801 7.89277 10.0377 7.89277 10.5308C7.89277 11.0239 7.49305 11.4236 6.99999 11.4236ZM8.23745 5.21963L7.79772 8.18025C7.733 8.61605 7.32724 8.91685 6.89148 8.85212C6.53942 8.79983 6.27546 8.5238 6.22118 8.19034L5.74366 5.23557C5.6325 4.54761 6.10005 3.89979 6.78801 3.78862C7.47597 3.67745 8.1238 4.14501 8.23497 4.83297C8.25587 4.96252 8.25515 5.09625 8.23745 5.21963Z" fill="#236EFF"/>
</g>
<defs>
<clipPath id="clip0">
<rect width="14" height="14" fill="white"/>
</clipPath>
</defs>
</svg>
