<svg width="16" height="16" viewBox="0 0 16 16" fill="none" xmlns="http://www.w3.org/2000/svg">
<g opacity="0.2">
<path d="M14.5604 0.528886C14.4229 0.331355 14.2377 0.186901 14.0052 0.0952654C13.8572 0.031891 13.702 0.000148158 13.5398 0.000148158L2.4571 0C2.29498 0 2.13997 0.0317428 1.99189 0.0951173C1.75928 0.186679 1.57416 0.331318 1.4367 0.528738C1.29929 0.726158 1.23047 0.944617 1.23047 1.18437V14.8156C1.23047 15.0554 1.29929 15.2738 1.4367 15.4714C1.57416 15.6688 1.75928 15.8134 1.99189 15.9049C2.13982 15.9683 2.29498 16 2.4571 16C2.78857 16 3.081 15.8836 3.33486 15.6511L7.9985 11.1671L12.6621 15.6512C12.9089 15.8765 13.2015 15.9893 13.5398 15.9893C13.7161 15.9893 13.8712 15.9613 14.0052 15.9049C14.2376 15.8134 14.4228 15.6688 14.5604 15.4711C14.6978 15.2738 14.7665 15.0553 14.7665 14.8156V1.18452C14.7665 0.944765 14.6977 0.726306 14.5604 0.528886Z" fill="#343434"/>
</g>
</svg>
