<svg width="50" height="50" viewBox="0 0 50 50" fill="none" xmlns="http://www.w3.org/2000/svg">
<mask id="mask0" mask-type="alpha" maskUnits="userSpaceOnUse" x="0" y="0" width="50" height="50">
<circle cx="25" cy="25" r="25" fill="#D8E5EE"/>
</mask>
<g mask="url(#mask0)">
<circle cx="25" cy="25" r="25" fill="#D8E5EE"/>
<g clip-path="url(#clip0)">
<path d="M27.0021 17.7253L10.975 15.2899C10.2313 15.1732 9.47292 15.3774 8.90417 15.8586C8.33542 16.3545 8 17.0691 8 17.8128V48.5399C8 49.342 8.65625 49.9982 9.45833 49.9982H14.1979V42.342C14.1979 40.9274 15.3354 39.7899 16.75 39.7899H20.3958C21.8104 39.7899 22.9479 40.9274 22.9479 42.342V49.9982H29.1458V20.2482C29.1458 18.9941 28.2417 17.9295 27.0021 17.7253ZM16.0208 36.5086H13.8333C13.2296 36.5086 12.7396 36.0186 12.7396 35.4149C12.7396 34.8111 13.2296 34.3211 13.8333 34.3211H16.0208C16.6246 34.3211 17.1146 34.8111 17.1146 35.4149C17.1146 36.0186 16.6246 36.5086 16.0208 36.5086ZM16.0208 32.1336H13.8333C13.2296 32.1336 12.7396 31.6436 12.7396 31.0399C12.7396 30.4361 13.2296 29.9461 13.8333 29.9461H16.0208C16.6246 29.9461 17.1146 30.4361 17.1146 31.0399C17.1146 31.6436 16.6246 32.1336 16.0208 32.1336ZM16.0208 27.7586H13.8333C13.2296 27.7586 12.7396 27.2686 12.7396 26.6649C12.7396 26.0611 13.2296 25.5711 13.8333 25.5711H16.0208C16.6246 25.5711 17.1146 26.0611 17.1146 26.6649C17.1146 27.2686 16.6246 27.7586 16.0208 27.7586ZM16.0208 23.3836H13.8333C13.2296 23.3836 12.7396 22.8936 12.7396 22.2899C12.7396 21.6861 13.2296 21.1961 13.8333 21.1961H16.0208C16.6246 21.1961 17.1146 21.6861 17.1146 22.2899C17.1146 22.8936 16.6246 23.3836 16.0208 23.3836ZM23.3125 36.5086H21.125C20.5213 36.5086 20.0312 36.0186 20.0312 35.4149C20.0312 34.8111 20.5213 34.3211 21.125 34.3211H23.3125C23.9163 34.3211 24.4062 34.8111 24.4062 35.4149C24.4062 36.0186 23.9163 36.5086 23.3125 36.5086ZM23.3125 32.1336H21.125C20.5213 32.1336 20.0312 31.6436 20.0312 31.0399C20.0312 30.4361 20.5213 29.9461 21.125 29.9461H23.3125C23.9163 29.9461 24.4062 30.4361 24.4062 31.0399C24.4062 31.6436 23.9163 32.1336 23.3125 32.1336ZM23.3125 27.7586H21.125C20.5213 27.7586 20.0312 27.2686 20.0312 26.6649C20.0312 26.0611 20.5213 25.5711 21.125 25.5711H23.3125C23.9163 25.5711 24.4062 26.0611 24.4062 26.6649C24.4062 27.2686 23.9163 27.7586 23.3125 27.7586ZM23.3125 23.3836H21.125C20.5213 23.3836 20.0312 22.8936 20.0312 22.2899C20.0312 21.6861 20.5213 21.1961 21.125 21.1961H23.3125C23.9163 21.1961 24.4062 21.6861 24.4062 22.2899C24.4062 22.8936 23.9163 23.3836 23.3125 23.3836Z" fill="#49608D"/>
<path d="M40.9869 30.8111L30.6035 28.6367V49.9998H40.4473C41.8546 49.9998 42.9993 48.8551 42.9993 47.4478V33.3048C42.9993 32.1003 42.1783 31.0751 40.9869 30.8111ZM37.5306 45.6248H35.3431C34.7393 45.6248 34.2493 45.1348 34.2493 44.5311C34.2493 43.9273 34.7393 43.4373 35.3431 43.4373H37.5306C38.1343 43.4373 38.6243 43.9273 38.6243 44.5311C38.6243 45.1348 38.1343 45.6248 37.5306 45.6248ZM37.5306 41.2498H35.3431C34.7393 41.2498 34.2493 40.7598 34.2493 40.1561C34.2493 39.5523 34.7393 39.0623 35.3431 39.0623H37.5306C38.1343 39.0623 38.6243 39.5523 38.6243 40.1561C38.6243 40.7598 38.1343 41.2498 37.5306 41.2498ZM37.5306 36.8748H35.3431C34.7393 36.8748 34.2493 36.3848 34.2493 35.7811C34.2493 35.1773 34.7393 34.6873 35.3431 34.6873H37.5306C38.1343 34.6873 38.6243 35.1773 38.6243 35.7811C38.6243 36.3848 38.1343 36.8748 37.5306 36.8748Z" fill="#49608D"/>
</g>
</g>
<defs>
<clipPath id="clip0">
<rect width="35" height="35" fill="white" transform="translate(8 15)"/>
</clipPath>
</defs>
</svg>
