<svg width="11" height="9" viewBox="0 0 11 9" fill="none" xmlns="http://www.w3.org/2000/svg">
<path d="M9.5 2.49999H8V0.5H1.00001C0.447493 0.5 0 0.947493 0 1.50001V7.00002H1.00001C1.00001 7.82753 1.6725 8.50002 2.50001 8.50002C3.32752 8.50002 4.00001 7.82753 4.00001 7.00002H7.00001C7.00001 7.82753 7.67251 8.50002 8.50001 8.50002C9.32752 8.50002 10 7.82753 10 7.00002H11V4.50001L9.5 2.49999ZM2.50001 7.75C2.085 7.75 1.75001 7.41501 1.75001 7C1.75001 6.58499 2.085 6.25 2.50001 6.25C2.91502 6.25 3.25001 6.58499 3.25001 7C3.25001 7.41501 2.91499 7.75 2.50001 7.75ZM8.50001 7.75C8.08501 7.75 7.75001 7.41501 7.75001 7C7.75001 6.58499 8.08501 6.25 8.50001 6.25C8.91502 6.25 9.25001 6.58499 9.25001 7C9.25001 7.41501 8.915 7.75 8.50001 7.75ZM8 4.50001V3.25002H9.24999L10.2325 4.50001H8Z" fill="#3E80FE"/>
</svg>
