<svg width="26" height="26" viewBox="0 0 26 26" fill="none" xmlns="http://www.w3.org/2000/svg">
<path d="M12.9492 0.8125C5.80887 0.8125 0 5.93775 0 12.2383C0 14.8998 1.0533 17.4788 2.97025 19.523C3.34963 21.0873 2.88915 22.7446 1.74657 23.8872C1.26882 24.365 1.60667 25.1875 2.28516 25.1875C4.45575 25.1875 6.54824 24.3373 8.10291 22.8376C9.64123 23.3866 11.2688 23.6641 12.9492 23.6641C20.0896 23.6641 26 18.5388 26 12.2383C26 5.93775 20.0896 0.8125 12.9492 0.8125ZM6.95703 14.5234C5.69695 14.5234 4.67188 13.4984 4.67188 12.2383C4.67188 10.9782 5.69695 9.95312 6.95703 9.95312C8.21712 9.95312 9.24219 10.9782 9.24219 12.2383C9.24219 13.4984 8.21712 14.5234 6.95703 14.5234ZM13.0508 14.5234C11.7907 14.5234 10.7656 13.4984 10.7656 12.2383C10.7656 10.9782 11.7907 9.95312 13.0508 9.95312C14.3109 9.95312 15.3359 10.9782 15.3359 12.2383C15.3359 13.4984 14.3109 14.5234 13.0508 14.5234ZM19.1445 14.5234C17.8844 14.5234 16.8594 13.4984 16.8594 12.2383C16.8594 10.9782 17.8844 9.95312 19.1445 9.95312C20.4046 9.95312 21.4297 10.9782 21.4297 12.2383C21.4297 13.4984 20.4046 14.5234 19.1445 14.5234Z" fill="#C2C2C2"/>
</svg>
