<svg width="21" height="21" viewBox="0 0 21 21" fill="none" xmlns="http://www.w3.org/2000/svg">
<g clip-path="url(#clip0)">
<path d="M20.9618 4.98094C20.8895 4.71216 20.7132 4.48303 20.4719 4.34411C20.2305 4.20451 19.9434 4.16675 19.6741 4.23903C19.4052 4.31148 19.1761 4.48764 19.0371 4.72891L18.8622 5.0334C18.6959 4.93788 18.4835 4.9941 18.3863 5.1595L17.4974 6.6746L17.1929 6.49963C17.1123 6.45298 17.0163 6.44034 16.9264 6.4646C16.8363 6.48903 16.7598 6.54815 16.7135 6.62915C16.6187 6.79643 16.6764 7.00899 16.843 7.10502L17.1475 7.27999L14.173 12.4346L13.4381 14.3979L13.0882 15.0522C12.8833 15.4086 12.9052 15.8516 13.1442 16.186L12.3568 17.1518L12.1364 16.599C12.037 16.3526 11.8068 16.1838 11.5421 16.1631C11.2773 16.1423 11.0235 16.2732 10.887 16.501L10.7611 16.7144L10.6422 15.3146C10.6148 14.9835 10.3583 14.7172 10.0286 14.6773C9.69862 14.6375 9.38627 14.8351 9.28084 15.1502L8.42 17.7327C8.35986 17.9154 8.45828 18.1122 8.64042 18.1738C8.6746 18.1897 8.71133 18.1992 8.74893 18.2016C8.89929 18.2021 9.03325 18.1063 9.08144 17.9638L9.93869 15.3812L10.0612 16.8019C10.0865 17.105 10.3043 17.357 10.6006 17.4257C10.8969 17.4944 11.2035 17.3638 11.3595 17.1029L11.489 16.8893L11.706 17.4389C11.7981 17.6704 12.0064 17.8356 12.2529 17.8723C12.4995 17.9091 12.7469 17.8119 12.9028 17.6172L13.7181 16.585C13.8084 16.6086 13.9013 16.6204 13.9946 16.62C14.3697 16.623 14.7179 16.4254 14.9079 16.102L15.2578 15.5176L16.5911 13.8974L19.5971 8.67975L19.9016 8.85472C19.9827 8.9012 20.0418 8.97792 20.0659 9.06831C20.0902 9.15801 20.0776 9.2537 20.0311 9.33418L18.6313 11.7593C18.5785 11.839 18.5606 11.9367 18.5818 12.03C18.603 12.1231 18.6612 12.2036 18.7432 12.2526C18.8239 12.2994 18.9199 12.3121 19.0098 12.2878C19.0998 12.2634 19.1764 12.2043 19.2227 12.1233L20.6225 9.69813C20.7621 9.45669 20.7998 9.16963 20.7274 8.90034C20.6549 8.63139 20.4788 8.40226 20.2375 8.26334L19.933 8.08837L20.8079 6.5731C20.9034 6.40685 20.8472 6.19463 20.6819 6.09723L20.8569 5.79274C21.0003 5.54754 21.0382 5.25467 20.9618 4.98094ZM19.6425 5.07885C19.6888 4.99786 19.7657 4.93857 19.8561 4.91447C19.946 4.89226 20.041 4.90473 20.122 4.9495C20.2031 4.99581 20.2623 5.0727 20.2865 5.16292C20.3087 5.25279 20.2963 5.3478 20.2515 5.42879L20.0765 5.73328L19.4676 5.38334L19.6425 5.07885ZM14.8729 14.8493L14.6979 14.7478L14.18 14.4468L14.6769 13.1171L15.7792 13.7539L14.8729 14.8493ZM13.8231 15.8605C13.6753 15.7575 13.6298 15.5593 13.7181 15.4021L13.8931 15.0978L14.5019 15.4477L14.327 15.7486C14.2779 15.8337 14.1956 15.8942 14.0997 15.9156C14.0038 15.9367 13.9035 15.9169 13.8231 15.8605ZM16.1782 13.1801L14.9674 12.4802L17.7669 7.62993L18.9777 8.32981L16.1782 13.1801ZM19.3276 7.72442L18.1168 7.02454L18.8167 5.81376L20.0275 6.51364L19.3276 7.72442Z" fill="#236EFF"/>
<path d="M5.52288 15.6857L4.28425 16.9211L3.54233 16.1792C3.40581 16.0435 3.18538 16.0435 3.04886 16.1792C2.98256 16.245 2.94531 16.3343 2.94531 16.4276C2.94531 16.5209 2.98256 16.6104 3.04886 16.6761L3.79077 17.418C3.922 17.5482 4.09936 17.6211 4.28425 17.621C4.47015 17.622 4.64905 17.549 4.78113 17.418L6.01635 16.1792C6.13527 16.0403 6.12724 15.8333 5.99807 15.7042C5.86872 15.5748 5.66179 15.5668 5.52288 15.6857Z" fill="#236EFF"/>
<path d="M1.40039 16.6267C1.40039 18.2696 2.73215 19.6012 4.37488 19.6012C6.01762 19.6012 7.34938 18.2696 7.34938 16.6267C7.34938 16.4335 7.19269 16.2768 6.99944 16.2768C6.80618 16.2768 6.6495 16.4335 6.6495 16.6267C6.6495 17.883 5.63112 18.9014 4.37488 18.9014C3.11865 18.9014 2.10027 17.883 2.10027 16.6267C2.10027 15.3705 3.11865 14.3521 4.37488 14.3521C4.86733 14.3508 5.34662 14.5105 5.73962 14.8072C5.89425 14.9232 6.11365 14.8917 6.2295 14.7371C6.34552 14.5825 6.31425 14.3632 6.15961 14.2472C5.25828 13.5713 4.05228 13.4626 3.04467 13.9663C2.03688 14.4702 1.40039 15.5002 1.40039 16.6267Z" fill="#236EFF"/>
<path d="M12.5988 2.80144C12.792 2.80144 12.9487 2.64493 12.9487 2.4515C12.9487 2.25825 12.792 2.10156 12.5988 2.10156H3.50033C3.30708 2.10156 3.15039 2.25825 3.15039 2.4515V3.85126C3.15039 4.04469 3.30708 4.2012 3.50033 4.2012H12.5988C12.792 4.2012 12.9487 4.04469 12.9487 3.85126C12.9487 3.65801 12.792 3.50132 12.5988 3.50132H3.85027V2.80144H12.5988Z" fill="#236EFF"/>
<path d="M4.54916 4.90234C4.35591 4.90234 4.19922 5.05903 4.19922 5.25228C4.19922 5.44571 4.35591 5.60222 4.54916 5.60222H11.548C11.7412 5.60222 11.8979 5.44571 11.8979 5.25228C11.8979 5.05903 11.7412 4.90234 11.548 4.90234H4.54916Z" fill="#236EFF"/>
<path d="M13.6482 7.35156H5.94955C5.7563 7.35156 5.59961 7.50825 5.59961 7.7015C5.59961 7.89493 5.7563 8.05144 5.94955 8.05144H13.6482C13.8415 8.05144 13.9982 7.89493 13.9982 7.7015C13.9982 7.50825 13.8415 7.35156 13.6482 7.35156Z" fill="#236EFF"/>
<path d="M10.1479 9.80306C10.1479 9.60981 9.99122 9.45312 9.79797 9.45312H2.79916C2.60591 9.45312 2.44922 9.60981 2.44922 9.80306C2.44922 9.99649 2.60591 10.153 2.79916 10.153H9.79797C9.99122 10.153 10.1479 9.99649 10.1479 9.80306Z" fill="#236EFF"/>
<path d="M13.6472 9.45312H11.1976C11.0043 9.45312 10.8477 9.60981 10.8477 9.80306C10.8477 9.99649 11.0043 10.153 11.1976 10.153H13.6472C13.8404 10.153 13.9971 9.99649 13.9971 9.80306C13.9971 9.60981 13.8404 9.45312 13.6472 9.45312Z" fill="#236EFF"/>
<path d="M6.29856 11.903C6.49182 11.903 6.6485 11.7465 6.6485 11.5531C6.6485 11.3598 6.49182 11.2031 6.29856 11.2031H2.79916C2.60591 11.2031 2.44922 11.3598 2.44922 11.5531C2.44922 11.7465 2.60591 11.903 2.79916 11.903H6.29856Z" fill="#236EFF"/>
<path d="M7.69955 11.903H10.1491C10.3424 11.903 10.4991 11.7465 10.4991 11.5531C10.4991 11.3598 10.3424 11.2031 10.1491 11.2031H7.69955C7.5063 11.2031 7.34961 11.3598 7.34961 11.5531C7.34961 11.7465 7.5063 11.903 7.69955 11.903Z" fill="#236EFF"/>
<path d="M15.7473 16.1012C15.5541 16.1012 15.3974 16.2578 15.3974 16.4511V19.9505C15.3974 20.1439 15.2407 20.3004 15.0474 20.3004H1.04982C0.856568 20.3004 0.699881 20.1439 0.699881 19.9505V1.05373C0.699881 0.860474 0.856568 0.703787 1.04982 0.703787H15.0474C15.2407 0.703787 15.3974 0.860474 15.3974 1.05373V7.6257C15.3974 7.81896 15.5541 7.97564 15.7473 7.97564C15.9406 7.97564 16.0973 7.81896 16.0973 7.6257V1.05373C16.0973 0.473968 15.6272 0.00390625 15.0474 0.00390625H1.04982C0.470062 0.00390625 0 0.473968 0 1.05373V19.9505C0 20.5304 0.470062 21.0003 1.04982 21.0003H15.0474C15.6272 21.0003 16.0973 20.5304 16.0973 19.9505V16.4511C16.0973 16.2578 15.9406 16.1012 15.7473 16.1012Z" fill="#236EFF"/>
</g>
<defs>
<clipPath id="clip0">
<rect width="21" height="21" fill="white"/>
</clipPath>
</defs>
</svg>
