<svg width="12" height="12" viewBox="0 0 12 12" fill="none" xmlns="http://www.w3.org/2000/svg">
<path d="M11.6421 0H6.0836C5.88591 0 5.72574 0.160225 5.72574 0.357859V1.31215C5.72574 1.50978 5.88591 1.67001 6.0836 1.67001H9.14906L1.67001 9.14906V6.08364C1.67001 5.88601 1.50978 5.72579 1.31215 5.72579H0.357859C0.160177 5.72579 0 5.88601 0 6.08364V11.6421C0 11.8397 0.160177 12 0.357859 12H5.9164C6.11409 12 6.27426 11.8397 6.27426 11.6421V10.6878C6.27426 10.4902 6.11409 10.3299 5.9164 10.3299H2.85094L10.33 2.85089V5.91636C10.33 6.11399 10.4902 6.27422 10.6879 6.27422H11.6421C11.8398 6.27422 12 6.11399 12 5.91636V0.357859C12 0.160225 11.8398 0 11.6421 0Z" fill="#236EFF"/>
</svg>
