<svg width="14" height="14" viewBox="0 0 14 14" fill="none" xmlns="http://www.w3.org/2000/svg">
<path d="M2.89844 14H11.1016C11.7801 14 12.332 13.448 12.332 12.7695V4.10156H9.46094C8.78243 4.10156 8.23047 3.5496 8.23047 2.87109V0H2.89844C2.21993 0 1.66797 0.551961 1.66797 1.23047V12.7695C1.66797 13.448 2.21993 14 2.89844 14ZM4.53906 5.76953H9.46094C9.68764 5.76953 9.87109 5.95298 9.87109 6.17969C9.87109 6.40639 9.68764 6.58984 9.46094 6.58984H4.53906C4.31236 6.58984 4.12891 6.40639 4.12891 6.17969C4.12891 5.95298 4.31236 5.76953 4.53906 5.76953ZM4.53906 7.41016H9.46094C9.68764 7.41016 9.87109 7.59361 9.87109 7.82031C9.87109 8.04702 9.68764 8.23047 9.46094 8.23047H4.53906C4.31236 8.23047 4.12891 8.04702 4.12891 7.82031C4.12891 7.59361 4.31236 7.41016 4.53906 7.41016ZM4.53906 9.05078H9.46094C9.68764 9.05078 9.87109 9.23423 9.87109 9.46094C9.87109 9.68764 9.68764 9.87109 9.46094 9.87109H4.53906C4.31236 9.87109 4.12891 9.68764 4.12891 9.46094C4.12891 9.23423 4.31236 9.05078 4.53906 9.05078ZM4.53906 10.6914H7.82031C8.04702 10.6914 8.23047 10.8749 8.23047 11.1016C8.23047 11.3283 8.04702 11.5117 7.82031 11.5117H4.53906C4.31236 11.5117 4.12891 11.3283 4.12891 11.1016C4.12891 10.8749 4.31236 10.6914 4.53906 10.6914Z" fill="#3E80FE"/>
<path d="M9.46094 3.28311H12.0917L9.05078 0.242188V2.87296C9.05078 3.09925 9.23464 3.28311 9.46094 3.28311Z" fill="#3E80FE"/>
</svg>
