<svg width="13" height="14" viewBox="0 0 13 14" fill="none" xmlns="http://www.w3.org/2000/svg">
<g clip-path="url(#clip0)">
<path d="M7.38629 9.13677C7.33774 9.08361 7.27632 9.04384 7.21285 9.01071C7.07465 8.93864 6.92351 8.89493 6.77344 8.85547V10.0184C7.01702 9.99084 7.29666 9.90243 7.42455 9.67503C7.48561 9.5664 7.49775 9.43294 7.47288 9.31202C7.45939 9.2465 7.43153 9.18636 7.38629 9.13677Z" fill="#21A101"/>
<path d="M5.62933 7.27662C5.58746 7.33777 5.56118 7.40724 5.55393 7.48108C5.54668 7.55508 5.55075 7.63739 5.57886 7.70705C5.60563 7.77343 5.6617 7.82243 5.71957 7.86189C5.78452 7.90606 5.85594 7.94057 5.92869 7.96981C5.98971 7.99437 6.05836 8.01787 6.13235 8.04057V6.98828C5.94542 7.02817 5.74117 7.11333 5.62933 7.27662Z" fill="#21A101"/>
<path d="M7.42705 9.66406C7.4254 9.66699 7.42362 9.67006 7.42188 9.67329C7.42392 9.66953 7.42553 9.66676 7.42705 9.66406Z" fill="#21A101"/>
<path d="M7.18188 3.32859C8.17081 2.49784 8.83161 0.626269 8.42495 0.544411C7.88462 0.435603 6.71126 0.91271 6.14412 0.996771C5.33974 1.09389 4.46365 0.124506 3.97189 0.664842C3.57205 1.10417 4.25855 2.70187 5.33258 3.39791C2.12825 4.97279 -2.37565 12.8788 5.48164 13.4525C16.3535 14.2462 10.9096 4.86328 7.18188 3.32859ZM8.11557 9.56365C8.08213 9.87188 7.91878 10.1506 7.67462 10.3398C7.41681 10.5396 7.09344 10.6326 6.77216 10.6586V10.9992C6.77216 11.0903 6.73236 11.1784 6.66415 11.2387C6.57039 11.3217 6.43261 11.3422 6.31882 11.2897C6.20647 11.238 6.13265 11.1228 6.13265 10.9992V10.627C6.07756 10.6165 6.02287 10.604 5.96881 10.5892C5.66855 10.5067 5.39003 10.3459 5.18657 10.108C5.08523 9.98937 5.00261 9.85481 4.94547 9.70954C4.93054 9.67157 4.91723 9.63291 4.90558 9.59382C4.89503 9.55842 4.88414 9.52245 4.88037 9.48556C4.87404 9.42368 4.88631 9.36054 4.91515 9.30542C4.97444 9.19202 5.09936 9.12353 5.22692 9.13491C5.35246 9.14604 5.46249 9.23316 5.50202 9.35283C5.51419 9.38969 5.52245 9.42747 5.53612 9.46393C5.54967 9.50015 5.56604 9.53536 5.58528 9.56888C5.62327 9.6349 5.67087 9.69577 5.72569 9.7486C5.83869 9.85747 5.98261 9.92822 6.13265 9.97031V8.70506C5.83927 8.62911 5.53643 8.53101 5.29416 8.34264C5.17642 8.25105 5.07651 8.13726 5.01108 8.00257C4.94204 7.86042 4.91344 7.70206 4.91228 7.54477C4.91108 7.38506 4.94143 7.22676 5.00805 7.08124C5.07046 6.94499 5.1603 6.82267 5.27045 6.72126C5.50599 6.50447 5.81886 6.38355 6.13268 6.33914V6.3113V5.98561C6.13268 5.89451 6.17248 5.80635 6.2407 5.74603C6.33448 5.6631 6.4722 5.64261 6.58602 5.69504C6.69835 5.74677 6.77219 5.86197 6.77219 5.98561V6.3113V6.33721C6.81401 6.34247 6.8557 6.34877 6.89718 6.3563C7.20534 6.41206 7.50674 6.53931 7.73209 6.76149C7.83885 6.86671 7.92625 6.9921 7.9877 7.12884C8.00486 7.16698 8.01988 7.20602 8.03288 7.24581C8.045 7.28292 8.05717 7.32113 8.06295 7.35985C8.07219 7.42167 8.06277 7.48554 8.03631 7.5421C7.9821 7.65798 7.86054 7.73176 7.73265 7.72629C7.60698 7.72081 7.49313 7.63898 7.44813 7.52152C7.43473 7.48658 7.42803 7.4496 7.41436 7.41476C7.40056 7.37949 7.3827 7.34584 7.36211 7.31406C7.3221 7.25227 7.27025 7.19929 7.21106 7.15563C7.08289 7.06099 6.92743 7.01168 6.7721 6.98412V8.19492C6.95671 8.23912 7.14147 8.28733 7.31834 8.35708C7.58566 8.46249 7.83897 8.62412 7.98489 8.879C7.96225 8.83929 7.94023 8.8006 7.98565 8.88031C8.03025 8.95862 8.00896 8.9213 7.98657 8.88205C8.10266 9.08664 8.1408 9.33126 8.11557 9.56365Z" fill="#21A101"/>
<path d="M7.4192 9.68359C7.41719 9.68718 7.41545 9.69035 7.41406 9.69275C7.41525 9.69068 7.41703 9.68755 7.4192 9.68359Z" fill="#21A101"/>
</g>
<defs>
<clipPath id="clip0">
<rect width="13" height="13" fill="white" transform="translate(0 0.5)"/>
</clipPath>
</defs>
</svg>
