<svg width="16" height="16" viewBox="0 0 16 16" fill="none" xmlns="http://www.w3.org/2000/svg">
<circle cx="8" cy="8" r="8" transform="rotate(90 8 8)" fill="#236EFF"/>
<path d="M8.99999 4.75L8.99999 10.3447L8.39016 9.73483C8.31983 9.6645 8.22445 9.62499 8.12499 9.62499C8.02553 9.62499 7.93015 9.6645 7.85982 9.73483C7.78949 9.80516 7.74998 9.90054 7.74998 10C7.74998 10.0995 7.78949 10.1948 7.85982 10.2652L9.10982 11.5152C9.14464 11.55 9.18598 11.5776 9.23148 11.5965C9.27698 11.6153 9.32574 11.625 9.37499 11.625C9.42424 11.625 9.473 11.6153 9.5185 11.5965C9.564 11.5776 9.60534 11.55 9.64016 11.5152L10.8902 10.2652C10.9605 10.1948 11 10.0995 11 10C11 9.90054 10.9605 9.80516 10.8902 9.73483C10.8198 9.6645 10.7244 9.62499 10.625 9.62499C10.5255 9.62499 10.4301 9.6645 10.3598 9.73483L9.74999 10.3447L9.74999 4.75C9.74999 4.65054 9.71048 4.55516 9.64016 4.48483C9.56983 4.41451 9.47445 4.375 9.37499 4.375C9.27553 4.375 9.18015 4.41451 9.10983 4.48483C9.0395 4.55516 8.99999 4.65054 8.99999 4.75Z" fill="white"/>
<path d="M6.99999 11.25L6.99999 5.65534L7.60982 6.26519C7.68014 6.33551 7.77553 6.37502 7.87499 6.37502C7.97445 6.37502 8.06983 6.33551 8.14016 6.26519C8.21049 6.19486 8.25 6.09947 8.25 6.00001C8.25 5.90055 8.21049 5.80517 8.14016 5.73484L6.89016 4.48484C6.85534 4.45002 6.814 4.42239 6.7685 4.40355C6.723 4.3847 6.67423 4.375 6.62499 4.375C6.57574 4.375 6.52697 4.3847 6.48148 4.40355C6.43598 4.42239 6.39464 4.45002 6.35981 4.48484L5.10981 5.73484C5.03948 5.80517 4.99997 5.90055 4.99997 6.00001C4.99997 6.09947 5.03948 6.19486 5.10981 6.26519C5.18014 6.33551 5.27552 6.37502 5.37498 6.37502C5.47444 6.37502 5.56983 6.33551 5.64016 6.26519L6.24999 5.65534L6.24998 11.25C6.24998 11.3495 6.28949 11.4449 6.35982 11.5152C6.43015 11.5855 6.52553 11.625 6.62499 11.625C6.72444 11.625 6.81982 11.5855 6.89015 11.5152C6.96048 11.4449 6.99999 11.3495 6.99999 11.25Z" fill="white"/>
</svg>
