<svg width="13" height="14" viewBox="0 0 13 14" fill="none" xmlns="http://www.w3.org/2000/svg">
<g clip-path="url(#clip0)">
<path d="M4.40167 13.4998C2.95657 8.73801 6.01003 6.99935 6.01003 6.99935C5.79639 9.5403 7.24035 11.5199 7.24035 11.5199C7.77142 11.3596 8.78507 10.6108 8.78507 10.6108C8.78507 11.5199 8.25022 13.4987 8.25022 13.4987C8.25022 13.4987 10.1226 12.0509 10.712 9.64636C11.3006 7.24178 9.59077 4.82772 9.59077 4.82772C9.6938 6.52964 9.11803 8.20354 7.98998 9.48234C8.04642 9.41719 8.09377 9.34484 8.13014 9.26643C8.33279 8.86112 8.65818 7.80769 8.46764 5.36826C8.19946 1.94396 5.09675 0.5 5.09675 0.5C5.36418 2.5864 4.56228 3.06709 2.68384 7.02738C0.805396 10.9869 4.40167 13.4998 4.40167 13.4998Z" fill="#F9451E"/>
</g>
<defs>
<clipPath id="clip0">
<rect width="13" height="13" fill="white" transform="translate(0 0.5)"/>
</clipPath>
</defs>
</svg>
