<svg width="39" height="39" viewBox="0 0 39 39" fill="none" xmlns="http://www.w3.org/2000/svg">
<circle cx="19.5" cy="19.5" r="19.5" fill="white"/>
<g clip-path="url(#clip0)">
<path d="M29.9618 13.9809C29.8895 13.7122 29.7132 13.483 29.4719 13.3441C29.2305 13.2045 28.9434 13.1667 28.6741 13.239C28.4052 13.3115 28.1761 13.4876 28.0371 13.7289L27.8622 14.0334C27.6959 13.9379 27.4835 13.9941 27.3863 14.1595L26.4974 15.6746L26.1929 15.4996C26.1123 15.453 26.0163 15.4403 25.9264 15.4646C25.8363 15.489 25.7598 15.5482 25.7135 15.6291C25.6187 15.7964 25.6764 16.009 25.843 16.105L26.1475 16.28L23.173 21.4346L22.4381 23.3979L22.0882 24.0522C21.8833 24.4086 21.9052 24.8516 22.1442 25.186L21.3568 26.1518L21.1364 25.599C21.037 25.3526 20.8068 25.1838 20.5421 25.1631C20.2773 25.1423 20.0235 25.2732 19.887 25.501L19.7611 25.7144L19.6422 24.3146C19.6148 23.9835 19.3583 23.7172 19.0286 23.6773C18.6986 23.6375 18.3863 23.8351 18.2808 24.1502L17.42 26.7327C17.3599 26.9154 17.4583 27.1122 17.6404 27.1738C17.6746 27.1897 17.7113 27.1992 17.7489 27.2016C17.8993 27.2021 18.0333 27.1063 18.0814 26.9638L18.9387 24.3812L19.0612 25.8019C19.0865 26.105 19.3043 26.357 19.6006 26.4257C19.8969 26.4944 20.2035 26.3638 20.3595 26.1029L20.489 25.8893L20.706 26.4389C20.7981 26.6704 21.0064 26.8356 21.2529 26.8723C21.4995 26.9091 21.7469 26.8119 21.9028 26.6172L22.7181 25.585C22.8084 25.6086 22.9013 25.6204 22.9946 25.62C23.3697 25.623 23.7179 25.4254 23.9079 25.102L24.2578 24.5176L25.5911 22.8974L28.5971 17.6797L28.9016 17.8547C28.9827 17.9012 29.0418 17.9779 29.0659 18.0683C29.0902 18.158 29.0776 18.2537 29.0311 18.3342L27.6313 20.7593C27.5785 20.839 27.5606 20.9367 27.5818 21.03C27.603 21.1231 27.6612 21.2036 27.7432 21.2526C27.8239 21.2994 27.9199 21.3121 28.0098 21.2878C28.0998 21.2634 28.1764 21.2043 28.2227 21.1233L29.6225 18.6981C29.7621 18.4567 29.7998 18.1696 29.7274 17.9003C29.6549 17.6314 29.4788 17.4023 29.2375 17.2633L28.933 17.0884L29.8079 15.5731C29.9034 15.4068 29.8472 15.1946 29.6819 15.0972L29.8569 14.7927C30.0003 14.5475 30.0382 14.2547 29.9618 13.9809ZM28.6425 14.0788C28.6888 13.9979 28.7657 13.9386 28.8561 13.9145C28.946 13.8923 29.041 13.9047 29.122 13.9495C29.2031 13.9958 29.2623 14.0727 29.2865 14.1629C29.3087 14.2528 29.2963 14.3478 29.2515 14.4288L29.0765 14.7333L28.4676 14.3833L28.6425 14.0788ZM23.8729 23.8493L23.6979 23.7478L23.18 23.4468L23.6769 22.1171L24.7792 22.7539L23.8729 23.8493ZM22.8231 24.8605C22.6753 24.7575 22.6298 24.5593 22.7181 24.4021L22.8931 24.0978L23.5019 24.4477L23.327 24.7486C23.2779 24.8337 23.1956 24.8942 23.0997 24.9156C23.0038 24.9367 22.9035 24.9169 22.8231 24.8605ZM25.1782 22.1801L23.9674 21.4802L26.7669 16.6299L27.9777 17.3298L25.1782 22.1801ZM28.3276 16.7244L27.1168 16.0245L27.8167 14.8138L29.0275 15.5136L28.3276 16.7244Z" fill="#236EFF"/>
<path d="M14.5229 24.6857L13.2842 25.9211L12.5423 25.1792C12.4058 25.0435 12.1854 25.0435 12.0489 25.1792C11.9826 25.245 11.9453 25.3343 11.9453 25.4276C11.9453 25.5209 11.9826 25.6104 12.0489 25.6761L12.7908 26.418C12.922 26.5482 13.0994 26.6211 13.2842 26.621C13.4702 26.622 13.6491 26.549 13.7811 26.418L15.0163 25.1792C15.1353 25.0403 15.1272 24.8333 14.9981 24.7042C14.8687 24.5748 14.6618 24.5668 14.5229 24.6857Z" fill="#236EFF"/>
<path d="M10.4004 25.6267C10.4004 27.2696 11.7321 28.6012 13.3749 28.6012C15.0176 28.6012 16.3494 27.2696 16.3494 25.6267C16.3494 25.4335 16.1927 25.2768 15.9994 25.2768C15.8062 25.2768 15.6495 25.4335 15.6495 25.6267C15.6495 26.883 14.6311 27.9014 13.3749 27.9014C12.1187 27.9014 11.1003 26.883 11.1003 25.6267C11.1003 24.3705 12.1187 23.3521 13.3749 23.3521C13.8673 23.3508 14.3466 23.5105 14.7396 23.8072C14.8943 23.9232 15.1137 23.8917 15.2295 23.7371C15.3455 23.5825 15.3143 23.3632 15.1596 23.2472C14.2583 22.5713 13.0523 22.4626 12.0447 22.9663C11.0369 23.4702 10.4004 24.5002 10.4004 25.6267Z" fill="#236EFF"/>
<path d="M21.5988 11.8014C21.792 11.8014 21.9487 11.6449 21.9487 11.4515C21.9487 11.2582 21.792 11.1016 21.5988 11.1016H12.5003C12.3071 11.1016 12.1504 11.2582 12.1504 11.4515V12.8513C12.1504 13.0447 12.3071 13.2012 12.5003 13.2012H21.5988C21.792 13.2012 21.9487 13.0447 21.9487 12.8513C21.9487 12.658 21.792 12.5013 21.5988 12.5013H12.8503V11.8014H21.5988Z" fill="#236EFF"/>
<path d="M13.5492 13.9023C13.3559 13.9023 13.1992 14.059 13.1992 14.2523C13.1992 14.4457 13.3559 14.6022 13.5492 14.6022H20.548C20.7412 14.6022 20.8979 14.4457 20.8979 14.2523C20.8979 14.059 20.7412 13.9023 20.548 13.9023H13.5492Z" fill="#236EFF"/>
<path d="M22.6482 16.3516H14.9495C14.7563 16.3516 14.5996 16.5082 14.5996 16.7015C14.5996 16.8949 14.7563 17.0514 14.9495 17.0514H22.6482C22.8415 17.0514 22.9982 16.8949 22.9982 16.7015C22.9982 16.5082 22.8415 16.3516 22.6482 16.3516Z" fill="#236EFF"/>
<path d="M19.1479 18.8031C19.1479 18.6098 18.9912 18.4531 18.798 18.4531H11.7992C11.6059 18.4531 11.4492 18.6098 11.4492 18.8031C11.4492 18.9965 11.6059 19.153 11.7992 19.153H18.798C18.9912 19.153 19.1479 18.9965 19.1479 18.8031Z" fill="#236EFF"/>
<path d="M22.6472 18.4531H20.1976C20.0043 18.4531 19.8477 18.6098 19.8477 18.8031C19.8477 18.9965 20.0043 19.153 20.1976 19.153H22.6472C22.8404 19.153 22.9971 18.9965 22.9971 18.8031C22.9971 18.6098 22.8404 18.4531 22.6472 18.4531Z" fill="#236EFF"/>
<path d="M15.2986 20.903C15.4918 20.903 15.6485 20.7465 15.6485 20.5531C15.6485 20.3598 15.4918 20.2031 15.2986 20.2031H11.7992C11.6059 20.2031 11.4492 20.3598 11.4492 20.5531C11.4492 20.7465 11.6059 20.903 11.7992 20.903H15.2986Z" fill="#236EFF"/>
<path d="M16.6995 20.903H19.1491C19.3424 20.903 19.4991 20.7465 19.4991 20.5531C19.4991 20.3598 19.3424 20.2031 19.1491 20.2031H16.6995C16.5063 20.2031 16.3496 20.3598 16.3496 20.5531C16.3496 20.7465 16.5063 20.903 16.6995 20.903Z" fill="#236EFF"/>
<path d="M24.7473 25.1012C24.5541 25.1012 24.3974 25.2578 24.3974 25.4511V28.9505C24.3974 29.1439 24.2407 29.3004 24.0474 29.3004H10.0498C9.85657 29.3004 9.69988 29.1439 9.69988 28.9505V10.0537C9.69988 9.86047 9.85657 9.70379 10.0498 9.70379H24.0474C24.2407 9.70379 24.3974 9.86047 24.3974 10.0537V16.6257C24.3974 16.819 24.5541 16.9756 24.7473 16.9756C24.9406 16.9756 25.0973 16.819 25.0973 16.6257V10.0537C25.0973 9.47397 24.6272 9.00391 24.0474 9.00391H10.0498C9.47006 9.00391 9 9.47397 9 10.0537V28.9505C9 29.5304 9.47006 30.0003 10.0498 30.0003H24.0474C24.6272 30.0003 25.0973 29.5304 25.0973 28.9505V25.4511C25.0973 25.2578 24.9406 25.1012 24.7473 25.1012Z" fill="#236EFF"/>
</g>
<defs>
<clipPath id="clip0">
<rect width="21" height="21" fill="white" transform="translate(9 9)"/>
</clipPath>
</defs>
</svg>
