<svg width="39" height="39" viewBox="0 0 39 39" fill="none" xmlns="http://www.w3.org/2000/svg">
<circle cx="19.5" cy="19.5" r="19.5" fill="white"/>
<path d="M13.2656 24.4219C13.0709 24.4219 12.8806 24.4796 12.7187 24.5878C12.5569 24.6959 12.4307 24.8497 12.3562 25.0295C12.2817 25.2094 12.2622 25.4073 12.3002 25.5983C12.3381 25.7892 12.4319 25.9646 12.5696 26.1023C12.7072 26.24 12.8826 26.3337 13.0736 26.3717C13.2645 26.4097 13.4625 26.3902 13.6423 26.3157C13.8222 26.2412 13.9759 26.115 14.0841 25.9531C14.1923 25.7913 14.25 25.6009 14.25 25.4063C14.2497 25.1453 14.1459 24.8951 13.9614 24.7105C13.7768 24.526 13.5266 24.4222 13.2656 24.4219ZM13.2656 25.7344C13.2007 25.7344 13.1373 25.7151 13.0833 25.6791C13.0294 25.643 12.9873 25.5918 12.9625 25.5318C12.9376 25.4719 12.9311 25.4059 12.9438 25.3422C12.9565 25.2786 12.9877 25.2201 13.0336 25.1742C13.0795 25.1283 13.138 25.0971 13.2016 25.0844C13.2653 25.0718 13.3312 25.0783 13.3912 25.1031C13.4511 25.1279 13.5024 25.17 13.5385 25.224C13.5745 25.2779 13.5937 25.3414 13.5937 25.4063C13.5937 25.4932 13.5591 25.5766 13.4975 25.6382C13.436 25.6997 13.3526 25.7343 13.2656 25.7344Z" fill="#236EFF"/>
<path d="M25.7344 24.4219C25.5397 24.4219 25.3494 24.4796 25.1875 24.5878C25.0256 24.6959 24.8994 24.8497 24.8249 25.0295C24.7504 25.2094 24.7309 25.4073 24.7689 25.5983C24.8069 25.7892 24.9007 25.9646 25.0383 26.1023C25.176 26.24 25.3514 26.3337 25.5423 26.3717C25.7333 26.4097 25.9312 26.3902 26.1111 26.3157C26.291 26.2412 26.4447 26.115 26.5529 25.9531C26.661 25.7913 26.7188 25.6009 26.7188 25.4063C26.7185 25.1453 26.6147 24.8951 26.4301 24.7105C26.2456 24.526 25.9954 24.4222 25.7344 24.4219ZM25.7344 25.7344C25.6695 25.7344 25.606 25.7151 25.5521 25.6791C25.4981 25.643 25.4561 25.5918 25.4312 25.5318C25.4064 25.4719 25.3999 25.4059 25.4126 25.3422C25.4252 25.2786 25.4565 25.2201 25.5024 25.1742C25.5482 25.1283 25.6067 25.0971 25.6704 25.0844C25.734 25.0718 25.8 25.0783 25.8599 25.1031C25.9199 25.1279 25.9711 25.17 26.0072 25.224C26.0433 25.2779 26.0625 25.3414 26.0625 25.4063C26.0624 25.4932 26.0278 25.5766 25.9663 25.6382C25.9048 25.6997 25.8214 25.7343 25.7344 25.7344Z" fill="#236EFF"/>
<path d="M29.6198 19.9787L26.6667 15.3849C26.6369 15.3387 26.5961 15.3007 26.5478 15.2744C26.4996 15.2481 26.4456 15.2344 26.3906 15.2344H22.4531V13.4297C22.4528 13.1252 22.3317 12.8333 22.1164 12.618C21.9011 12.4027 21.6092 12.2816 21.3047 12.2812H10.4766C10.1721 12.2816 9.88017 12.4027 9.66487 12.618C9.44957 12.8333 9.32846 13.1252 9.32812 13.4297V25.4062C9.32812 25.4933 9.3627 25.5767 9.42423 25.6383C9.48577 25.6998 9.56923 25.7344 9.65625 25.7344H10.9925C11.0714 26.281 11.3446 26.7809 11.7621 27.1424C12.1796 27.504 12.7133 27.703 13.2656 27.703C13.8179 27.703 14.3517 27.504 14.7692 27.1424C15.1866 26.7809 15.4598 26.281 15.5387 25.7344H23.4613C23.5402 26.281 23.8134 26.7809 24.2308 27.1424C24.6483 27.504 25.1821 27.703 25.7344 27.703C26.2866 27.703 26.8204 27.504 27.2379 27.1424C27.6554 26.7809 27.9286 26.281 28.0075 25.7344H29.3438C29.4308 25.7344 29.5142 25.6998 29.5758 25.6383C29.6373 25.5767 29.6719 25.4933 29.6719 25.4062V20.1562C29.6719 20.0933 29.6538 20.0316 29.6198 19.9787ZM13.2656 27.0469C12.9411 27.0469 12.6239 26.9507 12.3541 26.7704C12.0843 26.5901 11.8741 26.3339 11.7499 26.0341C11.6257 25.7343 11.5932 25.4044 11.6565 25.0862C11.7198 24.7679 11.8761 24.4756 12.1055 24.2462C12.335 24.0167 12.6273 23.8605 12.9456 23.7971C13.2638 23.7338 13.5937 23.7663 13.8935 23.8905C14.1932 24.0147 14.4495 24.225 14.6298 24.4948C14.81 24.7646 14.9062 25.0818 14.9062 25.4062C14.9058 25.8412 14.7328 26.2583 14.4252 26.5659C14.1177 26.8734 13.7006 27.0464 13.2656 27.0469ZM21.7969 25.0781H15.5387C15.4598 24.5315 15.1866 24.0316 14.7692 23.6701C14.3517 23.3085 13.8179 23.1095 13.2656 23.1095C12.7133 23.1095 12.1796 23.3085 11.7621 23.6701C11.3446 24.0316 11.0714 24.5315 10.9925 25.0781H9.98438V21.7969H21.7969V25.0781ZM21.7969 21.1406H9.98438V13.4297C9.98448 13.2992 10.0364 13.1741 10.1287 13.0818C10.2209 12.9895 10.3461 12.9376 10.4766 12.9375H21.3047C21.4352 12.9376 21.5603 12.9895 21.6526 13.0818C21.7449 13.1741 21.7968 13.2992 21.7969 13.4297V21.1406ZM26.8443 16.875L28.7429 19.8281H24.0938V16.875H26.8443ZM25.7344 27.0469C25.4099 27.0469 25.0927 26.9507 24.8229 26.7704C24.5531 26.5901 24.3428 26.3339 24.2186 26.0341C24.0945 25.7343 24.062 25.4044 24.1253 25.0862C24.1886 24.7679 24.3448 24.4756 24.5743 24.2462C24.8037 24.0167 25.0961 23.8605 25.4143 23.7971C25.7326 23.7338 26.0624 23.7663 26.3622 23.8905C26.662 24.0147 26.9182 24.225 27.0985 24.4948C27.2788 24.7646 27.375 25.0818 27.375 25.4062C27.3746 25.8412 27.2016 26.2583 26.894 26.5659C26.5864 26.8734 26.1694 27.0464 25.7344 27.0469ZM29.0156 22.4531H28.3594C28.2724 22.4531 28.1889 22.4186 28.1274 22.357C28.0658 22.2955 28.0312 22.212 28.0312 22.125C28.0312 22.038 28.0658 21.9545 28.1274 21.893C28.1889 21.8314 28.2724 21.7969 28.3594 21.7969H29.0156V22.4531ZM29.0156 21.1406H28.3594C28.0983 21.1406 27.8479 21.2443 27.6633 21.4289C27.4787 21.6135 27.375 21.8639 27.375 22.125C27.375 22.3861 27.4787 22.6365 27.6633 22.8211C27.8479 23.0057 28.0983 23.1094 28.3594 23.1094H29.0156V25.0781H28.0075C27.9286 24.5315 27.6554 24.0316 27.2379 23.6701C26.8204 23.3085 26.2866 23.1095 25.7344 23.1095C25.1821 23.1095 24.6483 23.3085 24.2308 23.6701C23.8134 24.0316 23.5402 24.5315 23.4613 25.0781H22.4531V15.8906H26.2114L26.4226 16.2187H23.7656C23.6786 16.2187 23.5951 16.2533 23.5336 16.3149C23.4721 16.3764 23.4375 16.4599 23.4375 16.5469V20.1562C23.4375 20.2433 23.4721 20.3267 23.5336 20.3883C23.5951 20.4498 23.6786 20.4844 23.7656 20.4844H29.0156V21.1406Z" fill="#236EFF"/>
<path d="M24.75 21.1406H23.7656C23.6786 21.1406 23.5951 21.1752 23.5336 21.2367C23.4721 21.2983 23.4375 21.3817 23.4375 21.4688C23.4375 21.5558 23.4721 21.6392 23.5336 21.7008C23.5951 21.7623 23.6786 21.7969 23.7656 21.7969H24.75C24.837 21.7969 24.9205 21.7623 24.982 21.7008C25.0436 21.6392 25.0781 21.5558 25.0781 21.4688C25.0781 21.3817 25.0436 21.2983 24.982 21.2367C24.9205 21.1752 24.837 21.1406 24.75 21.1406Z" fill="#236EFF"/>
<path d="M17.8594 23.1094H20.4844C20.5714 23.1094 20.6549 23.0748 20.7164 23.0133C20.7779 22.9517 20.8125 22.8683 20.8125 22.7812C20.8125 22.6942 20.7779 22.6108 20.7164 22.5492C20.6549 22.4877 20.5714 22.4531 20.4844 22.4531H17.8594C17.7724 22.4531 17.6889 22.4877 17.6274 22.5492C17.5658 22.6108 17.5312 22.6942 17.5312 22.7812C17.5312 22.8683 17.5658 22.9517 17.6274 23.0133C17.6889 23.0748 17.7724 23.1094 17.8594 23.1094Z" fill="#236EFF"/>
<path d="M20.4844 23.4375H19.5C19.413 23.4375 19.3295 23.4721 19.268 23.5336C19.2064 23.5951 19.1719 23.6786 19.1719 23.7656C19.1719 23.8526 19.2064 23.9361 19.268 23.9976C19.3295 24.0592 19.413 24.0938 19.5 24.0938H20.4844C20.5714 24.0938 20.6549 24.0592 20.7164 23.9976C20.7779 23.9361 20.8125 23.8526 20.8125 23.7656C20.8125 23.6786 20.7779 23.5951 20.7164 23.5336C20.6549 23.4721 20.5714 23.4375 20.4844 23.4375Z" fill="#236EFF"/>
</svg>
