<svg width="50" height="50" viewBox="0 0 50 50" fill="none" xmlns="http://www.w3.org/2000/svg">
<circle cx="25" cy="25" r="25" fill="#236EFF" fill-opacity="0.2"/>
<path d="M16.8906 18H18.7506V32H16.8906V18ZM27.2139 18C29.1206 18 30.7006 18.68 31.9539 20.04C33.2206 21.3867 33.8539 23.04 33.8539 25C33.8539 26.96 33.2206 28.62 31.9539 29.98C30.7006 31.3267 29.1206 32 27.2139 32H21.7539V18H27.2139ZM27.2139 30.24C28.6406 30.24 29.8072 29.74 30.7139 28.74C31.6206 27.74 32.0739 26.4933 32.0739 25C32.0739 23.5067 31.6206 22.26 30.7139 21.26C29.8072 20.26 28.6406 19.76 27.2139 19.76H23.6139V30.24H27.2139Z" fill="#236EFF"/>
</svg>
