<svg width="11" height="11" viewBox="0 0 11 11" fill="none" xmlns="http://www.w3.org/2000/svg">
<g opacity="0.4">
<path d="M5.5 0C2.4599 0 0 2.46011 0 5.5C0 8.5401 2.46011 11 5.5 11C8.5401 11 11 8.53989 11 5.5C11 2.4599 8.53987 0 5.5 0ZM5.5 10.1406C2.93492 10.1406 0.859375 8.06491 0.859375 5.5C0.859375 2.93492 2.93509 0.859375 5.5 0.859375C8.06508 0.859375 10.1406 2.93509 10.1406 5.5C10.1406 8.06508 8.06489 10.1406 5.5 10.1406Z" fill="black"/>
<path d="M5.5 4.60547C5.26268 4.60547 5.07031 4.79784 5.07031 5.03516V7.80219C5.07031 8.03951 5.26268 8.23188 5.5 8.23188C5.73732 8.23188 5.92969 8.03949 5.92969 7.80217V5.03516C5.92969 4.79784 5.73732 4.60547 5.5 4.60547Z" fill="black"/>
<path d="M5.5 4.07813C5.82037 4.07813 6.08008 3.81842 6.08008 3.49805C6.08008 3.17768 5.82037 2.91797 5.5 2.91797C5.17963 2.91797 4.91992 3.17768 4.91992 3.49805C4.91992 3.81842 5.17963 4.07813 5.5 4.07813Z" fill="black"/>
</g>
</svg>
