<svg width="32" height="32" viewBox="0 0 32 32" fill="none" xmlns="http://www.w3.org/2000/svg">
<circle cx="16" cy="16" r="16" fill="#AAC7FF"/>
<path d="M16.0086 13.56C17.1713 13.56 18.1206 13.9173 18.8566 14.632C19.5926 15.336 19.9606 16.2533 19.9606 17.384C19.9606 18.5147 19.5926 19.4373 18.8566 20.152C18.1206 20.856 17.1713 21.208 16.0086 21.208C14.8353 21.208 13.8806 20.856 13.1446 20.152C12.4086 19.4373 12.0406 18.5147 12.0406 17.384C12.0406 16.5307 12.2646 15.7787 12.7126 15.128L16.2646 9.8H18.3606L15.8006 13.56H16.0086ZM16.0086 19.464C16.6273 19.464 17.134 19.2773 17.5286 18.904C17.9233 18.52 18.1206 18.0133 18.1206 17.384C18.1206 16.7547 17.9233 16.2533 17.5286 15.88C17.134 15.496 16.6273 15.304 16.0086 15.304C15.3793 15.304 14.8673 15.496 14.4726 15.88C14.078 16.2533 13.8806 16.7547 13.8806 17.384C13.8806 18.0133 14.078 18.52 14.4726 18.904C14.8673 19.2773 15.3793 19.464 16.0086 19.464Z" fill="white"/>
</svg>
