<svg width="32" height="32" viewBox="0 0 32 32" fill="none" xmlns="http://www.w3.org/2000/svg">
<circle cx="16" cy="16" r="16" fill="#AAC7FF"/>
<path d="M17.0237 14.376C17.8344 14.568 18.4904 14.9467 18.9917 15.512C19.5037 16.0667 19.7597 16.7653 19.7597 17.608C19.7597 18.728 19.381 19.608 18.6237 20.248C17.8664 20.888 16.9384 21.208 15.8397 21.208C14.9864 21.208 14.2184 21.0107 13.5357 20.616C12.8637 20.2213 12.3784 19.6453 12.0797 18.888L13.6477 17.976C13.9784 18.936 14.709 19.416 15.8397 19.416C16.4797 19.416 16.9864 19.256 17.3597 18.936C17.733 18.6053 17.9197 18.1627 17.9197 17.608C17.9197 17.0533 17.733 16.616 17.3597 16.296C16.9864 15.976 16.4797 15.816 15.8397 15.816H15.4237L14.6877 14.712L17.1037 11.528H12.4157V9.8H19.2957V11.368L17.0237 14.376Z" fill="white"/>
</svg>
