<svg width="32" height="32" viewBox="0 0 32 32" fill="none" xmlns="http://www.w3.org/2000/svg">
<circle cx="16" cy="16" r="16" fill="#AAC7FF"/>
<path d="M12.2616 21V19.56L16.1656 15.576C17.115 14.6267 17.5896 13.8053 17.5896 13.112C17.5896 12.568 17.4243 12.1467 17.0936 11.848C16.7736 11.5387 16.363 11.384 15.8616 11.384C14.923 11.384 14.2296 11.848 13.7816 12.776L12.2296 11.864C12.5816 11.1173 13.0776 10.552 13.7176 10.168C14.3576 9.784 15.067 9.592 15.8456 9.592C16.827 9.592 17.6696 9.90133 18.3736 10.52C19.0776 11.1387 19.4296 11.9813 19.4296 13.048C19.4296 14.1893 18.795 15.4053 17.5256 16.696L14.9976 19.224H19.6376V21H12.2616Z" fill="white"/>
</svg>
