<svg width="25" height="25" viewBox="0 0 25 25" fill="none" xmlns="http://www.w3.org/2000/svg">
<path d="M24.144 6.76548L17.775 0.147363C17.6843 0.0532227 17.5592 0 17.4285 0H7.93584C6.87349 0 6.00918 0.863965 6.00918 1.92588V8.65386H2.16216C1.36733 8.65386 0.720703 9.30029 0.720703 10.0949V17.309C0.720703 18.1036 1.36733 18.75 2.16216 18.75H6.00918V23.0775C6.00918 24.1376 6.87349 25 7.93584 25H22.3518C23.4141 25 24.2784 24.138 24.2784 23.0786V7.09888C24.2784 6.97456 24.2302 6.85508 24.144 6.76548ZM17.5477 1.2979L22.7761 6.73076H17.5477V1.2979ZM2.16216 17.7885C1.89751 17.7885 1.68228 17.5734 1.68228 17.309V10.0949C1.68228 9.83052 1.89756 9.61538 2.16216 9.61538H15.1447C15.4093 9.61538 15.6246 9.83052 15.6246 10.0949V17.309C15.6246 17.5734 15.4093 17.7885 15.1447 17.7885H2.16216ZM23.3168 23.0786C23.3168 23.6079 22.8839 24.0385 22.3517 24.0385H7.93584C7.40366 24.0385 6.9707 23.6074 6.9707 23.0775V18.75H15.1447C15.9395 18.75 16.5861 18.1036 16.5861 17.309V10.0949C16.5861 9.30029 15.9395 8.65386 15.1447 8.65386H6.9707V1.92588C6.9707 1.39409 7.40366 0.961523 7.93584 0.961523H16.5861V7.21152C16.5861 7.47705 16.8014 7.69229 17.0668 7.69229H23.3168V23.0786Z" fill="#236EFF"/>
<path d="M6.46899 12.2006C6.30937 11.9931 6.11123 11.8583 5.87461 11.7963C5.7206 11.755 5.39009 11.7344 4.88301 11.7344H3.54492V15.8641H4.37876V14.3063H4.92246C5.29995 14.3063 5.58823 14.2866 5.7873 14.2471C5.93379 14.2152 6.07793 14.1499 6.21972 14.0513C6.36152 13.9527 6.47842 13.817 6.57046 13.6443C6.6625 13.4715 6.70849 13.2583 6.70849 13.0048C6.70844 12.6762 6.62861 12.4081 6.46899 12.2006ZM5.75488 13.3373C5.69199 13.4293 5.60512 13.4969 5.49428 13.5401C5.38345 13.5833 5.16377 13.6049 4.83511 13.6049H4.37876V12.433H4.78159C5.08208 12.433 5.28208 12.4424 5.38159 12.4612C5.51679 12.4856 5.62856 12.5466 5.71679 12.6443C5.80508 12.7419 5.84922 12.8659 5.84922 13.0161C5.84927 13.1382 5.81777 13.2452 5.75488 13.3373Z" fill="#236EFF"/>
<path d="M10.7175 12.8626C10.6274 12.5987 10.4959 12.3757 10.3231 12.1936C10.1504 12.0114 9.94282 11.8846 9.70059 11.8132C9.52031 11.7606 9.2583 11.7344 8.91465 11.7344H7.39062V15.8641H8.95972C9.26773 15.8641 9.51372 15.835 9.69775 15.7767C9.9438 15.6979 10.1391 15.588 10.2837 15.4472C10.4752 15.2612 10.6227 15.0181 10.726 14.7176C10.8105 14.4715 10.8527 14.1786 10.8527 13.8387C10.8527 13.4518 10.8077 13.1265 10.7175 12.8626ZM9.9062 14.5584C9.84985 14.7435 9.7771 14.8763 9.68789 14.957C9.59868 15.0378 9.48648 15.0951 9.35127 15.1288C9.248 15.1552 9.07988 15.1683 8.84702 15.1683H8.22446V12.433H8.59912C8.93901 12.433 9.16724 12.4461 9.28364 12.4725C9.4395 12.5062 9.56816 12.571 9.66958 12.6668C9.771 12.7626 9.84985 12.8959 9.9062 13.0668C9.96255 13.2377 9.99072 13.4828 9.99072 13.8021C9.99072 14.1213 9.96255 14.3734 9.9062 14.5584Z" fill="#236EFF"/>
<path d="M14.3955 12.433V11.7344H11.5645V15.8641H12.3983V14.1091H14.1223V13.4105H12.3983V12.433H14.3955Z" fill="#236EFF"/>
</svg>
