<svg width="24" height="24" viewBox="0 0 24 24" fill="none" xmlns="http://www.w3.org/2000/svg">
<circle cx="12" cy="12" r="12" fill="#236EFF" fill-opacity="0.15"/>
<path d="M14.0086 11.644C14.3926 11.828 14.6966 12.092 14.9206 12.436C15.1526 12.78 15.2686 13.176 15.2686 13.624C15.2686 14.296 15.0326 14.86 14.5606 15.316C14.0886 15.772 13.5126 16 12.8326 16H9.20859V7.6H12.5686C13.2246 7.6 13.7806 7.82 14.2366 8.26C14.6926 8.7 14.9206 9.244 14.9206 9.892C14.9206 10.636 14.6166 11.22 14.0086 11.644ZM12.5686 8.644H10.3246V11.212H12.5686C12.9206 11.212 13.2166 11.088 13.4566 10.84C13.6966 10.592 13.8166 10.288 13.8166 9.928C13.8166 9.576 13.6926 9.276 13.4446 9.028C13.2046 8.772 12.9126 8.644 12.5686 8.644ZM12.8326 14.956C13.2086 14.956 13.5246 14.824 13.7806 14.56C14.0366 14.296 14.1646 13.972 14.1646 13.588C14.1646 13.212 14.0326 12.892 13.7686 12.628C13.5126 12.364 13.2006 12.232 12.8326 12.232H10.3246V14.956H12.8326Z" fill="#236EFF"/>
</svg>
