<svg width="13" height="14" viewBox="0 0 13 14" fill="none" xmlns="http://www.w3.org/2000/svg">
<g clip-path="url(#clip0)">
<path d="M12.8811 11.9407L11.6624 10.6282C11.4062 10.3523 10.9691 10.5489 10.9691 10.9374V11.6665H2.16697V2.18735H2.84405C3.20643 2.18735 3.38681 1.71485 3.13114 1.44069L1.91239 0.128188C1.75368 -0.0427292 1.49639 -0.0427292 1.33768 0.128188L0.119471 1.44069C-0.135654 1.71485 0.0447212 2.18735 0.406555 2.18735H1.08364V11.6665H0.541971C0.24243 11.6665 0.000304565 11.9279 0.000304565 12.2499C0.000304565 12.5719 0.24243 12.8332 0.541971 12.8332H1.08364V13.4165C1.08364 13.7385 1.32576 13.9999 1.6253 13.9999C1.92485 13.9999 2.16697 13.7385 2.16697 13.4165V12.8332H10.9691V13.5624C10.9691 13.9526 11.4083 14.1451 11.6624 13.8715L12.8811 12.559C13.0398 12.3881 13.0398 12.1116 12.8811 11.9407Z" fill="#236EFF"/>
<path d="M7.04167 2.33203L10.8333 4.08203L7.04167 5.83203L3.25 4.08203L7.04167 2.33203Z" fill="#236EFF"/>
<path d="M6.5 6.85131L3.25 5.35156V8.7489C3.25 8.86965 3.31879 8.97815 3.42333 9.02131L6.5 10.2953V6.85131Z" fill="#236EFF"/>
<path d="M7.58398 6.85131V10.2953L10.6607 9.02073C10.7652 8.97815 10.834 8.86965 10.834 8.7489V5.35156L7.58398 6.85131Z" fill="#236EFF"/>
</g>
<defs>
<clipPath id="clip0">
<rect width="13" height="14" fill="white"/>
</clipPath>
</defs>
</svg>
