<svg width="21" height="21" viewBox="0 0 21 21" fill="none" xmlns="http://www.w3.org/2000/svg">
<path d="M4.26562 15.4219C4.07093 15.4219 3.88062 15.4796 3.71874 15.5878C3.55686 15.6959 3.43069 15.8497 3.35618 16.0295C3.28168 16.2094 3.26218 16.4073 3.30016 16.5983C3.33815 16.7892 3.4319 16.9646 3.56957 17.1023C3.70723 17.24 3.88263 17.3337 4.07358 17.3717C4.26453 17.4097 4.46246 17.3902 4.64233 17.3157C4.8222 17.2412 4.97594 17.115 5.0841 16.9531C5.19227 16.7913 5.25 16.6009 5.25 16.4063C5.24971 16.1453 5.1459 15.8951 4.96136 15.7105C4.77682 15.526 4.52661 15.4222 4.26562 15.4219ZM4.26562 16.7344C4.20073 16.7344 4.13729 16.7151 4.08333 16.6791C4.02937 16.643 3.98731 16.5918 3.96248 16.5318C3.93764 16.4719 3.93114 16.4059 3.9438 16.3422C3.95647 16.2786 3.98772 16.2201 4.03361 16.1742C4.07949 16.1283 4.13796 16.0971 4.20161 16.0844C4.26526 16.0718 4.33124 16.0783 4.39119 16.1031C4.45115 16.1279 4.5024 16.17 4.53845 16.224C4.57451 16.2779 4.59375 16.3414 4.59375 16.4063C4.59365 16.4932 4.55905 16.5766 4.49754 16.6382C4.43602 16.6997 4.35262 16.7343 4.26562 16.7344Z" fill="#236EFF"/>
<path d="M16.7344 15.4219C16.5397 15.4219 16.3494 15.4796 16.1875 15.5878C16.0256 15.6959 15.8994 15.8497 15.8249 16.0295C15.7504 16.2094 15.7309 16.4073 15.7689 16.5983C15.8069 16.7892 15.9007 16.9646 16.0383 17.1023C16.176 17.24 16.3514 17.3337 16.5423 17.3717C16.7333 17.4097 16.9312 17.3902 17.1111 17.3157C17.291 17.2412 17.4447 17.115 17.5529 16.9531C17.661 16.7913 17.7188 16.6009 17.7188 16.4063C17.7185 16.1453 17.6147 15.8951 17.4301 15.7105C17.2456 15.526 16.9954 15.4222 16.7344 15.4219ZM16.7344 16.7344C16.6695 16.7344 16.606 16.7151 16.5521 16.6791C16.4981 16.643 16.4561 16.5918 16.4312 16.5318C16.4064 16.4719 16.3999 16.4059 16.4126 16.3422C16.4252 16.2786 16.4565 16.2201 16.5024 16.1742C16.5482 16.1283 16.6067 16.0971 16.6704 16.0844C16.734 16.0718 16.8 16.0783 16.8599 16.1031C16.9199 16.1279 16.9711 16.17 17.0072 16.224C17.0433 16.2779 17.0625 16.3414 17.0625 16.4063C17.0624 16.4932 17.0278 16.5766 16.9663 16.6382C16.9048 16.6997 16.8214 16.7343 16.7344 16.7344Z" fill="#236EFF"/>
<path d="M20.6198 10.9787L17.6667 6.3849C17.6369 6.33871 17.5961 6.30072 17.5478 6.27442C17.4996 6.24812 17.4456 6.23435 17.3906 6.23437H13.4531V4.42969C13.4528 4.12521 13.3317 3.83329 13.1164 3.61799C12.9011 3.40269 12.6092 3.28159 12.3047 3.28125H1.47656C1.17208 3.28159 0.880167 3.40269 0.664866 3.61799C0.449565 3.83329 0.328462 4.12521 0.328125 4.42969V16.4062C0.328125 16.4933 0.362695 16.5767 0.424231 16.6383C0.485766 16.6998 0.569226 16.7344 0.65625 16.7344H1.99254C2.07141 17.281 2.34462 17.7809 2.76209 18.1424C3.17957 18.504 3.71335 18.703 4.26562 18.703C4.8179 18.703 5.35168 18.504 5.76916 18.1424C6.18663 17.7809 6.45984 17.281 6.53871 16.7344H14.4613C14.5402 17.281 14.8134 17.7809 15.2308 18.1424C15.6483 18.504 16.1821 18.703 16.7344 18.703C17.2866 18.703 17.8204 18.504 18.2379 18.1424C18.6554 17.7809 18.9286 17.281 19.0075 16.7344H20.3438C20.4308 16.7344 20.5142 16.6998 20.5758 16.6383C20.6373 16.5767 20.6719 16.4933 20.6719 16.4062V11.1562C20.6719 11.0933 20.6538 11.0316 20.6198 10.9787ZM4.26562 18.0469C3.94114 18.0469 3.62394 17.9507 3.35414 17.7704C3.08434 17.5901 2.87406 17.3339 2.74989 17.0341C2.62571 16.7343 2.59322 16.4044 2.65652 16.0862C2.71983 15.7679 2.87608 15.4756 3.10553 15.2462C3.33497 15.0167 3.6273 14.8605 3.94555 14.7971C4.26381 14.7338 4.59368 14.7663 4.89347 14.8905C5.19325 15.0147 5.44948 15.225 5.62976 15.4948C5.81003 15.7646 5.90625 16.0818 5.90625 16.4062C5.90582 16.8412 5.73283 17.2583 5.42524 17.5659C5.11766 17.8734 4.70061 18.0464 4.26562 18.0469ZM12.7969 16.0781H6.53871C6.45984 15.5315 6.18663 15.0316 5.76916 14.6701C5.35168 14.3085 4.8179 14.1095 4.26562 14.1095C3.71335 14.1095 3.17957 14.3085 2.76209 14.6701C2.34462 15.0316 2.07141 15.5315 1.99254 16.0781H0.984375V12.7969H12.7969V16.0781ZM12.7969 12.1406H0.984375V4.42969C0.984484 4.29918 1.03637 4.17406 1.12865 4.08178C1.22093 3.9895 1.34606 3.93761 1.47656 3.9375H12.3047C12.4352 3.93761 12.5603 3.9895 12.6526 4.08178C12.7449 4.17406 12.7968 4.29918 12.7969 4.42969V12.1406ZM17.8443 7.875L19.7429 10.8281H15.0938V7.875H17.8443ZM16.7344 18.0469C16.4099 18.0469 16.0927 17.9507 15.8229 17.7704C15.5531 17.5901 15.3428 17.3339 15.2186 17.0341C15.0945 16.7343 15.062 16.4044 15.1253 16.0862C15.1886 15.7679 15.3448 15.4756 15.5743 15.2462C15.8037 15.0167 16.0961 14.8605 16.4143 14.7971C16.7326 14.7338 17.0624 14.7663 17.3622 14.8905C17.662 15.0147 17.9182 15.225 18.0985 15.4948C18.2788 15.7646 18.375 16.0818 18.375 16.4062C18.3746 16.8412 18.2016 17.2583 17.894 17.5659C17.5864 17.8734 17.1694 18.0464 16.7344 18.0469ZM20.0156 13.4531H19.3594C19.2724 13.4531 19.1889 13.4186 19.1274 13.357C19.0658 13.2955 19.0312 13.212 19.0312 13.125C19.0312 13.038 19.0658 12.9545 19.1274 12.893C19.1889 12.8314 19.2724 12.7969 19.3594 12.7969H20.0156V13.4531ZM20.0156 12.1406H19.3594C19.0983 12.1406 18.8479 12.2443 18.6633 12.4289C18.4787 12.6135 18.375 12.8639 18.375 13.125C18.375 13.3861 18.4787 13.6365 18.6633 13.8211C18.8479 14.0057 19.0983 14.1094 19.3594 14.1094H20.0156V16.0781H19.0075C18.9286 15.5315 18.6554 15.0316 18.2379 14.6701C17.8204 14.3085 17.2866 14.1095 16.7344 14.1095C16.1821 14.1095 15.6483 14.3085 15.2308 14.6701C14.8134 15.0316 14.5402 15.5315 14.4613 16.0781H13.4531V6.89062H17.2114L17.4226 7.21875H14.7656C14.6786 7.21875 14.5951 7.25332 14.5336 7.31486C14.4721 7.37639 14.4375 7.45985 14.4375 7.54687V11.1562C14.4375 11.2433 14.4721 11.3267 14.5336 11.3883C14.5951 11.4498 14.6786 11.4844 14.7656 11.4844H20.0156V12.1406Z" fill="#236EFF"/>
<path d="M15.75 12.1406H14.7656C14.6786 12.1406 14.5951 12.1752 14.5336 12.2367C14.4721 12.2983 14.4375 12.3817 14.4375 12.4688C14.4375 12.5558 14.4721 12.6392 14.5336 12.7008C14.5951 12.7623 14.6786 12.7969 14.7656 12.7969H15.75C15.837 12.7969 15.9205 12.7623 15.982 12.7008C16.0436 12.6392 16.0781 12.5558 16.0781 12.4688C16.0781 12.3817 16.0436 12.2983 15.982 12.2367C15.9205 12.1752 15.837 12.1406 15.75 12.1406Z" fill="#236EFF"/>
<path d="M8.85938 14.1094H11.4844C11.5714 14.1094 11.6549 14.0748 11.7164 14.0133C11.7779 13.9517 11.8125 13.8683 11.8125 13.7812C11.8125 13.6942 11.7779 13.6108 11.7164 13.5492C11.6549 13.4877 11.5714 13.4531 11.4844 13.4531H8.85938C8.77235 13.4531 8.68889 13.4877 8.62736 13.5492C8.56582 13.6108 8.53125 13.6942 8.53125 13.7812C8.53125 13.8683 8.56582 13.9517 8.62736 14.0133C8.68889 14.0748 8.77235 14.1094 8.85938 14.1094Z" fill="#236EFF"/>
<path d="M11.4844 14.4375H10.5C10.413 14.4375 10.3295 14.4721 10.268 14.5336C10.2064 14.5951 10.1719 14.6786 10.1719 14.7656C10.1719 14.8526 10.2064 14.9361 10.268 14.9976C10.3295 15.0592 10.413 15.0938 10.5 15.0938H11.4844C11.5714 15.0938 11.6549 15.0592 11.7164 14.9976C11.7779 14.9361 11.8125 14.8526 11.8125 14.7656C11.8125 14.6786 11.7779 14.5951 11.7164 14.5336C11.6549 14.4721 11.5714 14.4375 11.4844 14.4375Z" fill="#236EFF"/>
</svg>
