<svg width="22" height="22" viewBox="0 0 22 22" fill="none" xmlns="http://www.w3.org/2000/svg">
<path d="M21.7731 21.4418L21.2338 19.2843C20.9779 18.2377 20.202 17.396 19.1797 17.0559L15.2244 15.738C14.2598 15.3362 13.8184 13.7828 13.7231 13.1931C14.4581 12.582 14.931 11.7124 15.0446 10.7633C15.0283 10.6012 15.0666 10.4383 15.1533 10.3003C15.2935 10.2652 15.4082 10.1649 15.4616 10.0306C15.7204 9.40397 15.8829 8.74174 15.9435 8.06648C15.9436 8.02978 15.9391 7.99325 15.93 7.95772C15.8656 7.69533 15.7113 7.46379 15.494 7.30328V4.92019C15.494 3.472 15.0517 2.87782 14.5861 2.53351C14.4971 1.83597 13.7501 0.425537 10.9994 0.425537C8.5589 0.523802 6.60296 2.47975 6.50469 4.92023V7.30333C6.28734 7.46383 6.13308 7.69537 6.06869 7.95777C6.05959 7.99329 6.05508 8.02986 6.05521 8.06652C6.11572 8.74212 6.27816 9.40464 6.53705 10.0316C6.57599 10.1587 6.67809 10.2564 6.80673 10.2896C6.85709 10.3148 6.95148 10.4452 6.95148 10.7634C7.06571 11.7152 7.54136 12.5867 8.28012 13.1977C8.18573 13.7865 7.74703 15.339 6.80947 15.7309L2.81908 17.0559C1.79754 17.396 1.02221 18.2369 0.765925 19.2826L0.226563 21.44C0.165506 21.6806 0.311049 21.9252 0.551655 21.9863C0.587598 21.9954 0.624553 22 0.661634 22.0001H21.3372C21.5854 22 21.7866 21.7987 21.7865 21.5505C21.7865 21.5138 21.782 21.4773 21.7731 21.4418Z" fill="#49608D"/>
</svg>
