<svg width="34" height="34" viewBox="0 0 34 34" fill="none" xmlns="http://www.w3.org/2000/svg">
<g clip-path="url(#clip0)">
<path d="M21.4375 0.652344V8.87224H29.6574L21.4375 0.652344Z" fill="white"/>
<path d="M20.3258 11.087C19.7137 11.087 19.217 10.5903 19.217 9.97827V0H4.80403C4.19196 0 3.69531 0.496652 3.69531 1.10872V32.8913C3.69531 33.5034 4.19196 34.0001 4.80403 34.0001H29.1953C29.8074 34.0001 30.304 33.5034 30.304 32.8913V11.087H20.3258ZM18.1084 27.3478H9.23877C8.62671 27.3478 8.13005 26.8512 8.13005 26.2391C8.13005 25.627 8.62671 25.1304 9.23877 25.1304H18.1083C18.7204 25.1304 19.217 25.627 19.217 26.2391C19.217 26.8512 18.7205 27.3478 18.1084 27.3478ZM24.7606 22.913H9.23877C8.62671 22.913 8.13005 22.4164 8.13005 21.8043C8.13005 21.1922 8.62671 20.6956 9.23877 20.6956H24.7606C25.3726 20.6956 25.8693 21.1922 25.8693 21.8043C25.8693 22.4164 25.3726 22.913 24.7606 22.913ZM24.7606 18.4783H9.23877C8.62671 18.4783 8.13005 17.9816 8.13005 17.3696C8.13005 16.7575 8.62671 16.2608 9.23877 16.2608H24.7606C25.3726 16.2608 25.8693 16.7575 25.8693 17.3696C25.8692 17.9816 25.3726 18.4783 24.7606 18.4783Z" fill="white"/>
</g>
<defs>
<clipPath id="clip0">
<rect width="34" height="34" fill="white"/>
</clipPath>
</defs>
</svg>
