<svg width="34" height="34" viewBox="0 0 34 34" fill="none" xmlns="http://www.w3.org/2000/svg">
<g clip-path="url(#clip0)">
<path d="M31.0107 4.05078H2.98728C2.52728 4.05078 2.09664 4.16387 1.70703 4.35027L16.9326 19.5758L20.3451 16.2962C20.3451 16.2962 20.3454 16.2959 20.3455 16.2958C20.3455 16.2956 20.3458 16.2955 20.3458 16.2955L32.2914 4.35054C31.9018 4.164 31.4708 4.05078 31.0107 4.05078Z" fill="white"/>
<path d="M33.7024 5.75781L22.4609 16.9987L33.702 28.2397C33.8884 27.8501 34.0015 27.4195 34.0015 26.9595V7.03759C34.0015 6.57786 33.8887 6.14729 33.7024 5.75781Z" fill="white"/>
<path d="M0.299492 5.75781C0.11309 6.14742 0 6.57806 0 7.03806V26.9599C0 27.4197 0.112957 27.8504 0.299227 28.2398L11.5407 16.999L0.299492 5.75781Z" fill="white"/>
<path d="M21.0504 18.4064L17.6374 21.6864C17.4428 21.881 17.1879 21.9782 16.9331 21.9782C16.6783 21.9782 16.4234 21.881 16.2289 21.6864L12.9487 18.4062L1.70703 29.6472C2.0967 29.8337 2.52761 29.9469 2.98774 29.9469H31.0112C31.4712 29.9469 31.9018 29.8338 32.2914 29.6474L21.0504 18.4064Z" fill="white"/>
</g>
<defs>
<clipPath id="clip0">
<rect width="34" height="34" fill="white"/>
</clipPath>
</defs>
</svg>
