<svg width="28" height="28" viewBox="0 0 28 28" fill="none" xmlns="http://www.w3.org/2000/svg">
<g clip-path="url(#clip0)">
<path d="M8.89606 10.9157C8.82141 10.7692 8.67534 10.673 8.51156 10.6623L4.5858 10.4005C4.38236 10.3805 4.19429 10.5065 4.12008 10.6959L1.28998 17.9287C1.21391 18.1228 1.27598 18.3435 1.44212 18.47C1.52519 18.5334 1.62505 18.5652 1.72441 18.5652C1.82285 18.5652 1.92134 18.5344 2.00441 18.4719L4.35343 16.7104L5.72115 16.9838C5.94422 17.0282 6.16724 16.9059 6.24845 16.6927C6.98295 14.7687 7.86718 12.9797 8.87555 11.3759C8.96283 11.2367 8.97076 11.0617 8.89606 10.9157ZM5.51952 15.9917L4.3315 15.7542C4.20179 15.7285 4.06644 15.7593 3.96007 15.8386L2.75663 16.741L4.86437 11.3543L7.6819 11.5418C6.86996 12.9161 6.14481 14.4084 5.51952 15.9917Z" fill="#236EFF"/>
<path d="M17.5987 23.4131L17.3369 19.4869C17.3257 19.3226 17.2296 19.1766 17.0831 19.1019C16.937 19.0272 16.762 19.0347 16.623 19.1224C15.0187 20.1307 13.2301 21.015 11.3062 21.7495C11.0934 21.8302 10.9702 22.0533 11.0151 22.2768L11.2885 23.6445L9.52698 25.993C9.40191 26.1601 9.4024 26.3897 9.52884 26.5558C9.61891 26.6743 9.75749 26.7401 9.90027 26.7401C9.9572 26.7401 10.0146 26.7294 10.0706 26.7088L17.3034 23.8787C17.4928 23.8046 17.6122 23.6161 17.5987 23.4131ZM11.2577 25.2409L12.1601 24.0375C12.2395 23.9315 12.2702 23.7962 12.2441 23.666L12.0066 22.4785C13.5903 21.8532 15.0821 21.128 16.4564 20.3161L16.6444 23.1331L11.2577 25.2409Z" fill="#236EFF"/>
<path d="M13.5336 14H10.3894C10.2201 14 10.0642 14.0919 9.98156 14.2399L6.03525 21.3308C5.9326 21.5156 5.96711 21.747 6.11924 21.8936C6.20838 21.9794 6.32547 22.0242 6.4431 22.0242C6.52617 22.0242 6.60968 22.0023 6.68432 21.9566L13.7753 17.6654C13.9148 17.581 14.0002 17.4298 14.0002 17.2665V14.4666C14.0002 14.2091 13.7912 14 13.5336 14ZM13.067 17.0037L7.70588 20.2482L10.6634 14.9337V14.9332H13.067V17.0037Z" fill="#236EFF"/>
<path d="M27.9779 0.45085C27.9587 0.223625 27.7786 0.0434866 27.5514 0.0243462C27.3964 0.0122057 12.0298 -1.06059 5.37847 16.3607C5.31268 16.5329 5.35419 16.7269 5.4844 16.8572L7.70321 19.076C7.80728 19.18 7.95286 19.2276 8.09893 19.208C8.24407 19.187 8.37099 19.0993 8.44192 18.971L10.6649 14.9346H13.0672V17.0107L9.00657 19.5743C8.88664 19.6504 8.80778 19.7764 8.79192 19.9173C8.77606 20.0583 8.8255 20.1987 8.92585 20.299L11.1447 22.5179C11.2338 22.607 11.3528 22.6546 11.4746 22.6546C11.5306 22.6546 11.587 22.6448 11.6412 22.6238C29.0632 15.9719 27.9909 0.60534 27.9779 0.45085ZM25.5299 8.72985C23.8925 12.7811 20.1454 18.2888 11.5898 21.6434L9.99853 20.0522L13.7829 17.663C13.9182 17.5772 14.0004 17.4283 14.0004 17.2682V14.4684C14.0004 14.2109 13.7913 14.0018 13.5337 14.0018H10.3886C10.2183 14.0018 10.062 14.0946 9.97983 14.2435L7.92338 17.9775L6.35879 16.4124C12.1978 1.51664 24.6438 0.907212 27.0632 0.941282C27.0805 2.0295 26.9806 5.14004 25.5299 8.72985Z" fill="#236EFF"/>
<path d="M7.99338 20.6097C7.8921 20.4753 7.73066 20.41 7.57245 20.4268C7.5888 20.2681 7.52345 20.1071 7.38952 20.0058C6.68587 19.4739 5.77779 19.297 4.89728 19.5201C3.96262 19.7576 3.19826 20.395 2.80069 21.2699L0.0420022 27.3394C-0.0387157 27.5167 -0.000927043 27.7253 0.13672 27.8625C0.22586 27.9521 0.345296 27.9992 0.466646 27.9992C0.531997 27.9992 0.597786 27.9852 0.659856 27.9572L6.72934 25.198C7.60379 24.801 8.24122 24.0366 8.47872 23.1019C8.70223 22.2224 8.52537 21.3138 7.99338 20.6097ZM7.57437 22.8724C7.4073 23.5308 6.95843 24.0688 6.34342 24.3488L1.40644 26.5928L3.65047 21.6554C3.92997 21.0404 4.46847 20.5915 5.12691 20.4245C5.30004 20.3806 5.47406 20.3591 5.64578 20.3591C5.93649 20.3591 6.22064 20.4212 6.47964 20.542L6.03542 21.3283C5.93228 21.5108 5.96356 21.7399 6.11193 21.8878C6.26029 22.0367 6.48943 22.0675 6.67143 21.9643L7.45772 21.5196C7.64901 21.9312 7.69244 22.4067 7.57437 22.8724Z" fill="#236EFF"/>
<path d="M27.9765 0.449883C27.9574 0.222658 27.7772 0.0425195 27.55 0.023379C27.368 0.008887 23.0423 -0.318688 17.9551 2.02476C17.8165 2.08819 17.718 2.21605 17.691 2.36633C17.6639 2.51661 17.7124 2.67056 17.8202 2.77834L25.221 10.1791C25.3092 10.2673 25.4282 10.3158 25.551 10.3158C25.5785 10.3158 25.606 10.3135 25.6335 10.3088C25.7838 10.2818 25.9112 10.1833 25.9751 10.0447C28.319 4.95751 27.9914 0.631389 27.9765 0.449883ZM25.3998 9.03727L18.9621 2.59963C22.6863 1.02754 25.9476 0.919261 27.0623 0.937964C27.081 2.05369 26.976 5.30472 25.3998 9.03727Z" fill="#236EFF"/>
<path d="M20.6067 7.39181C19.0374 5.82252 16.4846 5.82252 14.9153 7.39181C13.346 8.96111 13.346 11.514 14.9153 13.0833C15.6997 13.8682 16.7305 14.2602 17.7608 14.2602C18.7916 14.2602 19.8219 13.8677 20.6067 13.0833C22.176 11.514 22.176 8.96105 20.6067 7.39181ZM19.9469 12.4234C18.7416 13.6287 16.7804 13.6287 15.5751 12.4234C14.3698 11.2181 14.3698 9.25691 15.5751 8.05161C16.1775 7.44918 16.9694 7.14775 17.7608 7.14775C18.5523 7.14775 19.3441 7.44918 19.947 8.05161C21.1522 9.25691 21.1522 11.2181 19.9469 12.4234Z" fill="#236EFF"/>
</g>
<defs>
<clipPath id="clip0">
<rect width="28" height="28" fill="white"/>
</clipPath>
</defs>
</svg>
