<svg width="12" height="12" viewBox="0 0 12 12" fill="none" xmlns="http://www.w3.org/2000/svg">
<path d="M11.9953 8.48434V6.47028C11.9953 6.17031 11.9097 5.87035 11.781 5.61324L10.4988 3.42777C10.3702 3.17066 10.0703 2.99925 9.77034 2.99925H7.84199C7.54205 2.99925 7.28489 3.25636 7.28489 3.55633V8.14152H6.85636V2.1422C6.85636 1.67083 6.47075 1.28516 5.99932 1.28516H0V8.99856H1.28557C1.49983 8.27008 2.14261 7.713 2.95675 7.713C3.771 7.713 4.45658 8.27008 4.62805 8.99856H7.75629C7.97055 8.27008 8.61333 7.713 9.42747 7.713C10.1132 7.713 10.6701 8.09867 10.9273 8.65575C11.0559 8.87001 11.2669 8.99856 11.4812 8.99856C11.781 8.99856 12.0382 8.74145 11.9953 8.48434ZM8.14193 5.99891V3.85629H9.85602L11.0987 5.99891H8.14193Z" fill="#236EFF"/>
<path d="M9.42619 8.14062C8.69773 8.14062 8.14062 8.6977 8.14062 9.42619C8.14062 10.1547 8.69773 10.7118 9.42619 10.7118C10.1547 10.7118 10.7118 10.1547 10.7118 9.42619C10.7118 8.6977 10.1547 8.14062 9.42619 8.14062ZM9.42619 10.0261C9.08335 10.0261 8.82631 9.76901 8.82631 9.42619C8.82631 9.08338 9.08338 8.82626 9.42619 8.82626C9.76904 8.82626 10.0261 9.08338 10.0261 9.42619C10.0261 9.76901 9.76904 10.0261 9.42619 10.0261Z" fill="#236EFF"/>
<path d="M3.00041 8.14062C2.27195 8.14062 1.71484 8.6977 1.71484 9.42619C1.71484 10.1547 2.27195 10.7118 3.00041 10.7118C3.72887 10.7118 4.28598 10.1547 4.28598 9.42619C4.28598 8.6977 3.72887 8.14062 3.00041 8.14062ZM3.00041 10.0261C2.65757 10.0261 2.40053 9.76901 2.40053 9.42619C2.40053 9.08338 2.65759 8.82626 3.00041 8.82626C3.34323 8.82626 3.60029 9.08338 3.60029 9.42619C3.60029 9.76901 3.34326 10.0261 3.00041 10.0261Z" fill="#236EFF"/>
<path d="M2.99942 9.64337C3.11775 9.64337 3.21368 9.54744 3.21368 9.4291C3.21368 9.31077 3.11775 9.21484 2.99942 9.21484C2.88108 9.21484 2.78516 9.31077 2.78516 9.4291C2.78516 9.54744 2.88108 9.64337 2.99942 9.64337Z" fill="#236EFF"/>
<path d="M9.4291 9.64337C9.54744 9.64337 9.64337 9.54744 9.64337 9.4291C9.64337 9.31077 9.54744 9.21484 9.4291 9.21484C9.31077 9.21484 9.21484 9.31077 9.21484 9.4291C9.21484 9.54744 9.31077 9.64337 9.4291 9.64337Z" fill="#236EFF"/>
</svg>
