<svg width="8" height="8" viewBox="0 0 8 8" fill="none" xmlns="http://www.w3.org/2000/svg">
<path d="M4.99999 0.75L4.99999 6.34467L4.39016 5.73483C4.31983 5.6645 4.22445 5.62499 4.12499 5.62499C4.02553 5.62499 3.93015 5.6645 3.85982 5.73483C3.78949 5.80516 3.74998 5.90054 3.74998 6C3.74998 6.09946 3.78949 6.19484 3.85982 6.26517L5.10982 7.51517C5.14464 7.55 5.18598 7.57762 5.23148 7.59647C5.27698 7.61531 5.32574 7.62501 5.37499 7.62501C5.42424 7.62501 5.473 7.61531 5.5185 7.59647C5.564 7.57762 5.60534 7.55 5.64016 7.51517L6.89016 6.26517C6.96049 6.19484 7 6.09946 7 6C7 5.90054 6.96049 5.80516 6.89016 5.73483C6.81983 5.6645 6.72445 5.62499 6.62499 5.62499C6.52553 5.62499 6.43015 5.6645 6.35982 5.73483L5.74999 6.34467L5.74999 0.75C5.74999 0.650544 5.71048 0.555161 5.64016 0.484835C5.56983 0.414509 5.47445 0.375 5.37499 0.375C5.27553 0.375 5.18015 0.414509 5.10983 0.484835C5.0395 0.555161 4.99999 0.650544 4.99999 0.75Z" fill="white"/>
<path d="M2.99999 7.25001L2.99999 1.65534L3.60982 2.26519C3.68014 2.33551 3.77553 2.37502 3.87499 2.37502C3.97445 2.37502 4.06983 2.33551 4.14016 2.26519C4.21049 2.19486 4.25 2.09947 4.25 2.00001C4.25 1.90055 4.21049 1.80517 4.14016 1.73484L2.89016 0.484842C2.85534 0.450018 2.814 0.422394 2.7685 0.403547C2.723 0.3847 2.67423 0.375 2.62499 0.375C2.57574 0.375 2.52697 0.3847 2.48148 0.403547C2.43598 0.422394 2.39464 0.450018 2.35981 0.484842L1.10981 1.73484C1.03948 1.80517 0.999973 1.90055 0.999973 2.00001C0.999973 2.09947 1.03948 2.19486 1.10981 2.26519C1.18014 2.33551 1.27552 2.37502 1.37498 2.37502C1.47444 2.37502 1.56983 2.33551 1.64016 2.26519L2.24999 1.65534L2.24998 7.25001C2.24998 7.34947 2.28949 7.44485 2.35982 7.51518C2.43015 7.5855 2.52553 7.62501 2.62499 7.62501C2.72444 7.62501 2.81982 7.5855 2.89015 7.51518C2.96048 7.44485 2.99999 7.34947 2.99999 7.25001Z" fill="white"/>
</svg>
