<svg width="12" height="12" viewBox="0 0 12 12" fill="none" xmlns="http://www.w3.org/2000/svg">
<g opacity="0.6" clip-path="url(#clip0)">
<path d="M11.1429 6.85714C11.1429 6.38357 10.7593 6 10.2857 6C9.81214 6 9.42857 6.38357 9.42857 6.85714C9.42857 6.95357 9.44829 7.04486 9.47743 7.13186L6 8.67729L2.52257 7.13186C2.55171 7.04486 2.57143 6.95357 2.57143 6.85714C2.57143 6.38357 2.18786 6 1.71429 6C1.24071 6 0.857143 6.38357 0.857143 6.85714C0.383571 6.85714 0 7.24071 0 7.71429C0 8.18786 0.383571 8.57143 0.857143 8.57143C1.17857 8.57143 1.45586 8.39229 1.60243 8.13L4.41686 9.381L3.31671 9.87C3.17014 9.60771 2.89286 9.42857 2.57143 9.42857C2.09786 9.42857 1.71429 9.81214 1.71429 10.2857C1.71429 10.7593 2.09786 11.1429 2.57143 11.1429C2.57143 11.6164 2.955 12 3.42857 12C3.90214 12 4.28571 11.6164 4.28571 11.1429C4.28571 11.0464 4.266 10.9551 4.23686 10.8681L10.398 8.13C10.5441 8.39229 10.8214 8.57143 11.1429 8.57143C11.6164 8.57143 12 8.18786 12 7.71429C12 7.24071 11.6164 6.85714 11.1429 6.85714Z" fill="#343434"/>
<path d="M9.42835 9.42969C9.10692 9.42969 8.82964 9.60883 8.68306 9.87112L8.11049 9.61655L6.52734 10.3203L7.76292 10.8693C7.73378 10.9563 7.71406 11.0475 7.71406 11.144C7.71406 11.6175 8.09763 12.0011 8.57121 12.0011C9.04478 12.0011 9.42835 11.6175 9.42835 11.144C9.90192 11.144 10.2855 10.7604 10.2855 10.2868C10.2855 9.81326 9.90192 9.42969 9.42835 9.42969Z" fill="#343434"/>
<path d="M5.99888 0C4.10546 0 2.57031 1.53514 2.57031 3.42857V5.11243C2.57031 5.39914 2.71346 5.667 2.95217 5.82557L3.85603 6.42857V7.28571H4.71317V6.42857H5.57031V7.28571H6.42745V6.42857H7.2846V7.28571H8.14174V6.42857L9.0456 5.826C9.28431 5.667 9.42745 5.39914 9.42745 5.11286V3.42857C9.42745 1.53514 7.89231 0 5.99888 0ZM4.2846 5.14286C3.81146 5.14286 3.42746 4.75886 3.42746 4.28571C3.42746 3.81214 3.81146 3.42857 4.2846 3.42857C4.75817 3.42857 5.14174 3.81214 5.14174 4.28571C5.14174 4.75886 4.75817 5.14286 4.2846 5.14286ZM5.57031 5.57143C5.57031 5.09786 5.76231 4.71429 5.99888 4.71429C6.23545 4.71429 6.42745 5.09786 6.42745 5.57143H5.57031ZM7.71317 5.14286C7.24003 5.14286 6.85603 4.75886 6.85603 4.28571C6.85603 3.81214 7.24003 3.42857 7.71317 3.42857C8.18674 3.42857 8.57031 3.81214 8.57031 4.28571C8.57031 4.75886 8.18674 5.14286 7.71317 5.14286Z" fill="#343434"/>
</g>
<defs>
<clipPath id="clip0">
<rect width="12" height="12" fill="white"/>
</clipPath>
</defs>
</svg>
