<svg width="24" height="24" viewBox="0 0 24 24" fill="none" xmlns="http://www.w3.org/2000/svg">
<circle cx="12" cy="12" r="12" fill="#236EFF" fill-opacity="0.15"/>
<path d="M17.4969 17.2936L16.2229 10.1857C16.1716 9.89957 15.9227 9.69127 15.6319 9.69127H13.5131C13.9104 9.29997 14.1572 8.75637 14.1572 8.156C14.1572 6.96717 13.1901 6 12.0012 6C10.8124 6 9.84519 6.96717 9.84519 8.156C9.84519 8.75637 10.0921 9.29997 10.4893 9.69127H8.37052C8.07976 9.69127 7.83084 9.89957 7.77952 10.1857L6.50551 17.2936C6.47417 17.4686 6.52192 17.6485 6.63604 17.7849C6.75011 17.9212 6.91875 18 7.09651 18H16.9059C17.0837 18 17.2523 17.9212 17.3664 17.7849C17.4805 17.6485 17.5283 17.4686 17.4969 17.2936ZM12.0012 7.2008C12.5279 7.2008 12.9564 7.62929 12.9564 8.156C12.9564 8.68272 12.5279 9.11124 12.0012 9.11124C11.4745 9.11124 11.046 8.68272 11.046 8.156C11.046 7.62929 11.4745 7.2008 12.0012 7.2008ZM11.8443 15.2913C11.8131 15.3489 11.7527 15.3848 11.6871 15.3848H11.4039C11.3404 15.3848 11.2817 15.3511 11.2496 15.2963L10.5486 14.0997L10.1004 14.5573V15.1084C10.1004 15.261 9.9766 15.3848 9.82393 15.3848C9.67127 15.3848 9.54751 15.261 9.54751 15.1084V12.923C9.54751 12.7704 9.67127 12.6466 9.82393 12.6466C9.9766 12.6466 10.1004 12.7704 10.1004 12.923V13.8625L11.1642 12.7045C11.1981 12.6676 11.2459 12.6466 11.2959 12.6466H11.539C11.6108 12.6466 11.6756 12.6895 11.7037 12.7556C11.7317 12.8217 11.7175 12.8981 11.6676 12.9497L10.9297 13.713L11.8371 15.1084C11.8728 15.1635 11.8756 15.2336 11.8443 15.2913ZM14.5679 14.9266C14.5679 14.981 14.5431 15.0326 14.5006 15.0665C14.3903 15.1545 14.2449 15.2335 14.0646 15.3035C13.8447 15.3888 13.6222 15.4314 13.3968 15.4314C13.1104 15.4314 12.8608 15.3714 12.6478 15.2512C12.4349 15.1311 12.2749 14.9592 12.1678 14.7357C12.0607 14.5122 12.0072 14.2691 12.0072 14.0063C12.0072 13.7212 12.0669 13.4678 12.1865 13.2462C12.306 13.0245 12.481 12.8546 12.7113 12.7362C12.8868 12.6454 13.1054 12.5999 13.3669 12.5999C13.7069 12.5999 13.9724 12.6712 14.1635 12.8138C14.2463 12.8755 14.3163 12.9475 14.3735 13.0298C14.4282 13.1083 14.4393 13.2092 14.403 13.2978C14.3668 13.3863 14.2881 13.4506 14.194 13.4682L14.1934 13.4683C14.0831 13.4889 13.9714 13.4401 13.9117 13.3452C13.8735 13.2844 13.8248 13.2324 13.7657 13.1891C13.6592 13.1113 13.5263 13.0724 13.3669 13.0724C13.1253 13.0724 12.9332 13.149 12.7907 13.3021C12.6481 13.4554 12.5769 13.6826 12.5769 13.9839C12.5769 14.3089 12.649 14.5527 12.7935 14.7152C12.9379 14.8776 13.1272 14.9589 13.3613 14.9589C13.4771 14.9589 13.5932 14.9362 13.7097 14.8907C13.826 14.8452 13.926 14.7901 14.0094 14.7254V14.378H13.6069C13.4795 14.378 13.3763 14.2747 13.3763 14.1473C13.3763 14.0199 13.4796 13.9167 13.6069 13.9167H14.389C14.4878 13.9167 14.5679 13.9968 14.5679 14.0955V14.9266Z" fill="#236EFF"/>
</svg>
