<svg width="16" height="16" viewBox="0 0 16 16" fill="none" xmlns="http://www.w3.org/2000/svg">
<g clip-path="url(#clip0)">
<path d="M14.9354 8.2068C14.871 8.07508 14.871 7.92402 14.9354 7.79234L15.5321 6.57156C15.8644 5.89185 15.6011 5.0817 14.9328 4.72711L13.7325 4.09023C13.603 4.02155 13.5142 3.8993 13.4889 3.75495L13.2541 2.41656C13.1234 1.67137 12.4341 1.17063 11.6852 1.27659L10.3398 1.46691C10.1945 1.48741 10.0509 1.44072 9.9456 1.33881L8.96901 0.394068C8.42523 -0.131991 7.57336 -0.132023 7.02962 0.394068L6.053 1.33891C5.94762 1.44084 5.80403 1.48744 5.65884 1.467L4.31344 1.27669C3.56423 1.17066 2.87517 1.67147 2.74445 2.41665L2.5097 3.75499C2.48436 3.89936 2.39558 4.02158 2.26611 4.0903L1.06581 4.72717C0.397498 5.08173 0.134249 5.89194 0.466497 6.57166L1.06321 7.7924C1.12759 7.92412 1.12759 8.07518 1.06321 8.20687L0.466466 9.42761C0.134218 10.1073 0.397467 10.9175 1.06578 11.2721L2.26608 11.9089C2.39558 11.9776 2.48436 12.0999 2.5097 12.2442L2.74445 13.5826C2.86345 14.261 3.44514 14.7367 4.11366 14.7367C4.17951 14.7367 4.24632 14.732 4.31347 14.7225L5.65887 14.5322C5.80397 14.5116 5.94765 14.5584 6.05303 14.6603L7.02962 15.6051C7.30155 15.8681 7.65036 15.9996 7.9993 15.9996C8.34814 15.9996 8.69717 15.8681 8.96898 15.6051L9.9456 14.6603C10.051 14.5584 10.1946 14.5119 10.3398 14.5322L11.6852 14.7225C12.4345 14.8285 13.1234 14.3278 13.2541 13.5826L13.4889 12.2442C13.5143 12.0999 13.603 11.9777 13.7325 11.9089L14.9328 11.2721C15.6011 10.9175 15.8644 10.1073 15.5321 9.42758L14.9354 8.2068ZM6.15365 3.84692C7.08652 3.84692 7.84549 4.60589 7.84549 5.53876C7.84549 6.47163 7.08652 7.23059 6.15365 7.23059C5.22078 7.23059 4.46182 6.47163 4.46182 5.53876C4.46182 4.60589 5.22078 3.84692 6.15365 3.84692ZM5.28041 11.3709C5.19031 11.461 5.07222 11.5061 4.95416 11.5061C4.8361 11.5061 4.71797 11.4611 4.62791 11.3709C4.44772 11.1908 4.44772 10.8986 4.62791 10.7184L10.7182 4.62817C10.8983 4.44798 11.1905 4.44798 11.3707 4.62817C11.5509 4.80835 11.5509 5.10051 11.3707 5.2807L5.28041 11.3709ZM9.84488 12.1522C8.91201 12.1522 8.15305 11.3933 8.15305 10.4604C8.15305 9.52754 8.91201 8.76858 9.84488 8.76858C10.7778 8.76858 11.5367 9.52754 11.5367 10.4604C11.5367 11.3933 10.7778 12.1522 9.84488 12.1522Z" fill="#236EFF"/>
<path d="M9.84471 9.69189C9.42068 9.69189 9.07568 10.0369 9.07568 10.4609C9.07568 10.8849 9.42065 11.2299 9.84471 11.2299C10.2687 11.2299 10.6137 10.8849 10.6137 10.4609C10.6137 10.0369 10.2687 9.69189 9.84471 9.69189Z" fill="#236EFF"/>
<path d="M6.15352 4.77026C5.72949 4.77026 5.38452 5.11523 5.38452 5.53926C5.38452 5.96329 5.72949 6.30829 6.15352 6.30829C6.57755 6.30829 6.92254 5.96332 6.92254 5.53926C6.92251 5.11526 6.57755 4.77026 6.15352 4.77026Z" fill="#236EFF"/>
</g>
<defs>
<clipPath id="clip0">
<rect width="16" height="16" fill="white"/>
</clipPath>
</defs>
</svg>
