<svg width="18" height="18" viewBox="0 0 18 18" fill="none" xmlns="http://www.w3.org/2000/svg">
<g clip-path="url(#clip0)">
<path d="M4.52266 12.7523L4.49074 12.7504C4.24014 12.7352 3.99848 12.6892 3.76898 12.6169L2.16501 15.3942C2.01806 15.6486 2.10746 15.974 2.36375 16.1178L3.94261 17.0032C4.19447 17.1445 4.51317 17.057 4.65755 16.807L6.99931 12.7523H4.52266Z" fill="#236EFF"/>
<path d="M13.4292 1.00742L8.66455 3.9244V12.3246L13.4352 15.1588C13.7868 15.3677 14.2322 15.1143 14.2322 14.7054V1.45714C14.2322 1.04507 13.7807 0.792226 13.4292 1.00742Z" fill="#236EFF"/>
<path d="M1.70613 9.84559V6.30321C1.70613 6.10022 1.72811 5.90246 1.76878 5.71167H1.00181C0.448523 5.71167 0 6.16005 0 6.71317V9.43563C0 9.98874 0.448523 10.4371 1.00181 10.4371H1.7685C1.72796 10.2458 1.70613 10.0481 1.70613 9.84559Z" fill="#236EFF"/>
<path d="M7.60977 11.6981H4.55441C3.56406 11.638 2.76123 10.8354 2.76123 9.84539V6.30305C2.76123 5.31301 3.56406 4.51047 4.55441 4.57055H7.60977V11.6981Z" fill="#236EFF"/>
<path d="M16.5494 12.3851C16.4144 12.3851 16.2794 12.3336 16.1764 12.2306L15.1123 11.1668C14.9063 10.9609 14.9063 10.627 15.1123 10.421C15.3183 10.2151 15.6523 10.2151 15.8583 10.421L16.9224 11.4848C17.1285 11.6907 17.1285 12.0247 16.9224 12.2306C16.8194 12.3336 16.6844 12.3851 16.5494 12.3851Z" fill="#236EFF"/>
<path d="M15.4853 6.05673C15.3502 6.05673 15.2153 6.00527 15.1123 5.90226C14.9063 5.69635 14.9063 5.36243 15.1123 5.15649L16.1764 4.09269C16.3824 3.88675 16.7164 3.88675 16.9224 4.09269C17.1284 4.2986 17.1284 4.63252 16.9224 4.83846L15.8583 5.90226C15.7553 6.00523 15.6203 6.05673 15.4853 6.05673Z" fill="#236EFF"/>
<path d="M17.4741 8.68848H15.9692C15.6778 8.68848 15.4417 8.45237 15.4417 8.16113C15.4417 7.8699 15.6778 7.63379 15.9692 7.63379H17.4741C17.7654 7.63379 18.0016 7.8699 18.0016 8.16113C18.0016 8.45237 17.7654 8.68848 17.4741 8.68848Z" fill="#236EFF"/>
</g>
<defs>
<clipPath id="clip0">
<rect width="18" height="18" fill="white"/>
</clipPath>
</defs>
</svg>
